<?xml version="1.0" standalone="no"?><!DOCTYPE svg PUBLIC "-//W3C//DTD SVG 1.1//EN" "http://www.w3.org/Graphics/SVG/1.1/DTD/svg11.dtd"><svg t="1692877488486" class="icon" viewBox="0 0 1024 1024" version="1.1" xmlns="http://www.w3.org/2000/svg" p-id="3192" xmlns:xlink="http://www.w3.org/1999/xlink" width="200" height="200"><path d="M789.0944 697.0368l-21.2992 117.00224c-7.29088 40.04864-42.17856 69.16096-82.8928 69.16096H205.96736l8.74496 48.0256h594.57536l42.63936-234.19904H789.0944z" fill="#FFEEC7" p-id="3193"></path><path d="M789.0944 697.0368H172.07296l33.8944 186.17344h478.93504c40.71424 0 75.60192-29.11232 82.8928-69.16096l21.2992-117.01248z" fill="#FDF7E5" p-id="3194"></path><path d="M864.31744 646.54336h-29.29664c0.28672 1.536 0.45056 3.11296 0.45056 4.74112 0 13.94688-11.30496 25.25184-25.25184 25.25184h-675.328c2.22208 11.6736 12.47232 20.51072 24.80128 20.51072h704.63488c13.94688 0 25.25184-11.30496 25.25184-25.25184-0.02048-13.95712-11.3152-25.25184-25.26208-25.25184z" fill="#FFEEC7" p-id="3195"></path><path d="M835.47136 651.27424c0-1.61792-0.16384-3.20512-0.45056-4.74112H159.68256c-13.94688 0-25.25184 11.30496-25.25184 25.25184 0 1.61792 0.16384 3.20512 0.45056 4.74112h675.33824c13.94688 0 25.25184-11.30496 25.25184-25.25184z" fill="#FDF7E5" p-id="3196"></path><path d="M840.96 127.24224L695.43936 349.89056l20.5312 29.72672 152.9856-234.06592c5.05856-7.74144-22.9376-26.04032-27.99616-18.30912zM703.96928 95.488L598.35392 339.59936l36.84352-0.90112 99.4816-229.91872c3.65568-8.48896-27.04384-21.77024-30.70976-13.29152z" fill="#FFD14F" p-id="3197"></path><path d="M866.14016 554.11712c-14.1824-14.1824-67.584-34.2016-84.43904-40.28416l-25.92768-29.02016c-2.46784-70.7584-65.04448-137.76896-65.04448-137.76896s-45.32224-14.24384-104.45824-6.0416c-45.75232 6.3488-61.24544 13.81376-61.24544 13.81376v21.9648l-0.8192 0.04096c-14.41792-14.24384-29.07136-25.46688-29.07136-25.46688s-29.2864 9.49248-73.73824 30.64832c-5.40672 2.57024-10.32192 5.10976-14.7968 7.5776l-14.72512 2.18112c-2.33472-6.10304-6.42048-15.60576-10.36288-18.97472-0.6656-0.57344-1.3312-0.9728-1.97632-1.14688-6.47168-1.73056-38.85056-3.45088-54.38464 0-15.53408 3.45088-89.6512 101.35552-89.6512 101.35552l2.97984-1.42336-3.60448 3.03104c-7.81312-1.024-13.52704-1.60768-13.52704-1.60768s-14.67392 19.85536-34.52928 64.74752c-19.85536 44.89216-25.89696 87.1936-25.89696 87.1936s5.87776 10.38336 13.18912 21.6064H851.94752c-0.02048 0 19.23072-60.71296 14.19264-92.42624z" fill="#5B5B5B" p-id="3198"></path><path d="M543.87712 595.21024s-5.51936-15.94368-8.7552-20.21376c24.53504-9.91232 46.01856-1.5872 73.3696-7.13728s26.1632-18.23744 42.81344-30.52544 47.5648 5.15072 64.6144-4.096c17.0496-9.24672 26.1632-28.0064 11.49952-52.5824-9.95328-16.68096-19.23072-36.08576-24.1664-46.848a113.928192 113.928192 0 0 1-42.0352-29.26592s-29.3376-12.288-51.92704-8.72448-64.21504 8.72448-64.21504 8.72448-24.97536-42.41408-44.3904-44.3904c-19.42528-1.98656-28.83584-5.55008-36.21888 2.77504s-2.52928 32.1024-9.70752 30.52544c-7.18848-1.5872-37.57056-1.45408-35.9936 6.87104 1.5872 8.32512 3.4304 7.40352 4.22912 21.26848 0.78848 13.8752 7.81312 14.27456-0.0512 25.76384-7.87456 11.49952-11.43808 13.47584-16.19968 32.1024s-20.21376 21.4016-22.58944 39.63904c-0.27648 2.14016-0.68608 4.43392-1.15712 6.84032 31.58016 29.66528 92.27264 86.3744 101.98016 93.11232 4.56704 3.1744 11.9808 3.4304 20.15232 2.19136 4.08576-1.0752 7.69024-2.11968 10.57792-2.28352 12.40064-3.33824 24.54528-8.6528 29.78816-11.4688 10.2912-5.53984-1.61792-12.27776-1.61792-12.27776z" fill="#FF9640" p-id="3199"></path><path d="M769.81248 508.39552c-8.32512-22.20032-6.33856-45.18912-20.61312-56.6784-6.58432-5.30432-20.76672-10.17856-34.14016-13.89568-4.02432-1.11616-7.96672-2.4576-11.8272-4.00384 4.93568 10.752 14.21312 30.16704 24.1664 46.848 14.66368 24.576 5.55008 43.33568-11.49952 52.5824-17.0496 9.24672-47.96416-8.192-64.6144 4.096s-15.4624 24.97536-42.81344 30.52544-48.82432-2.77504-73.3696 7.13728c3.23584 4.28032 8.7552 20.21376 8.7552 20.21376s11.90912 6.73792 1.59744 12.288c-5.24288 2.82624-17.37728 8.13056-29.78816 11.4688 3.82976-0.21504 6.4 1.10592 7.18848 5.95968 1.98656 12.29824 12.34944 26.56256 15.49312 21.6064s17.01888-37.15072 17.01888-37.15072 10.30144 13.568 22.97856 20.70528 30.12608-36.864 49.152-23.78752 29.3376-45.58848 45.18912-40.82688 12.288 26.1632 28.53888 46.77632c16.25088 20.61312 22.9888-63.0272 38.05184-71.74144 15.08352-8.73472 38.8608-9.92256 30.53568-32.12288z" fill="#FF7E1D" p-id="3200"></path><path d="M695.737344 480.140288l37.156864 21.4528-17.2288 29.83936-37.156864-21.4528z" fill="#E01E22" p-id="3201"></path><path d="M645.961728 523.03872l-7.571456 25.95328-21.686272-6.32832 7.57248-25.951232zM714.155008 530.4064l-7.57248 25.952256-21.686272-6.327296 7.57248-25.952256zM416.49152 531.37408l7.56736-19.37408 21.68832 4.72064-7.56736 19.37408-21.68832-4.72064z" fill="#68E077" p-id="3202"></path><path d="M583.071744 469.107712l2.952192 16.397312-22.232064 4.002816-2.952192-16.397312zM369.03936 536.095744l2.952192 16.397312-22.232064 4.00384-2.952192-16.398336z" fill="#E01E22" p-id="3203"></path><path d="M500.315136 486.905856l-7.26016 14.99648-20.33152-9.842688 7.259136-14.995456z" fill="#68E077" p-id="3204"></path><path d="M605.620224 562.876416l-7.26016 14.99648-20.33152-9.842688 7.258112-14.995456z" fill="#E01E22" p-id="3205"></path><path d="M472.89344 556.50304l9.94304-6.37952 14.17216 11.89888-9.94304 6.37952-14.17216-11.89888z" fill="#68E077" p-id="3206"></path><path d="M461.09696 446.70976L480.54272 432.128l15.616 11.70432-19.44576 14.57152-15.616-11.69408zM481.57696 589.4656l-2.94912-13.33248 22.23104-3.25632 2.94912 13.33248-22.23104 3.25632z" fill="#E01E22" p-id="3207"></path><path d="M810.11712 581.1712s-36.46464 30.02368-71.35232 40.59136-154.368 10.57792-154.368 10.57792l-29.02016-22.94784-12.12416 27.29984-14.30528 3.6864-6.08256-15.45216-56.28928-8.71424s1.80224 10.62912-7.8336 20.46976c-9.64608 9.85088-39.7312 16.78336-39.7312 16.78336l-16.7424-11.48928-5.8368-17.07008H284.25216l33.82272-97.23904L342.8352 489.472l18.1248-11.96032-3.77856-64.53248-58.37824 96.19456-46.58176 131.23584-33.3824-27.38176-53.51424 14.91968 5.55008 18.57536 642.93888 1.00352 6.8608-26.81856a41.761792 41.761792 0 0 0-10.55744-39.53664z" fill="#3A3A3A" p-id="3208"></path><path d="M484.95616 619.0592c-9.70752-6.74816-70.4-63.44704-101.98016-93.11232-3.57376 18.16576-11.18208 43.54048 0.36864 67.67616 13.07648 27.35104 20.61312 53.9136 20.61312 53.9136l45.14816-0.99328s13.90592-8.12032 17.47968-30.32064c3.56352-22.20032 8.32512 8.32512 24.576 7.5264 4.99712-0.24576 9.728-1.39264 13.95712-2.49856-8.18176 1.23904-15.59552 0.98304-20.16256-2.19136z" fill="#FF9640" p-id="3209"></path><path d="M512 812.71808m-70.49216 0a70.49216 70.49216 0 1 0 140.98432 0 70.49216 70.49216 0 1 0-140.98432 0Z" fill="#FFD14F" p-id="3210"></path><path d="M512 812.71808m-34.9184 0a34.9184 34.9184 0 1 0 69.8368 0 34.9184 34.9184 0 1 0-69.8368 0Z" fill="#FFFFFF" p-id="3211"></path><path d="M865.55648 636.33408c5.5296-20.34688 14.60224-59.26912 10.7008-83.8144a10.1888 10.1888 0 0 0-2.87744-5.632c-16.80384-16.80384-76.67712-38.62528-91.04384-43.70432-5.3248-5.49888-10.78272-10.82368-16.27136-15.96416-0.57344-40.79616-19.89632-80.00512-37.79584-107.69408l149.25824-228.37248c5.79584-8.86784 0.74752-20.0192-13.17888-29.12256s-26.17344-9.24672-31.96928-0.38912L691.83488 336.6912c-5.20192-1.46432-20.1728-5.2736-41.48224-7.26016l93.70624-216.59648c2.10944-4.87424 1.28-10.41408-2.28352-15.19616-6.54336-8.81664-23.67488-16.2304-34.58048-14.96064-5.92896 0.68608-10.52672 3.87072-12.63616 8.74496L591.33952 330.0352c-2.14016 0.24576-4.3008 0.512-6.47168 0.8192-46.01856 6.37952-62.54592 13.89568-64.28672 14.73536-3.3792 1.62816-5.56032 4.97664-5.75488 8.69376-7.41376-6.38976-12.88192-10.60864-13.47584-11.0592-2.67264-2.048-6.18496-2.65216-9.37984-1.60768-1.21856 0.39936-30.43328 9.94304-74.98752 31.13984-6.63552 3.15392-12.58496 6.27712-17.93024 9.30816-3.79904-8.76544-7.35232-13.66016-10.27072-16.44544-0.31744-0.31744-0.64512-0.62464-1.01376-0.91136-2.53952-2.12992-4.51584-2.65216-5.62176-2.94912-8.47872-2.26304-42.65984-3.7888-59.24864-0.1024-4.59776 1.024-13.1584 2.92864-56.34048 55.47008-16.0768 19.5584-31.09888 39.03488-36.82304 46.51008-3.33824-0.38912-5.9392-0.6656-7.38304-0.80896a10.25024 10.25024 0 0 0-9.2672 4.096c-0.62464 0.84992-15.57504 21.28896-35.66592 66.69312-20.19328 45.66016-26.4192 88.10496-26.66496 89.88672-0.01024 0.07168-0.01024 0.14336-0.02048 0.21504-0.03072 0.28672-0.06144 0.57344-0.07168 0.86016 0 0.11264-0.01024 0.21504-0.01024 0.32768 0 0.34816 0.01024 0.69632 0.04096 1.03424 0 0.04096 0 0.07168 0.01024 0.11264 0.04096 0.39936 0.11264 0.78848 0.19456 1.1776 0.01024 0.0512 0.03072 0.11264 0.04096 0.16384 0.08192 0.31744 0.17408 0.62464 0.27648 0.93184a11.350016 11.350016 0 0 0 0.44032 1.05472l0.18432 0.36864c0.04096 0.08192 0.07168 0.16384 0.12288 0.23552 0.12288 0.2048 1.54624 2.72384 3.81952 6.53312-17.74592 1.93536-31.61088 17.00864-31.61088 35.26656 0 19.56864 15.9232 35.49184 35.49184 35.49184h3.84l41.1136 225.792c0.89088 4.864 5.13024 8.40704 10.07616 8.40704H809.2672c4.94592 0 9.18528-3.54304 10.07616-8.40704l41.1136-225.792h3.84c19.56864 0 35.49184-15.9232 35.49184-35.49184 0.01024-19.1488-15.23712-34.80576-34.23232-35.45088z m-9.10336-77.1072c1.9456 21.71904-6.66624 57.92768-12.14464 77.07648h-46.01856c10.00448-15.42144 23.76704-39.8848 30.34112-66.21184 0.6144-2.46784 0.29696-5.07904-0.91136-7.3216-4.87424-9.10336-10.74176-18.08384-17.26464-26.84928 19.00544 7.8848 37.51936 16.66048 45.99808 23.30624zM603.2384 636.29312c-7.424-5.67296-30.55616-24.54528-53.1456-55.62368 24.77056-51.968 102.54336-120.82176 124.3648-139.53024 22.55872 15.07328 100.29056 69.74464 133.29408 127.7952-8.42752 29.89056-27.12576 57.46688-34.31424 67.34848H603.2384z m-113.08032 0l0.17408-0.3584c21.87264-4.23936 38.07232-9.19552 49.38752-13.44512-1.7408 4.5568-3.95264 9.35936-6.73792 13.80352h-42.82368z m-198.58432 0c19.0464-65.97632 42.10688-113.50016 53.27872-134.51264 22.31296 24.20736 79.21664 85.07392 125.93152 127.54944l-3.31776 6.9632H291.57376z m-37.07904 0c-11.85792-12.87168-19.0976-23.18336-22.44608-28.33408 2.34496-7.58784 7.68-24.64768 15.42144-48.50688 6.99392-21.53472 21.52448-46.41792 30.0544-60.0576a5215.63136 5215.63136 0 0 1 30.89408 30.43328c-11.76576 26.44992-25.8048 62.50496-38.144 106.46528h-15.77984z m-74.8032 0a550.18496 550.18496 0 0 1-3.03104-4.87424l39.55712-10.25024c2.52928 3.76832 6.22592 8.93952 11.2128 15.12448h-47.73888zM486.4 615.84384c-45.81376-41.41056-102.51264-101.94944-125.5424-126.91456 13.18912-4.07552 34.16064-9.28768 56.4736-9.78944 13.83424 7.17824 42.27072 35.13344 69.5808 64.4608 0.43008 0.58368 0.93184 1.11616 1.4848 1.59744 14.08 15.16544 27.78112 30.59712 38.93248 43.63264a10.26048 10.26048 0 0 0 5.82656 3.38944c2.08896 2.88768 4.17792 5.66272 6.25664 8.3456-9.76896 4.17792-26.88 10.20928-53.01248 15.27808z m48.20992-49.89952c-6.61504-7.56736-16.31232-18.52416-27.42272-30.59712 6.31808-12.61568 21.93408-35.52256 41.6768-58.49088 28.61056-33.29024 48.45568-46.6944 56.76032-48.06656 15.96416-2.62144 34.27328 0.58368 47.26784 3.90144-28.53888 25.00608-91.82208 83.57888-118.28224 133.25312z m128.23552-154.4192c0.768 0.96256 1.52576 2.06848 2.26304 3.25632-6.94272-2.03776-16.2816-4.37248-26.624-5.86752 8.74496 0.24576 17.07008 1.03424 24.36096 2.6112z m-105.45152 26.28608c0.5632-3.90144 1.5872-12.4416 1.34144-21.44256 7.75168-1.40288 20.38784-3.50208 34.816-5.12-11.40736 4.8128-24.1152 14.96064-36.15744 26.56256z m-38.38976-25.22112c12.43136 14.6432 18.14528 32.95232 15.5648 49.48992-0.4096 0.47104-0.82944 0.95232-1.2288 1.42336-16.96768 19.74272-32.06144 40.58112-40.89856 56.07424-25.21088-26.49088-53.42208-53.6064-68.90496-60.14976-1.29024-0.54272-2.6624-0.8192-4.06528-0.80896-18.3808 0.14336-35.81952 3.1744-49.74592 6.57408-0.13312-2.68288-0.07168-5.03808 0.19456-6.52288 5.59104-4.36224 27.8016-17.47968 60.02688-33.7408 37.40672-18.88256 60.24192-27.72992 65.61792-27.96544 4.7616-0.18432 14.592 5.21216 23.43936 15.62624z m-168.04864 38.06208c-2.17088 6.10304-2.00704 14.11072-1.34144 20.35712-6.37952 2.14016-10.27072 3.74784-10.752 3.95264-0.03072 0.01024-0.0512 0.03072-0.08192 0.04096-0.44032 0.19456-0.8704 0.4096-1.29024 0.6656-0.0512 0.03072-0.11264 0.07168-0.16384 0.11264-0.3584 0.22528-0.69632 0.48128-1.024 0.74752-0.07168 0.06144-0.14336 0.11264-0.21504 0.17408-0.04096 0.04096-0.09216 0.07168-0.13312 0.1024-0.3072 0.27648-0.59392 0.58368-0.86016 0.89088-0.06144 0.06144-0.11264 0.13312-0.16384 0.2048-0.28672 0.34816-0.55296 0.7168-0.78848 1.08544-0.02048 0.03072-0.04096 0.0512-0.0512 0.07168-0.01024 0.02048-0.04096 0.06144-0.0512 0.09216a0.21504 0.21504 0 0 1-0.04096 0.06144c-1.01376 1.67936-7.39328 12.34944-16.39424 30.8736-2.2016-2.18112-4.66944-4.61824-7.34208-7.26016 11.12064-16.75264 27.392-42.04544 42.36288-65.47456l-1.66912 13.30176z m209.57184 174.45888c3.97312 4.16768 7.75168 7.8848 11.24352 11.18208h-15.64672c1.75104-3.84 3.20512-7.63904 4.4032-11.18208z m133.15072-195.71712c-1.87392-6.01088-5.9904-17.63328-12.14464-26.91072v-0.06144c0.16384-12.63616 6.0416-27.2384 10.99776-37.36576 14.91968 18.72896 43.28448 58.9312 51.0464 102.28736-19.6096-16.46592-37.8368-29.6448-49.89952-37.94944z m153.71264-293.26336c3.40992 1.23904 8.35584 4.47488 10.8544 7.09632L715.66336 361.37984c-3.10272-4.15744-5.94944-7.7824-8.42752-10.82368l140.15488-214.4256z m-135.5776-32.98304c3.56352 0.63488 9.00096 2.99008 11.90912 5.15072l-95.16032 219.93472c-4.5568-0.08192-9.28768-0.0512-14.1824 0.1024l97.4336-225.18784zM587.6736 351.13984c38.2464-5.30432 70.71744-0.768 87.57248 2.67264-4.73088 9.3696-10.56768 22.95808-13.02528 36.7616-36.61824-6.144-88.6784 2.2016-108.16512 5.80608-4.90496-7.69024-11.69408-15.616-18.7904-22.9376v-11.50976c7.8336-2.51904 24.1152-6.87104 52.40832-10.79296z m-161.8944 40.09984c32.67584-15.54432 57.22112-24.77056 67.3792-28.38528 5.07904 4.11648 13.99808 11.60192 22.86592 20.25472-7.38304-4.5056-14.80704-6.90176-21.3504-6.6048-14.06976 0.60416-54.56896 20.25472-77.4656 31.91808-15.4624 7.87456-30.30016 15.89248-41.78944 22.5792-0.512 0.29696-0.99328 0.58368-1.4848 0.8704l0.7168-5.71392c3.9424-4.68992 17.84832-19.07712 51.12832-34.9184z m-45.62944 2.82624c0.33792-0.53248 0.6656-1.05472 0.99328-1.57696l0.27648 0.67584c-0.43008 0.29696-0.86016 0.60416-1.26976 0.90112z m-99.28704 37.89824c34.94912-42.69056 44.88192-49.39776 46.8992-50.42176 9.33888-1.96608 25.4976-1.91488 36.87424-1.28-15.48288 24.46336-49.3056 77.7216-69.26336 107.95008-4.08576-3.9936-8.28416-8.0896-12.4416-12.12416-0.16384-0.16384-0.32768-0.31744-0.50176-0.4608-0.59392-0.512-1.23904-0.96256-1.92512-1.32096-0.0512-0.03072-0.11264-0.06144-0.16384-0.08192-5.75488-2.94912-16.51712-5.39648-27.31008-7.2704 6.98368-9.0112 17.11104-21.90336 27.83232-34.99008z m-84.69504 109.91616c13.7216-31.03744 24.95488-49.87904 30.208-58.04032 10.87488 1.26976 23.95136 3.19488 33.42336 5.26336-9.1136 14.592-24.17664 40.58112-31.7952 64.03072-7.44448 22.9376-12.68736 39.65952-15.19616 47.7696l-38.83008 10.05568c3.44064-15.90272 10.26048-42.12736 22.19008-69.07904z m604.57984 379.11552H223.25248l-38.912-213.71904h655.31904l-38.912 213.71904z m63.56992-234.19904H159.68256c-8.27392 0-15.01184-6.72768-15.01184-15.01184s6.72768-15.01184 15.01184-15.01184H864.31744c8.27392 0 15.01184 6.72768 15.01184 15.01184s-6.73792 15.01184-15.01184 15.01184z" p-id="3212"></path><path d="M734.95552 498.05312l-37.15072-21.4528c-0.94208-0.54272-2.05824-0.69632-3.11296-0.4096-1.04448 0.27648-1.9456 0.96256-2.48832 1.90464l-17.22368 29.83936c-1.1264 1.95584-0.4608 4.46464 1.49504 5.59104l13.14816 7.58784c-0.50176 0.49152-0.88064 1.08544-1.08544 1.77152l-7.56736 25.94816a4.096 4.096 0 0 0 2.78528 5.07904l21.68832 6.32832c0.37888 0.11264 0.75776 0.16384 1.14688 0.16384 0.68608 0 1.36192-0.17408 1.96608-0.50176 0.95232-0.52224 1.65888-1.40288 1.96608-2.44736l6.47168-22.1696a4.096 4.096 0 0 0 2.24256-1.81248l17.22368-29.83936c1.1264-1.93536 0.4608-4.44416-1.50528-5.5808z m-31.15008 53.1968l-13.824-4.03456 5.2736-18.08384 13.824 4.03456-5.2736 18.08384z m10.38336-25.40544l-30.0544-17.3568 13.12768-22.74304 30.0544 17.3568-13.12768 22.74304zM647.1168 519.07584l-21.68832-6.32832c-1.04448-0.3072-2.16064-0.18432-3.11296 0.33792-0.95232 0.52224-1.65888 1.40288-1.96608 2.44736l-7.56736 25.94816a4.096 4.096 0 0 0 2.78528 5.07904l21.68832 6.32832c0.37888 0.11264 0.75776 0.16384 1.14688 0.16384 0.68608 0 1.36192-0.17408 1.96608-0.50176 0.95232-0.52224 1.65888-1.40288 1.96608-2.44736l7.56736-25.94816a4.096 4.096 0 0 0-2.78528-5.07904z m-11.49952 24.80128l-13.824-4.03456 5.2736-18.08384 13.824 4.03456-5.2736 18.08384zM446.6176 512.7168l-21.68832-4.72064c-1.96608-0.43008-3.95264 0.63488-4.68992 2.5088L412.672 529.87904c-0.44032 1.11616-0.3584 2.36544 0.2048 3.42016a4.100096 4.100096 0 0 0 2.73408 2.06848l21.68832 4.72064a4.099072 4.099072 0 0 0 4.67968-2.5088l7.56736-19.37408c0.44032-1.11616 0.3584-2.36544-0.2048-3.42016a4.01408 4.01408 0 0 0-2.72384-2.06848z m-10.97728 18.62656L422.06208 528.384l4.54656-11.64288 13.57824 2.95936-4.54656 11.64288zM587.12064 468.3776a4.102144 4.102144 0 0 0-4.7616-3.30752L560.128 469.07392c-1.06496 0.19456-2.01728 0.79872-2.64192 1.6896a4.06528 4.06528 0 0 0-0.6656 3.06176l2.94912 16.39424a4.098048 4.098048 0 0 0 4.75136 3.30752l22.23104-4.00384c1.06496-0.19456 2.01728-0.79872 2.64192-1.6896 0.62464-0.89088 0.86016-1.9968 0.6656-3.06176l-2.93888-16.39424z m-20.00896 16.36352l-1.49504-8.32512 14.17216-2.54976 1.49504 8.32512-14.17216 2.54976zM373.0944 535.36768a4.102144 4.102144 0 0 0-4.7616-3.30752l-22.23104 4.00384c-1.06496 0.19456-2.01728 0.79872-2.64192 1.6896a4.06528 4.06528 0 0 0-0.6656 3.06176l2.94912 16.39424a4.098048 4.098048 0 0 0 4.75136 3.30752l22.23104-4.00384c1.06496-0.19456 2.01728-0.79872 2.64192-1.6896 0.62464-0.89088 0.86016-1.9968 0.6656-3.06176l-2.93888-16.39424z m-20.00896 16.36352l-1.49504-8.32512 14.17216-2.54976 1.49504 8.32512-14.17216 2.54976zM502.10816 483.23584l-20.33664-9.84064a4.092928 4.092928 0 0 0-5.46816 1.90464l-7.26016 14.99136a4.097024 4.097024 0 0 0 1.90464 5.4784l20.33664 9.84064c0.57344 0.27648 1.18784 0.4096 1.78176 0.4096 1.52576 0 2.97984-0.84992 3.6864-2.31424l7.26016-14.99136c0.47104-0.98304 0.54272-2.0992 0.18432-3.13344a4.10112 4.10112 0 0 0-2.08896-2.34496z m-10.94656 13.19936L478.208 490.16832l3.6864-7.61856 12.96384 6.27712-3.69664 7.60832zM607.41632 559.2064l-20.33664-9.84064c-0.9728-0.47104-2.0992-0.54272-3.13344-0.18432-1.024 0.3584-1.86368 1.10592-2.34496 2.08896l-7.26016 14.99136a4.092928 4.092928 0 0 0 1.90464 5.46816l20.33664 9.84064c0.57344 0.27648 1.18784 0.4096 1.78176 0.4096 1.52576 0 2.97984-0.84992 3.6864-2.31424l7.26016-14.99136c0.99328-2.02752 0.14336-4.47488-1.8944-5.46816zM596.46976 572.416l-12.96384-6.27712 3.6864-7.61856 12.96384 6.27712-3.6864 7.61856zM504.86272 571.99616a4.081664 4.081664 0 0 0-4.58752-3.16416l-8.13056 1.18784 7.08608-4.54656a4.093952 4.093952 0 0 0 0.41984-6.58432l-14.17216-11.89888a4.079616 4.079616 0 0 0-4.84352-0.3072l-9.94304 6.37952a4.093952 4.093952 0 0 0-0.41984 6.58432l13.76256 11.56096-5.9904 0.88064c-1.1264 0.16384-2.12992 0.78848-2.77504 1.73056a4.08576 4.08576 0 0 0-0.62464 3.20512l2.94912 13.33248a4.100096 4.100096 0 0 0 4.58752 3.1744l22.23104-3.25632c1.1264-0.16384 2.12992-0.78848 2.77504-1.73056 0.64512-0.93184 0.8704-2.0992 0.62464-3.20512l-2.94912-13.34272z m-22.34368-16.7936l7.59808 6.37952-2.72384 1.75104-7.59808-6.37952 2.72384-1.75104z m2.24256 29.65504l-1.1776-5.31456 14.11072-2.06848 1.1776 5.31456-14.11072 2.06848zM476.71296 462.51008c0.86016 0 1.73056-0.27648 2.4576-0.8192l19.44576-14.57152c1.03424-0.768 1.6384-1.98656 1.6384-3.2768s-0.60416-2.5088-1.6384-3.2768l-15.616-11.70432a4.08576 4.08576 0 0 0-4.9152 0l-19.44576 14.57152c-1.03424 0.768-1.6384 1.98656-1.6384 3.2768s0.60416 2.5088 1.6384 3.2768l15.616 11.70432c0.72704 0.54272 1.59744 0.8192 2.4576 0.8192z m3.82976-25.26208l8.78592 6.58432-12.61568 9.45152-8.78592-6.58432 12.61568-9.45152zM512 893.45024c44.51328 0 80.73216-36.21888 80.73216-80.73216s-36.21888-80.73216-80.73216-80.73216-80.73216 36.21888-80.73216 80.73216 36.21888 80.73216 80.73216 80.73216z m0-140.98432c33.21856 0 60.25216 27.02336 60.25216 60.25216s-27.02336 60.25216-60.25216 60.25216-60.25216-27.02336-60.25216-60.25216 27.0336-60.25216 60.25216-60.25216z" p-id="3213"></path><path d="M512 857.87648c24.90368 0 45.1584-20.26496 45.1584-45.1584s-20.25472-45.1584-45.1584-45.1584-45.1584 20.26496-45.1584 45.1584 20.25472 45.1584 45.1584 45.1584z m0-69.8368c13.60896 0 24.6784 11.06944 24.6784 24.6784s-11.06944 24.6784-24.6784 24.6784-24.6784-11.06944-24.6784-24.6784 11.06944-24.6784 24.6784-24.6784z" p-id="3214"></path></svg>