<?xml version="1.0" standalone="no"?><!DOCTYPE svg PUBLIC "-//W3C//DTD SVG 1.1//EN" "http://www.w3.org/Graphics/SVG/1.1/DTD/svg11.dtd"><svg t="1692877446561" class="icon" viewBox="0 0 1024 1024" version="1.1" xmlns="http://www.w3.org/2000/svg" p-id="2451" xmlns:xlink="http://www.w3.org/1999/xlink" width="200" height="200"><path d="M611.1232 196.4032l2.7648-12.3904c1.7408-7.9872-3.2768-15.7696-11.264-17.3056-19.968-3.9936-59.904-9.3184-113.8688-4.5056C409.4976 169.3696 348.16 198.656 348.16 198.656l35.2256 111.616 306.176 13.0048 7.4752-95.232c-37.888-22.1184-85.9136-31.744-85.9136-31.6416z" fill="#FFEEC7" p-id="2452"></path><path d="M619.2128 264.2944l-14.4384-28.3648-84.992 17.92-3.584-40.0384-92.16 5.4272 3.6864 40.3456 47.3088 124.7232 14.5408 2.56 74.752-63.2832 56.32-32.9728zM833.024 429.568H770.048l-36.864 295.7312c-6.3488 51.2-49.8688 89.6-101.376 89.6H230.2976c-5.2224 0-10.3424-0.4096-15.4624-1.2288 14.1312 40.1408 52.224 68.1984 96.3584 68.1984h401.6128c51.5072 0 95.0272-38.4 101.376-89.6L856.064 455.7824c1.7408-13.9264-9.1136-26.2144-23.04-26.2144z" fill="#FFA43E" p-id="2453"></path><path d="M631.808 814.8992c51.5072 0 95.0272-38.4 101.376-89.6l36.864-295.7312H191.0784c-14.0288 0-24.8832 12.288-23.1424 26.2144l41.8816 336.5888c0.9216 7.3728 2.6624 14.5408 5.0176 21.2992 5.0176 0.8192 10.1376 1.2288 15.4624 1.2288H631.808z" fill="#FFD14F" p-id="2454"></path><path d="M965.4272 281.2928c-15.5648-40.8576-82.944-56.0128-168.96-44.032l-37.376 6.656c-12.6976 2.7648-25.6 6.0416-38.7072 9.8304l-61.5424 21.4016c-30.5152 12.3904-58.6752 26.5216-83.6608 41.6768l-28.672 18.7392c-42.7008 30.208-72.704 62.976-84.6848 92.8768l276.2752-0.2048c46.6944-17.3056 92.2624-28.0576 133.0176-32.4608 37.1712-3.9936 70.144-25.9072 87.3472-58.9824l9.4208-46.1824c-0.512-3.1744-1.3312-6.2464-2.4576-9.3184z" fill="#3A3A3A" p-id="2455"></path><path d="M753.152 273.8176l11.3664-43.6224c2.6624-10.1376 16.0768-12.3904 21.8112-3.6864l24.8832 37.2736" fill="#3A3A3A" p-id="2456"></path><path d="M613.2736 293.4784l0.6144-19.456c0.3072-10.4448 12.9024-15.6672 20.48-8.4992l14.2336 13.5168M467.7632 413.5936l-4.7104-8.8064c-4.9152-9.216 3.3792-19.968 13.5168-17.5104l7.7824 1.8432" fill="#8B5526" p-id="2457"></path><path d="M555.52 370.176l-9.9328-43.9296c-2.3552-10.24 8.6016-18.432 17.7152-13.312l39.1168 21.7088" fill="#3A3A3A" p-id="2458"></path><path d="M880.64 233.3696l12.4928-7.0656c9.1136-5.2224 20.0704 2.8672 17.92 13.1072" fill="#8B5526" p-id="2459"></path><path d="M947.0976 287.6416l32.3584 17.408c7.4752 4.096 6.7584 15.0528-1.3312 18.0224l-34.2016 12.4928M826.5728 303.9232l27.3408 4.096c6.7584 1.024 10.5472 6.656 7.9872 11.8784l-9.4208 19.1488M746.496 336.7936l12.8 24.2688c3.1744 6.0416 1.2288 11.8784-3.9936 12.288l-19.2512 1.536M638.6688 399.9744l-12.0832-24.576c-2.9696-6.144-0.9216-11.8784 4.4032-12.288l19.456-1.1264" fill="#3A3A3A" p-id="2460"></path><path d="M822.5792 405.8112l7.8848 15.9744c4.608 9.4208 18.2272 8.9088 22.1184-0.8192l9.216-22.7328" fill="#8B5526" p-id="2461"></path><path d="M425.984 261.4272c-50.176-62.8736-124.928-86.7328-166.912-53.1456-11.5712 9.216-20.0704 22.4256-25.2928 37.9904l-1.536-1.2288c-46.8992-14.7456-91.5456-7.68-113.9712 22.2208-32.1536 43.008-12.4928 126.2592 51.9168 174.4896l279.7568-14.4384c31.744-37.0688 22.3232-107.9296-23.9616-165.888z" fill="#FF9A4E" p-id="2462"></path><path d="M242.688 357.2736c-7.3728-2.9696-14.6432-7.0656-21.6064-12.1856-30.1056-22.528-41.984-57.4464-26.5216-78.1312 7.68-10.3424 20.7872-15.1552 35.7376-14.5408" fill="#FFB852" p-id="2463"></path><path d="M671.954098 300.654068a25.8048 39.6288 26.199 1 0 34.991453-71.115156 25.8048 39.6288 26.199 1 0-34.991453 71.115156Z" fill="#EA5520" p-id="2464"></path><path d="M356.864 404.48c-3.8912-13.7216-24.1664-19.8656-45.1584-13.9264-21.0944 6.0416-34.9184 22.016-31.0272 35.6352l66.7648 2.3552c7.7824-7.168 11.776-15.9744 9.4208-24.064z" fill="#EA5520" p-id="2465"></path><path d="M493.901419 319.308827a46.1824 22.7328 17.218 1 0 13.458188-43.428078 46.1824 22.7328 17.218 1 0-13.458188 43.428078Z" fill="#FFD14F" p-id="2466"></path><path d="M517.709246 266.809339a22.7328 46.1824 70.51 1 0 87.072273-30.816808 22.7328 46.1824 70.51 1 0-87.072273 30.816808Z" fill="#FFD14F" p-id="2467"></path><path d="M423.883904 218.122332a22.7328 46.1824 87.32 1 0 92.263776-4.318772 22.7328 46.1824 87.32 1 0-92.263776 4.318772Z" fill="#FFD14F" p-id="2468"></path><path d="M512 655.9744m-84.8896 0a84.8896 84.8896 0 1 0 169.7792 0 84.8896 84.8896 0 1 0-169.7792 0Z" fill="#F06661" p-id="2469"></path><path d="M512 655.9744m-51.3024 0a51.3024 51.3024 0 1 0 102.6048 0 51.3024 51.3024 0 1 0-102.6048 0Z" fill="#FFFFFF" p-id="2470"></path><path d="M453.5296 323.1744s-15.4624 96.4608-80.896 102.8096c-65.4336 6.3488 80.896 1.2288 80.896 1.2288s19.0464-35.9424 15.0528-57.0368-15.0528-47.0016-15.0528-47.0016zM337.7152 340.7872l13.5168-14.336 52.6336 19.456s-11.0592 11.9808-33.0752 11.3664-33.0752-16.4864-33.0752-16.4864zM229.9904 353.792l-5.12 24.9856s22.4256 5.12 27.4432 5.5296-7.2704-19.0464-7.2704-19.0464l-15.0528-11.4688zM493.568 241.152l4.3008 31.6416h18.3296l-4.1984-40.8576zM606.9248 256.7168l-14.0288 9.9328 2.56 33.6896 11.4688-6.8608zM519.7824 326.4512l-7.7824 29.3888 22.016-9.9328 3.072-22.7328z" fill="#EF7700" p-id="2471"></path><path d="M967.9872 310.1696l-24.3712 7.0656c-10.4448 3.072-19.7632 8.8064-27.3408 16.4864-5.4272 5.4272-14.9504 12.0832-31.5392 17.6128-34.9184 11.6736-246.8864 75.264-246.8864 75.264L732.16 423.936s41.984-16.9984 76.4928-22.6304 87.9616-15.4624 101.4784-23.3472 39.2192-36.1472 39.2192-36.1472l0.4096-11.9808 30.9248-18.3296-12.6976-1.3312z" fill="#282828" p-id="2472"></path><path d="M712.9088 251.392s-6.3488 13.0048-23.552 20.3776c-17.2032 7.3728-28.8768 6.0416-28.8768 6.0416s-2.048 25.3952 22.016 18.944 30.4128-45.3632 30.4128-45.3632z" fill="#E01E22" p-id="2473"></path><path d="M338.917719 309.394133a67.9936 46.6944 51.378 1 0 72.962882-58.291387 67.9936 46.6944 51.378 1 0-72.962882 58.291387Z" fill="#FFB852" p-id="2474"></path><path d="M291.84 265.1136c-7.2704 1.9456-12.9024 7.68-14.9504 14.9504-1.9456-7.2704-7.68-12.9024-14.9504-14.9504 7.2704-1.9456 12.9024-7.68 14.9504-14.9504 2.048 7.3728 7.68 13.0048 14.9504 14.9504zM163.2256 317.3376c-7.2704 1.9456-12.9024 7.68-14.9504 14.9504-1.9456-7.2704-7.68-12.9024-14.9504-14.9504 7.2704-1.9456 12.9024-7.68 14.9504-14.9504 1.9456 7.3728 7.5776 13.0048 14.9504 14.9504zM926.208 293.7856c-7.2704 1.9456-13.0048 7.68-14.9504 14.9504-1.9456-7.2704-7.68-12.9024-14.9504-14.9504 7.2704-1.9456 13.0048-7.68 14.9504-14.9504 1.9456 7.2704 7.68 13.0048 14.9504 14.9504zM285.5936 586.3424c-19.6608 5.3248-35.0208 20.6848-40.3456 40.3456-5.3248-19.6608-20.6848-35.0208-40.3456-40.3456 19.6608-5.3248 35.0208-20.6848 40.3456-40.3456 5.2224 19.6608 20.5824 35.0208 40.3456 40.3456zM309.0432 629.9648c-9.8304 2.6624-17.5104 10.3424-20.1728 20.1728-2.6624-9.8304-10.3424-17.5104-20.1728-20.1728 9.8304-2.6624 17.5104-10.3424 20.1728-20.1728 2.6624 9.8304 10.3424 17.5104 20.1728 20.1728z" fill="#FFFFFF" p-id="2475"></path><path d="M984.2688 295.936l-6.2464-3.3792c0.2048-1.2288 0.3072-2.4576 0-3.6864-0.7168-3.7888-1.7408-7.5776-3.072-11.264-7.7824-20.3776-26.2144-35.7376-53.76-44.8512-1.024-5.5296-4.096-10.5472-8.8064-14.0288-7.168-5.3248-16.4864-5.8368-24.2688-1.4336l-11.8784 6.7584c-23.1424-1.9456-49.2544-1.1264-77.312 2.56l-3.8912-5.8368c-5.0176-7.4752-13.5168-11.1616-22.3232-9.6256-8.8064 1.536-15.6672 7.7824-17.92 16.4864l-1.9456 7.2704c-8.3968 1.8432-16.896 3.9936-25.3952 6.2464-2.3552-9.3184-7.7824-16.896-15.872-20.8896-3.6864-1.8432-7.7824-2.7648-11.9808-2.7648-28.0576-15.6672-60.1088-24.8832-76.1856-28.8768l0.512-2.4576c1.4336-6.5536 0.3072-13.312-3.3792-18.944s-9.3184-9.4208-15.872-10.752c-19.6608-3.8912-61.0304-9.728-116.736-4.7104-80.1792 7.168-141.5168 36.1472-144.0768 37.376-0.4096-0.1024-0.7168-0.3072-1.1264-0.4096-34.9184-11.0592-66.7648-7.0656-89.8048 11.264-10.4448 8.3968-18.8416 19.5584-24.7808 32.8704-49.9712-13.5168-94.6176-3.072-117.8624 28.0576-17.6128 23.552-22.016 57.856-11.8784 94.1056 9.6256 34.6112 30.8224 66.3552 60.1088 90.112-0.9216 3.7888-1.1264 7.7824-0.6144 11.6736L199.68 793.6c6.9632 56.2176 54.9888 98.5088 111.5136 98.5088h401.6128c56.6272 0 104.5504-42.3936 111.5136-98.5088l41.984-336.5888c1.1264-9.4208-1.7408-18.944-7.8848-26.112 1.536-1.8432 2.8672-3.8912 3.7888-6.2464l7.3728-18.432 2.7648-0.3072c41.0624-4.4032 76.6976-28.5696 95.3344-64.512 0.7168-1.3312 1.024-2.7648 1.1264-4.1984l12.8-4.7104c7.5776-2.7648 12.5952-9.4208 13.2096-17.5104 0.512-7.8848-3.4816-15.2576-10.5472-19.0464z m-293.4784-55.1936c4.5056-2.6624 8.8064-3.3792 11.6736-1.9456 6.5536 3.2768 8.3968 18.1248 0.9216 33.28-7.4752 15.1552-20.3776 22.7328-26.9312 19.5584-2.8672-1.4336-4.9152-5.2224-5.5296-10.4448-0.8192-6.8608 0.9216-15.1552 4.608-22.7328 3.7888-7.7824 9.3184-14.2336 15.2576-17.7152z m-16.7936-13.1072c-6.7584 5.5296-12.4928 13.0048-16.7936 21.6064-2.8672 5.8368-4.9152 11.9808-5.9392 18.0224l-9.8304-9.216c-4.7104-4.5056-10.8544-6.5536-16.9984-6.0416l-10.3424-20.2752c-0.2048-0.512-0.4096-1.024-0.7168-1.536 0.6144-0.9216 1.1264-2.048 1.3312-3.2768l4.096-18.2272c12.1856 3.072 33.8944 9.216 55.1936 18.944zM568.32 303.9232c-4.3008-2.3552-9.1136-3.2768-13.7216-2.6624-1.3312-4.608-3.8912-9.1136-7.68-13.4144 8.0896-0.512 16.7936-2.3552 25.3952-5.3248 13.1072-4.608 24.576-11.5712 32.4608-19.6608 0.512-0.512 0.9216-1.024 1.4336-1.536l0.7168 1.4336c-1.9456 3.2768-3.072 6.9632-3.2768 11.0592l-0.512 15.872c-10.4448 5.4272-20.5824 11.0592-30.4128 16.896l-4.4032-2.6624z m-85.8112 74.1376l-3.4816-0.8192c-0.1024 0-0.3072 0-0.4096-0.1024 0.4096-8.4992 0-17.3056-1.2288-26.5216-1.4336-10.1376-3.8912-20.48-7.3728-30.8224 6.2464 3.6864 13.312 6.8608 20.8896 9.216 9.6256 2.9696 18.8416 4.4032 27.2384 4.4032 6.2464 0 11.9808-0.8192 16.9984-2.3552-20.992 15.5648-38.7072 31.3344-52.6336 47.0016zM335.872 238.592c1.024-1.3312 2.2528-2.4576 3.4816-3.4816 4.4032-3.584 10.0352-5.2224 16.2816-5.2224 15.36 0 34.304 10.24 48.2304 27.648 19.5584 24.4736 23.04 55.5008 7.5776 67.8912-15.4624 12.288-44.9536 2.048-64.512-22.4256-10.0352-12.5952-16.1792-26.9312-17.1008-40.448-0.7168-9.728 1.3312-18.0224 5.9392-23.7568 0 0 0-0.1024 0.1024-0.2048z m193.1264 19.8656c3.584-5.4272 13.0048-13.5168 28.0576-18.8416 8.0896-2.8672 16.2816-4.4032 23.3472-4.4032 1.7408 0 3.3792 0.1024 5.0176 0.3072 6.3488 0.7168 9.3184 2.7648 9.728 3.8912 0.4096 1.1264-0.6144 4.608-5.0176 9.1136-5.632 5.7344-14.6432 11.1616-24.6784 14.6432-10.0352 3.584-20.3776 5.0176-28.3648 4.096-6.3488-0.7168-9.3184-2.7648-9.728-3.8912-0.3072-0.8192 0-2.048 0.8192-3.584 0.3072-0.4096 0.512-0.9216 0.8192-1.3312z m6.0416 49.7664c-1.1264 3.6864-16.6912 7.9872-38.0928 1.3312-10.1376-3.1744-19.3536-8.192-25.1904-13.7216-4.608-4.4032-5.7344-7.7824-5.4272-8.9088 0.7168-2.2528 6.9632-4.8128 16.6912-4.8128 5.9392 0 13.2096 0.9216 21.2992 3.4816 21.4016 6.656 31.8464 18.944 30.72 22.6304z m-29.0816-94.0032c0.2048 3.7888-13.0048 13.2096-35.328 14.2336s-36.352-6.9632-36.4544-10.8544c-0.2048-3.7888 13.0048-13.1072 35.328-14.2336 10.6496-0.512 20.992 1.024 28.3648 4.3008 5.7344 2.56 7.9872 5.4272 8.0896 6.5536z m-175.0016 101.5808c12.5952 15.7696 28.8768 27.3408 45.7728 32.4608 3.2768 1.024 6.5536 1.7408 9.728 2.2528-16.1792 3.8912-39.1168-6.5536-55.296-26.8288-9.4208-11.776-15.36-25.2928-16.896-37.6832 3.584 10.3424 9.3184 20.48 16.6912 29.7984zM437.9648 260.096v-1.4336l-1.3312-14.7456c8.3968 3.2768 18.6368 5.12 30.0032 5.12 1.6384 0 3.2768 0 5.0176-0.1024 14.4384-0.7168 27.136-4.096 36.6592-9.4208l1.1264 12.4928c-1.9456 4.4032-2.8672 8.8064-2.4576 13.0048-26.3168-7.168-49.664-2.56-57.9584 11.0592-3.4816-5.4272-7.168-10.8544-11.0592-15.9744z m186.1632 14.1312c0-0.3072 0-1.2288 1.2288-1.7408 1.1264-0.512 1.8432 0.2048 2.048 0.4096l3.3792 3.2768c-2.2528 1.024-4.5056 2.048-6.7584 3.1744l0.1024-5.12z m-134.4512-101.9904c53.1456-4.8128 92.2624 0.7168 110.8992 4.4032 1.536 0.3072 2.3552 1.2288 2.7648 1.8432 0.4096 0.512 0.9216 1.7408 0.6144 3.2768l-7.8848 35.1232c-2.56-0.7168-5.2224-1.3312-8.192-1.6384-11.1616-1.3312-24.576 0.512-37.6832 5.12-8.3968 2.9696-15.872 6.7584-22.1184 11.0592l-1.6384-18.5344v-0.2048c-0.7168-9.9328-7.8848-18.3296-20.3776-23.7568-10.3424-4.5056-23.6544-6.656-37.4784-5.9392-32.1536 1.536-55.7056 16.7936-54.784 35.6352 0 0.6144 0.1024 1.1264 0.1024 1.7408l1.2288 13.824c-14.0288-13.6192-29.2864-24.9856-45.2608-33.5872 23.2448-9.0112 67.7888-23.6544 119.808-28.3648z m-224.1536 44.032c17.5104-14.0288 42.7008-16.7936 70.8608-7.7824 2.3552 0.7168 4.608 1.536 6.9632 2.4576-6.144 1.536-11.776 4.3008-16.7936 8.2944-2.4576 1.9456-4.608 4.096-6.5536 6.5536-4.4032 5.632-10.6496 13.7216-15.5648 20.6848-9.4208-5.9392-21.8112-8.8064-23.6544-9.216-2.2528-0.512-4.4032 0.9216-4.9152 3.072s0.9216 4.4032 3.072 4.9152c3.9936 0.9216 13.9264 3.7888 20.8896 7.9872-1.3312 2.048-2.2528 3.8912-2.7648 5.12-8.9088 22.6304-1.9456 53.248 17.92 78.1312 12.5952 15.7696 28.8768 27.3408 45.6704 32.4608 6.4512 1.9456 12.6976 2.8672 18.6368 2.8672 8.2944 0 16.0768-1.9456 22.8352-5.632 2.1504 4.8128 5.5296 14.0288 5.5296 25.3952 0 2.2528 1.8432 4.096 4.096 4.096s4.096-1.8432 4.096-4.096c0-13.824-4.4032-24.8832-6.8608-30.1056 0.7168-0.6144 1.8432-1.6384 3.3792-2.9696 2.1504 3.072 4.5056 6.9632 5.3248 10.4448 0.4096 1.8432 2.1504 3.1744 3.9936 3.1744 0.3072 0 0.6144 0 0.9216-0.1024 2.1504-0.512 3.584-2.7648 3.072-4.9152-1.2288-5.3248-4.8128-10.752-7.4752-14.336 1.1264-1.2288 2.2528-2.56 3.3792-3.9936 4.7104-5.9392 9.3184-13.5168 10.752-15.872 5.5296-7.68 8.704-17.3056 9.1136-28.16 7.9872 16.1792 13.312 32.768 15.5648 48.8448 1.536 10.6496 1.6384 20.7872 0.4096 30.1056-0.512 0.512-1.024 1.1264-1.4336 1.6384-4.3008 5.632-5.7344 12.5952-3.9936 19.1488-2.3552 5.5296-5.2224 10.4448-8.8064 14.848h-77.312c2.1504-5.9392 2.4576-11.9808 0.8192-17.7152-5.5296-19.456-30.9248-28.5696-57.856-20.992-2.6624 0.7168-5.2224 1.6384-7.68 2.6624-47.4112-51.5072-44.7488-128.9216-44.7488-129.6384 0.1024-2.2528-1.6384-4.1984-3.8912-4.3008-2.2528-0.1024-4.1984 1.6384-4.3008 3.8912 0 0.9216-0.9216 22.3232 5.2224 50.688 5.12 23.6544 16.1792 56.2176 40.0384 83.0464-3.8912 2.2528-7.3728 4.8128-10.4448 7.5776-3.3792-3.4816-6.5536-7.168-9.5232-10.9568-22.3232-27.9552-34.9184-61.952-35.5328-95.744-0.512-31.0272 9.5232-57.2416 27.5456-71.5776zM202.752 272.9984c3.6864-4.9152 9.3184-8.192 16.384-9.6256-1.2288 7.9872-1.8432 16.2816-1.6384 24.9856 0.3072 15.7696 2.7648 31.4368 7.4752 46.6944-23.552-18.7392-33.6896-46.6944-22.2208-62.0544z m12.1856 80.1792c7.168 5.3248 14.848 9.728 22.8352 13.0048 1.3312 2.4576 2.6624 5.0176 4.096 7.4752-8.4992-2.6624-16.9984-7.0656-24.8832-12.9024-12.0832-9.0112-21.1968-20.6848-25.8048-32.1536 6.2464 9.1136 14.2336 17.5104 23.7568 24.576z m75.5712 66.1504c1.6384-6.7584 10.6496-15.1552 24.064-18.944 16.1792-4.608 30.5152-0.2048 32.5632 6.8608 0.9216 3.3792-0.9216 7.8848-4.9152 12.0832h-51.712z m-172.544-69.5296c-8.3968-30.1056-5.2224-57.9584 8.6016-76.3904 14.7456-19.7632 41.7792-28.4672 73.9328-24.7808-5.5296 3.072-10.3424 7.168-14.1312 12.1856-1.8432 2.4576-3.3792 5.12-4.7104 7.8848-2.8672 6.5536-6.8608 15.9744-9.8304 23.9616-10.5472-3.3792-23.2448-3.072-25.1904-2.9696-2.2528 0.1024-3.9936 1.9456-3.8912 4.1984 0.1024 2.2528 1.9456 3.9936 4.1984 3.9936 4.4032-0.2048 14.5408 0.2048 22.2208 2.4576-0.7168 2.3552-1.2288 4.3008-1.4336 5.7344-2.9696 24.1664 11.5712 52.0192 36.9664 71.0656 16.384 12.288 35.5328 19.3536 53.1456 19.8656 4.1984 5.2224 8.6016 10.24 13.4144 14.9504-0.8192 2.4576-1.3312 4.9152-1.536 7.3728H193.536c-51.0976-39.424-66.2528-106.7008-66.3552-107.4176-0.512-2.2528-2.6624-3.584-4.9152-3.1744-2.2528 0.512-3.584 2.6624-3.1744 4.9152 0.2048 0.8192 4.3008 19.8656 16.0768 44.1344 9.0112 18.5344 23.9616 43.008 46.8992 62.7712-4.8128 1.3312-9.216 3.6864-13.1072 7.0656-24.7808-20.8896-42.8032-48.128-50.9952-77.824z m727.9616 104.7552l-41.8816 336.5888c-5.7344 45.9776-44.9536 80.5888-91.2384 80.5888H311.1936c-46.2848 0-85.504-34.6112-91.2384-80.5888l-41.8816-336.5888c-0.512-3.7888 0.6144-7.3728 3.1744-10.24s6.0416-4.4032 9.8304-4.4032h641.9456c3.7888 0 7.2704 1.536 9.8304 4.4032 2.4576 2.7648 3.584 6.4512 3.072 10.24z m-29.9008-38.912l1.8432 3.6864h-16.9984c5.0176-1.3312 10.1376-2.56 15.1552-3.6864z m27.136 1.4336c-0.1024 0.3072-0.4096 1.1264-1.7408 1.2288-1.2288 0-1.6384-0.8192-1.7408-1.024l-2.8672-5.8368c3.1744-0.6144 6.2464-1.1264 9.4208-1.6384l-3.072 7.2704z m97.1776-91.2384c-5.3248 1.9456-8.0896 7.7824-6.144 13.1072 1.2288 3.2768 3.8912 5.5296 6.9632 6.3488-16.5888 22.4256-42.1888 37.1712-71.0656 40.3456-39.0144 4.1984-81.5104 14.1312-123.4944 28.7744-0.512-5.4272-5.0176-9.5232-10.5472-9.3184-5.632 0.2048-10.0352 4.9152-9.9328 10.5472l0.1024 3.6864H477.696c12.288-21.6064 34.0992-44.7488 63.2832-66.9696l4.5056 20.0704c1.024 4.7104 5.3248 7.9872 10.0352 7.9872 0.7168 0 1.536-0.1024 2.2528-0.2048 5.5296-1.2288 9.0112-6.7584 7.68-12.288l-9.9328-43.9296c-0.1024-0.3072-0.3072-1.2288 0.7168-1.9456s1.8432-0.3072 2.048-0.1024l39.1168 21.7088c4.9152 2.7648 11.1616 0.9216 13.9264-3.9936 2.7648-4.9152 0.9216-11.1616-3.9936-13.9264l-13.824-7.68c18.3296-10.3424 37.7856-19.968 58.1632-28.672 2.4576 9.4208 7.9872 16.7936 15.7696 20.5824 3.8912 1.9456 8.0896 2.8672 12.3904 2.8672 15.5648 0 32.256-12.0832 41.984-31.744 3.072-6.2464 5.12-12.5952 6.144-18.7392 6.3488-1.7408 12.6976-3.4816 18.944-5.0176l-3.584 13.824c-1.4336 5.4272 1.8432 11.0592 7.3728 12.4928 0.8192 0.2048 1.7408 0.3072 2.56 0.3072 4.5056 0 8.704-3.072 9.9328-7.68l11.3664-43.6224c0.1024-0.3072 0.3072-1.2288 1.536-1.4336 1.2288-0.2048 1.7408 0.512 1.9456 0.8192l24.8832 37.2736c3.1744 4.7104 9.5232 5.9392 14.2336 2.8672 4.7104-3.1744 5.9392-9.5232 2.8672-14.2336l-8.192-12.288c71.2704-7.68 124.928 5.0176 141.5168 33.4848l-1.1264-0.6144c-5.0176-2.6624-11.1616-0.8192-13.824 4.1984-2.6624 5.0176-0.8192 11.1616 4.1984 13.824l31.6416 16.9984-33.8944 12.288z m-69.4272-17.5104c2.6624 5.0176 2.6624 10.9568 0.2048 16.0768l-9.4208 19.1488c-1.7408 3.584-5.4272 5.7344-9.216 5.7344-1.536 0-3.072-0.3072-4.5056-1.024-5.12-2.4576-7.168-8.6016-4.7104-13.7216l8.192-16.5888-26.3168-3.8912c-5.632-0.8192-9.4208-6.0416-8.6016-11.6736 0.8192-5.632 6.0416-9.4208 11.6736-8.6016l27.3408 4.096c6.656 0.9216 12.3904 4.8128 15.36 10.4448z m-102.5024 47.9232c3.3792 6.4512 3.584 13.5168 0.6144 19.0464-2.6624 4.8128-7.2704 7.7824-12.8 8.192l-19.2512 1.536h-0.8192c-5.2224 0-9.728-4.096-10.24-9.4208-0.512-5.632 3.7888-10.5472 9.4208-11.0592l13.9264-1.1264-11.5712-22.016c-2.6624-5.0176-0.7168-11.1616 4.3008-13.824s11.1616-0.7168 13.824 4.3008l12.5952 24.3712z m-32.4608 28.8768z m-75.264-23.7568c0.3072 5.632-3.9936 10.4448-9.6256 10.8544l-14.2336 0.8192 10.9568 22.4256c2.4576 5.12 0.4096 11.264-4.7104 13.7216-1.4336 0.7168-2.9696 1.024-4.5056 1.024-3.7888 0-7.4752-2.1504-9.216-5.7344l-12.0832-24.576c-3.1744-6.5536-3.1744-13.6192 0-19.0464 2.7648-4.7104 7.4752-7.5776 13.1072-7.8848l19.456-1.1264c5.7344-0.4096 10.5472 3.8912 10.8544 9.5232z m-251.1872-44.1344z m-45.056-69.5296c0.7168-2.1504 2.9696-3.3792 5.12-2.6624 0.512 0.1024 11.8784 3.7888 23.04 14.0288 10.24 9.4208 22.3232 26.624 20.992 54.3744-0.1024 2.1504-1.9456 3.8912-4.096 3.8912h-0.2048c-2.2528-0.1024-3.9936-2.048-3.8912-4.3008 2.1504-46.7968-36.6592-59.5968-38.2976-60.2112-2.1504-0.7168-3.2768-2.9696-2.6624-5.12z m-94.208 279.4496H211.968c-2.048 0-3.7888-1.536-4.096-3.584l-7.168-52.736c-0.2048-1.1264 0.2048-2.3552 0.9216-3.2768 0.8192-0.9216 1.9456-1.4336 3.072-1.4336h32.256c2.1504 0 3.8912 1.6384 4.096 3.7888l2.2528 26.3168c0.2048 2.2528-1.4336 4.1984-3.6864 4.4032-2.2528 0.2048-4.1984-1.536-4.4032-3.7888l-1.9456-22.6304h-23.7568l6.0416 44.544h50.4832l-0.9216-48.5376c0-1.1264 0.4096-2.1504 1.1264-2.9696 0.8192-0.8192 1.8432-1.2288 2.9696-1.2288h64.4096c2.2528 0 4.096 1.8432 4.096 4.096v52.736c0 2.2528-1.8432 4.096-4.096 4.096h-32.256c-2.2528 0-4.096-1.8432-4.096-4.096v-26.3168c0-2.2528 1.8432-4.096 4.096-4.096s4.096 1.8432 4.096 4.096v22.2208h24.064v-44.544H273.408l0.9216 48.5376c0 1.1264-0.4096 2.1504-1.1264 2.9696s-1.8432 1.4336-2.9696 1.4336z m160.8704 0h-64.512c-2.2528 0-4.096-1.8432-4.096-4.096v-52.736c0-2.2528 1.8432-4.096 4.096-4.096h32.256c2.2528 0 4.096 1.8432 4.096 4.096V496.64c0 2.2528-1.8432 4.096-4.096 4.096s-4.096-1.8432-4.096-4.096v-22.2208H370.688v44.544h56.32v-48.64c0-2.2528 1.8432-4.096 4.096-4.096h64.4096c2.2528 0 4.096 1.8432 4.096 4.096v52.736c0 2.2528-1.8432 4.096-4.096 4.096h-32.256c-2.2528 0-4.096-1.8432-4.096-4.096v-26.3168c0-2.2528 1.8432-4.096 4.096-4.096s4.096 1.8432 4.096 4.096v22.2208h24.064v-44.544H435.2v48.64c0 2.2528-1.8432 4.096-4.096 4.096z m230.4-56.7296v52.736c0 2.2528-1.8432 4.096-4.096 4.096h-32.256c-2.2528 0-4.096-1.8432-4.096-4.096v-26.3168c0-2.2528 1.8432-4.096 4.096-4.096s4.096 1.8432 4.096 4.096v22.2208H653.312v-44.544h-56.32v48.64c0 2.2528-1.8432 4.096-4.096 4.096h-64.4096c-2.2528 0-4.096-1.8432-4.096-4.096v-52.736c0-2.2528 1.8432-4.096 4.096-4.096h32.256c2.2528 0 4.096 1.8432 4.096 4.096v26.3168c0 2.2528-1.8432 4.096-4.096 4.096s-4.096-1.8432-4.096-4.096v-22.2208h-24.064v44.544H588.8v-48.64c0-2.2528 1.8432-4.096 4.096-4.096h64.512c2.2528 0 4.096 1.7408 4.096 4.096z m160.768-2.7648c0.8192 0.8192 1.1264 2.048 1.024 3.1744l-5.9392 52.736c-0.2048 2.048-1.9456 3.584-4.096 3.584h-29.3888c-1.1264 0-2.2528-0.512-3.072-1.3312-0.8192-0.8192-1.1264-2.048-1.024-3.1744l3.072-26.3168c0.3072-2.2528 2.2528-3.8912 4.5056-3.584 2.2528 0.3072 3.8912 2.2528 3.584 4.5056l-2.56 21.8112h21.0944l5.0176-44.544h-56.0128l-3.2768 48.8448c-0.1024 2.1504-1.9456 3.7888-4.096 3.7888H690.176c-2.2528 0-4.096-1.8432-4.096-4.096v-52.736c0-2.2528 1.8432-4.096 4.096-4.096h32.256c2.2528 0 4.096 1.8432 4.096 4.096V496.64c0 2.2528-1.8432 4.096-4.096 4.096s-4.096-1.8432-4.096-4.096v-22.2208H694.272v44.544h53.248l3.2768-48.8448c0.1024-2.1504 1.9456-3.7888 4.096-3.7888H819.2c1.2288 0 2.2528 0.4096 3.072 1.3312zM361.1648 788.2752v52.736c0 2.2528-1.8432 4.096-4.096 4.096h-27.9552c-2.2528 0-4.096-1.8432-4.096-4.096v-26.3168c0-2.2528 1.8432-4.096 4.096-4.096s4.096 1.8432 4.096 4.096v22.2208h19.7632v-44.544h-47.7184l0.8192 48.5376c0 1.1264-0.4096 2.1504-1.2288 2.9696-0.8192 0.8192-1.8432 1.2288-2.8672 1.2288-30.9248 0-57.0368-23.1424-60.6208-53.8624l-0.3072-2.4576c-0.1024-1.1264 0.2048-2.3552 1.024-3.1744 0.8192-0.8192 1.8432-1.3312 3.072-1.3312h27.9552c2.1504 0 3.8912 1.6384 4.096 3.7888l1.9456 26.3168c0.2048 2.2528-1.536 4.1984-3.7888 4.4032-2.2528 0.2048-4.1984-1.536-4.4032-3.7888l-1.6384-22.528h-19.456c3.8912 24.1664 23.8592 42.3936 48.0256 44.3392l-0.8192-48.3328c0-1.1264 0.4096-2.1504 1.2288-2.9696 0.8192-0.8192 1.8432-1.2288 2.8672-1.2288h55.9104c2.2528-0.1024 4.096 1.7408 4.096 3.9936z m140.5952 0v52.736c0 2.2528-1.8432 4.096-4.096 4.096h-27.9552c-2.2528 0-4.096-1.8432-4.096-4.096v-26.3168c0-2.2528 1.8432-4.096 4.096-4.096s4.096 1.8432 4.096 4.096v22.2208H493.568v-44.544h-47.7184v48.64c0 2.2528-1.8432 4.096-4.096 4.096h-55.9104c-2.2528 0-4.096-1.8432-4.096-4.096v-52.736c0-2.2528 1.8432-4.096 4.096-4.096H413.696c2.2528 0 4.096 1.8432 4.096 4.096v26.3168c0 2.2528-1.8432 4.096-4.096 4.096s-4.096-1.8432-4.096-4.096v-22.2208h-19.7632v44.544h47.7184v-48.64c0-2.2528 1.8432-4.096 4.096-4.096H497.664c2.2528 0 4.096 1.8432 4.096 4.096z m140.5952 0v52.736c0 2.2528-1.8432 4.096-4.096 4.096H610.304c-2.2528 0-4.096-1.8432-4.096-4.096v-26.3168c0-2.2528 1.8432-4.096 4.096-4.096s4.096 1.8432 4.096 4.096v22.2208h19.7632v-44.544h-47.7184v48.64c0 2.2528-1.8432 4.096-4.096 4.096H526.336c-2.2528 0-4.096-1.8432-4.096-4.096v-52.736c0-2.2528 1.8432-4.096 4.096-4.096h27.9552c2.2528 0 4.096 1.8432 4.096 4.096v26.3168c0 2.2528-1.8432 4.096-4.096 4.096s-4.096-1.8432-4.096-4.096v-22.2208H530.432v44.544h47.7184v-48.64c0-2.2528 1.8432-4.096 4.096-4.096h55.9104c2.3552 0 4.1984 1.8432 4.1984 4.096z m139.4688-2.7648c0.8192 0.8192 1.1264 2.048 1.024 3.1744l-0.1024 0.8192c-2.7648 40.1408-31.6416 48.2304-32.8704 48.5376-1.3312 0.3072-2.6624 0-3.6864-0.8192s-1.536-2.1504-1.4336-3.4816l1.9456-19.456c0.2048-2.2528 2.2528-3.8912 4.5056-3.6864 2.2528 0.2048 3.8912 2.2528 3.6864 4.5056l-1.2288 12.4928c7.0656-4.096 18.2272-13.7216 20.6848-35.1232h-47.616l-2.7648 48.8448c-0.1024 2.1504-1.9456 3.8912-4.096 3.8912h-52.9408c-2.2528 0-4.096-1.8432-4.096-4.096v-52.736c0-2.2528 1.8432-4.096 4.096-4.096h27.9552c2.2528 0 4.096 1.8432 4.096 4.096v26.3168c0 2.2528-1.8432 4.096-4.096 4.096s-4.096-1.8432-4.096-4.096v-22.2208h-19.7632v44.544h44.9536l2.7648-48.8448c0.1024-2.1504 1.9456-3.8912 4.096-3.8912h55.9104c1.2288-0.1024 2.3552 0.4096 3.072 1.2288zM607.1296 655.9744c0-52.4288-42.7008-95.1296-95.1296-95.1296s-95.1296 42.7008-95.1296 95.1296 42.7008 95.1296 95.1296 95.1296 95.1296-42.7008 95.1296-95.1296zM512 730.624c-41.1648 0-74.6496-33.4848-74.6496-74.6496s33.4848-74.6496 74.6496-74.6496 74.6496 33.4848 74.6496 74.6496-33.4848 74.6496-74.6496 74.6496z m0-136.192c-33.8944 0-61.5424 27.648-61.5424 61.5424s27.648 61.5424 61.5424 61.5424 61.5424-27.648 61.5424-61.5424-27.648-61.5424-61.5424-61.5424z m0 102.6048c-22.6304 0-41.0624-18.432-41.0624-41.0624s18.432-41.0624 41.0624-41.0624 41.0624 18.432 41.0624 41.0624-18.432 41.0624-41.0624 41.0624z" p-id="2476"></path></svg>