<?xml version="1.0" standalone="no"?><!DOCTYPE svg PUBLIC "-//W3C//DTD SVG 1.1//EN" "http://www.w3.org/Graphics/SVG/1.1/DTD/svg11.dtd"><svg t="1692869725673" class="icon" viewBox="0 0 1024 1024" version="1.1" xmlns="http://www.w3.org/2000/svg" p-id="1726" xmlns:xlink="http://www.w3.org/1999/xlink" width="200" height="200"><path d="M936.84736 394.0352c-14.77632 269.76256-204.6976 492.86144-458.00448 557.54752 10.94656 0.80896 22.00576 1.2288 33.15712 1.2288 243.456 0 440.81152-197.35552 440.81152-440.81152 0-40.8576-5.57056-80.41472-15.9744-117.9648z" fill="#76CEFF" p-id="1727"></path><path d="M936.84736 394.0352C885.26848 207.86176 714.5984 71.17824 512 71.17824c-243.456 0-440.81152 197.35552-440.81152 440.81152S250.88 934.61504 478.84288 951.57248c253.29664-64.68608 443.21792-287.78496 458.00448-557.54752z" fill="#CAEAFF" p-id="1728"></path><path d="M543.8464 130.9184a385.59744 385.59744 0 0 0-31.8464-1.3312c-206.91968 0-375.41888 164.34176-382.17728 369.6128 62.8224-185.25184 219.84256-327.02464 414.02368-368.2816z" fill="#FFD14F" p-id="1729"></path><path d="M129.82272 499.2c-0.14336 4.2496-0.23552 8.50944-0.23552 12.8 0 211.2 171.2128 382.4128 382.4128 382.4128S894.4128 723.2 894.4128 512 740.1472 147.10784 543.8464 130.9184c-194.18112 41.2672-351.20128 183.02976-414.02368 368.2816z" fill="#FF9640" p-id="1730"></path><path d="M461.40416 767.92832s43.90912 12.45184 53.4528-21.13536l29.952 15.18592 32.45056 4.11648s63.50848 8.23296 89.6512-10.10688c26.13248-18.3296 52.14208-17.23392 52.14208-17.23392s6.41024 4.83328 13.53728-2.67264 9.64608-19.456 9.64608-19.456 11.54048-2.77504 15.34976-11.88864c3.80928-9.1136 4.68992-19.39456 4.68992-19.39456s13.4144-10.19904 15.22688-20.09088 0-16.13824 0-16.13824 35.31776-16.08704 46.1824-29.60384c10.87488-13.5168 21.15584-46.592 21.15584-46.592L616.96 412.34432l-422.7072 77.0048s-20.26496 78.4384-1.90464 126.78144 29.89056 44.48256 45.02528 63.04768c15.13472 18.56512 34.02752 43.39712 37.09952 64.63488s2.3552 43.78624 54.0672 47.60576 132.87424-23.49056 132.87424-23.49056z" fill="#E0CEC6" p-id="1731"></path><path d="M547.03104 720.76288c12.73856-0.14336 40.09984-2.39616 46.46912-18.62656 0 0 1.024-6.61504-3.08224-10.57792s0.96256-9.99424 3.19488-8.96c2.23232 1.024-1.14688-6.90176 2.9696-7.7824 4.11648-0.88064 7.05536 2.79552 7.05536 2.79552s-2.3552-6.02112 4.84352-6.02112 8.96 14.83776 8.96 14.83776 2.49856-5.43744 2.64192-11.89888-1.024-12.4928 2.05824-13.37344c3.08224-0.88064 8.96-1.024 8.96-1.024s3.3792-4.99712 7.49568-1.76128 6.02112 6.61504 6.02112 6.61504 7.63904-0.29696 8.96 4.25984-8.67328 18.51392-8.67328 18.51392 5.43744-2.05824 13.07648-7.49568c7.63904-5.43744 11.75552-9.84064 13.66016-8.37632s3.23584 5.14048 3.23584 5.14048 2.49856-3.67616 5.7344 0.14336c3.23584 3.81952 1.46432 6.46144 1.46432 6.46144s3.08224 1.91488 1.61792 4.99712-37.61152 16.01536-37.61152 16.01536 4.5568-0.73728 16.45568 0c11.89888 0.73728 14.10048 5.29408 12.63616 6.31808l-1.46432 1.024s-0.44032 7.05536-7.19872 5.7344c-1.46432 7.05536-10.28096-2.3552-22.03648-1.46432-8.38656 0.62464-13.07648 0.88064-13.07648 0.88064s3.3792 1.1776 12.4928 5.7344 12.19584 7.34208 8.51968 8.81664 0 9.69728-10.87488 7.34208c-10.87488-2.3552-11.89888 9.1136-18.0736 2.64192-6.17472-6.46144-8.07936-20.71552-24.832-21.01248-5.45792-0.09216-8.07936 7.49568-26.44992 10.72128-10.36288 1.82272-19.12832 2.47808-24.80128 2.70336-3.77856 0.1536-6.93248-2.8672-6.93248-6.656 0-3.64544 2.92864-6.61504 6.57408-6.656zM467.08736 835.11296l23.90016 18.2784c3.87072 2.95936 11.48928-0.50176 17.01888-7.7312s6.88128-15.49312 3.01056-18.45248l-23.90016-18.2784M499.08736 789.16608l8.79616 28.7744c1.42336 4.6592 9.63584 6.27712 18.33984 3.61472s14.61248-8.59136 13.18912-13.25056l-8.79616-28.7744M448.2048 798.88384l9.18528-28.65152c1.4848-4.63872-4.33152-10.6496-13.0048-13.42464-8.67328-2.77504-16.896-1.26976-18.39104 3.36896l-9.18528 28.65152M612.2496 833.2288l9.18528-28.65152c1.4848-4.63872-4.33152-10.6496-13.0048-13.42464-8.67328-2.77504-16.896-1.26976-18.39104 3.36896l-9.18528 28.65152M544.58368 753.74592l-4.08576 29.80864c-0.6656 4.82304 6.11328 9.73824 15.13472 10.96704 9.02144 1.23904 16.86528-1.67936 17.53088-6.5024l4.08576-29.80864" fill="#68E077" p-id="1732"></path><path d="M559.741122 764.766278a16.4864 8.81664 7.8 1 0 2.393111-17.470134 16.4864 8.81664 7.8 1 0-2.393111 17.470134Z" fill="#3EBA4A" p-id="1733"></path><path d="M534.62016 692.82816c-3.95264 0-7.56736-0.12288-10.60864-0.4096-2.2528-0.21504-3.90144-2.21184-3.69664-4.46464s2.22208-3.90144 4.46464-3.69664c18.71872 1.76128 62.89408-3.30752 63.3344-3.35872 2.24256-0.256 4.28032 1.35168 4.53632 3.59424s-1.35168 4.28032-3.59424 4.53632c-1.55648 0.18432-32.94208 3.77856-54.44608 3.77856z" p-id="1734"></path><path d="M703.87712 279.73632s14.8992 2.52928 20.66432-1.04448c5.77536-3.57376 8.09984-10.27072 5.19168-14.96064s-9.9328-5.60128-15.70816-2.02752c-5.77536 3.57376-10.14784 18.03264-10.14784 18.03264zM484.17792 600.04352s14.8992 2.52928 20.66432-1.04448 8.09984-10.27072 5.19168-14.96064-9.9328-5.60128-15.70816-2.02752c-5.77536 3.57376-10.14784 18.03264-10.14784 18.03264zM803.05152 331.93984s-10.71104 10.65984-11.15136 17.42848 3.66592 12.55424 9.1648 12.91264 10.33216-4.84352 10.77248-11.61216c0.44032-6.76864-8.78592-18.7392-8.78592-18.7392zM668.08832 339.54816s-10.71104 10.65984-11.15136 17.42848c-0.44032 6.76864 3.66592 12.55424 9.1648 12.91264s10.33216-4.84352 10.77248-11.61216c0.44032-6.76864-8.78592-18.7392-8.78592-18.7392zM716.05248 775.8848s-10.71104 10.65984-11.15136 17.42848c-0.44032 6.76864 3.66592 12.55424 9.1648 12.91264 5.50912 0.3584 10.33216-4.84352 10.77248-11.61216 0.44032-6.76864-8.78592-18.7392-8.78592-18.7392zM208.41472 688.2304s-10.71104 10.65984-11.15136 17.42848 3.66592 12.55424 9.1648 12.91264c5.50912 0.3584 10.33216-4.84352 10.77248-11.61216 0.44032-6.76864-8.78592-18.7392-8.78592-18.7392zM692.79744 232.73472s-10.71104 10.65984-11.15136 17.42848c-0.44032 6.76864 3.66592 12.55424 9.1648 12.91264 5.50912 0.3584 10.33216-4.84352 10.77248-11.61216 0.44032-6.76864-8.78592-18.7392-8.78592-18.7392z" fill="#FDF7E5" p-id="1735"></path><path d="M821.57568 540.63104c-2.74432 0-5.5296-0.90112-7.95648-2.63168-3.20512-2.27328-5.59104-5.76512-6.71744-9.8304-2.11968-7.63904 3.82976-20.52096 5.03808-23.01952a4.099072 4.099072 0 0 1 5.91872-1.64864c2.33472 1.51552 14.05952 9.48224 16.18944 17.12128 1.1264 4.06528 0.88064 8.2944-0.68608 11.88864-1.67936 3.84-4.77184 6.63552-8.4992 7.66976-1.0752 0.29696-2.17088 0.44032-3.2768 0.44032z m-4.20864-27.40224c-1.81248 4.72064-3.29728 10.16832-2.58048 12.7488 0.6144 2.22208 1.91488 4.17792 3.57376 5.34528 0.8192 0.58368 2.4576 1.4848 4.3008 0.9728 1.83296-0.512 2.78528-2.12992 3.18464-3.05152 0.80896-1.85344 0.9216-4.1984 0.29696-6.42048-0.7168-2.57024-4.79232-6.48192-8.78592-9.59488z m1.93536-4.5056z" p-id="1736"></path><path d="M327.30112 291.60448v36.90496c-0.0512 58.27584 48.5376 111.45216 121.7536 126.68928 86.77376 18.06336 175.27808-24.02304 197.67296-93.99296 3.00032-9.35936 4.6592-18.7392 5.07904-28.02688l0.11264-37.376-324.61824-4.1984z" fill="#E01E22" p-id="1737"></path><path d="M224.26624 518.2464c33.45408 47.7184 103.7824 63.30368 172.45184 33.67936 44.76928-19.31264 79.50336-53.8112 98.05824-92.6208l-291.72736 28.74368s15.01184 21.36064 21.20704 30.19776z" fill="#E01E22" p-id="1738"></path><path d="M530.16576 170.26048C443.392 152.19712 354.88768 194.28352 332.4928 264.25344l-0.09216 0.29696-1.85344-2.80576c-10.36288 2.4576-20.81792 5.90848-31.232 10.40384-81.38752 35.10272-129.61792 120.41216-107.7248 190.53568 21.89312 70.13376 105.61536 98.52928 187.00288 63.42656 34.5088-14.87872 63.04768-38.78912 82.82112-66.73408 0 0-110.15168-28.33408-110.15168-77.88544 51.03616 31.73376 93.19424 41.19552 97.80224 42.15808 86.77376 18.06336 175.27808-24.02304 197.67296-93.99296 22.39488-69.96992-29.78816-141.33248-116.57216-159.39584z" fill="#F06661" p-id="1739"></path><path d="M454.77888 245.08416l-28.47744 22.30272c-2.88768 2.26304-2.16064 6.144 1.4336 7.60832l15.13472 6.1952c3.072 1.25952 4.56704 4.07552 3.70688 6.76864 0 0.02048 0 0.03072-0.01024 0.0512-0.45056 1.41312-0.78848 2.82624-1.024 4.23936-0.4608 2.7648-3.19488 4.9152-6.64576 5.15072-23.63392 1.6384-52.5824 3.65568-77.9776 5.41696-0.72704-10.4448 0.50176-21.1456 3.91168-31.81568 15.09376-47.1552 67.98336-78.34624 125.76768-77.95712-0.99328 21.52448-2.03776 44.00128-2.87744 62.28992-0.1536 3.21536-3.05152 5.86752-6.9632 6.51264-0.04096 0-0.09216 0.01024-0.13312 0.02048-3.93216 0.65536-7.936-0.84992-9.64608-3.7888l-6.78912-11.60192c-1.72032-2.93888-6.5024-3.6352-9.39008-1.37216zM453.29408 348.17024l38.51264 7.75168c3.90144 0.78848 7.60832-1.76128 7.26016-4.98688l-1.23904-11.65312c-0.4096-3.81952 2.48832-7.3216 6.9632-8.63232 0.0512-0.01024 0.1024-0.03072 0.1536-0.04096 4.44416-1.31072 9.41056-0.16384 12.14464 2.94912 13.42464 15.26784 29.58336 33.6384 43.88864 49.92-29.40928 15.7696-66.69312 21.78048-103.58784 14.10048-33.59744-6.99392-60.672-24.05376-77.52704-46.14144 23.10144-10.72128 47.36-21.97504 67.08224-31.1296 3.42016-1.5872 7.69024-1.00352 10.40384 1.31072 0.03072 0.03072 0.06144 0.0512 0.09216 0.08192 2.72384 2.304 3.21536 5.7856 1.06496 8.45824l-8.72448 10.8544c-2.19136 2.72384-0.39936 6.36928 3.50208 7.15776zM280.6272 376.70912l-10.47552 34.62144c-1.06496 3.51232 1.76128 6.26688 5.53984 5.40672l15.94368-3.6352c3.23584-0.73728 6.08256 0.70656 6.92224 3.40992 0 0.02048 0 0.03072 0.01024 0.0512 0.44032 1.41312 0.9728 2.7648 1.59744 4.05504 1.20832 2.52928 0.2048 5.85728-2.47808 8.02816-18.40128 14.92992-40.92928 33.20832-60.69248 49.2544-6.59456-8.13056-11.74528-17.59232-15.08352-28.28288-14.75584-47.2576 10.5984-103.18848 58.10176-136.0896 11.56096 18.18624 23.63392 37.18144 33.44384 52.62336 1.73056 2.7136 0.8704 6.5536-1.95584 9.32864l-0.09216 0.09216c-2.83648 2.80576-6.98368 3.86048-10.06592 2.44736l-12.22656-5.59104c-3.09248-1.41312-7.41376 0.768-8.46848 4.27008zM431.95392 452.68992c-15.42144 19.73248-36.5056 36.5056-61.52192 47.29856-31.51872 13.58848-63.46752 15.19616-89.9584 6.8096l36.99712-64.03072c1.88416-3.26656 5.71392-5.24288 9.2672-4.90496 0.04096 0 0.08192 0 0.12288 0.01024 3.55328 0.32768 5.95968 2.88768 5.7344 6.30784l-0.90112 13.89568c-0.22528 3.4816 3.328 5.44768 6.98368 3.85024l35.97312-15.79008c3.64544-1.59744 5.21216-5.81632 3.072-8.26368l-7.71072-8.81664c-2.52928-2.89792-2.17088-7.424 0.73728-11.06944 0.03072-0.04096 0.06144-0.08192 0.1024-0.12288M531.67104 308.57216c0.36864-0.8704 0.69632-1.75104 0.99328-2.6624 0.7168-2.24256 3.29728-3.75808 6.16448-3.62496l17.95072 0.86016c4.01408 0.19456 7.07584-2.85696 5.9904-5.9904l-10.63936-30.84288c-1.0752-3.1232-5.65248-4.46464-8.97024-2.63168l-12.48256 6.912c-3.61472 1.9968-8.43776 1.76128-11.7248-0.57344l-0.11264-0.08192c-3.2768-2.31424-4.18816-6.12352-2.22208-9.25696 10.53696-16.81408 23.28576-37.15072 34.5088-55.06048 50.7904 22.21056 78.35648 70.15424 63.26272 117.2992-2.69312 8.40704-6.59456 16.30208-11.49952 23.61344l-68.63872-32.2048c-2.47808-1.15712-3.52256-3.57376-2.59072-5.75488z" fill="#E01E22" p-id="1740"></path><path d="M267.19232 424.21248s-13.312-7.13728-19.92704-5.59104-10.94656 7.15776-9.68704 12.53376c1.25952 5.376 7.63904 8.46848 14.24384 6.92224 6.6048-1.54624 15.37024-13.86496 15.37024-13.86496zM801.41312 441.67168c56.1664 40.192 71.77216 96.62464 34.85696 126.02368-36.92544 29.40928-112.384 20.65408-168.56064-19.53792-56.1664-40.192-71.77216-96.62464-34.85696-126.02368 36.92544-29.40928 112.384-20.65408 168.56064 19.53792z" fill="#FDF7E5" p-id="1741"></path><path d="M808.99072 409.67168c-56.1664-40.192-139.2128-16.93696-176.13824 12.47232L836.27008 567.7056c36.92544-29.40928 28.89728-117.83168-27.27936-158.03392z" fill="#FDF7E5" p-id="1742"></path><path d="M757.94432 446.50496c25.09824 17.96096 26.1632 47.88224 2.36544 66.83648-23.79776 18.95424-63.42656 19.75296-88.5248 1.792-25.09824-17.96096-26.1632-47.88224-2.36544-66.83648 23.79776-18.95424 63.42656-19.75296 88.5248-1.792z" fill="#FFD14F" p-id="1743"></path><path d="M467.098936 835.034355a8.81664 16.4864 37.41 1 0 20.031454-26.190579 8.81664 16.4864 37.41 1 0-20.031454 26.190579Z" fill="#3EBA4A" p-id="1744"></path><path d="M499.096691 789.152543a8.81664 16.4864 73 1 0 31.532045-9.640314 8.81664 16.4864 73 1 0-31.532045 9.640314Z" fill="#3EBA4A" p-id="1745"></path><path d="M429.81399 802.226613a16.4864 8.81664 17.77 1 0 5.38162-16.791984 16.4864 8.81664 17.77 1 0-5.38162 16.791984Z" fill="#3EBA4A" p-id="1746"></path><path d="M593.864577 836.561374a16.4864 8.81664 17.77 1 0 5.38162-16.791984 16.4864 8.81664 17.77 1 0-5.38162 16.791984Z" fill="#3EBA4A" p-id="1747"></path><path d="M677.24288 684.98432s-37.82656 15.04256-38.26688 15.48288 1.1776 3.3792-2.2016 5.59104-15.57504 7.65952-16.31232 8.89856 8.23296 12.11392 6.02112 13.28128-9.55392 1.32096-9.55392 1.32096 10.43456 13.57824 11.1616 12.81024 18.61632-1.52576 20.02944-3.64544 3.328-5.89824 3.328-7.31136-3.96288-9.34912-5.43744-10.0864-5.91872-5.7344 2.10944-4.25984c8.02816 1.46432 15.96416 3.52256 18.31936 1.32096s7.34208-5.7344 6.17472-8.51968-7.49568-4.4032-8.96-5.5808-13.21984-3.08224-0.44032-6.17472c12.77952-3.08224 19.0976-6.02112 19.69152-7.34208s-1.024-6.46144-1.024-6.46144l-4.63872 0.67584z" fill="#3EBA4A" p-id="1748"></path><path d="M520.28416 347.01312c-12.73856-0.14336-40.09984-2.39616-46.46912-18.62656 0 0-1.024-6.61504 3.08224-10.57792s-0.96256-9.99424-3.19488-8.96 1.14688-6.90176-2.9696-7.7824c-4.11648-0.88064-7.05536 2.79552-7.05536 2.79552s2.3552-6.02112-4.84352-6.02112-8.96 14.83776-8.96 14.83776-2.49856-5.43744-2.64192-11.89888 1.024-12.4928-2.05824-13.37344-8.96-1.024-8.96-1.024-3.3792-4.99712-7.49568-1.76128-6.02112 6.61504-6.02112 6.61504-7.63904-0.29696-8.96 4.25984 8.67328 18.51392 8.67328 18.51392-5.43744-2.05824-13.07648-7.49568-11.75552-9.84064-13.66016-8.37632-3.23584 5.14048-3.23584 5.14048-2.49856-3.67616-5.7344 0.14336-1.46432 6.46144-1.46432 6.46144-3.08224 1.91488-1.61792 4.99712 37.61152 16.01536 37.61152 16.01536-4.5568-0.73728-16.45568 0c-11.89888 0.73728-14.10048 5.29408-12.63616 6.31808l1.46432 1.024s0.44032 7.05536 7.19872 5.7344c1.46432 7.05536 10.28096-2.3552 22.03648-1.46432 8.38656 0.62464 13.07648 0.88064 13.07648 0.88064s-3.3792 1.1776-12.4928 5.7344c-9.1136 4.5568-12.19584 7.34208-8.51968 8.81664s0 9.69728 10.87488 7.34208c10.87488-2.3552 11.89888 9.1136 18.0736 2.64192 6.17472-6.46144 8.07936-20.71552 24.832-21.01248 5.45792-0.09216 8.07936 7.49568 26.44992 10.72128 10.36288 1.82272 19.12832 2.47808 24.80128 2.70336 3.77856 0.1536 6.93248-2.8672 6.93248-6.656 0-3.64544-2.92864-6.61504-6.57408-6.656z" fill="#68E077" p-id="1749"></path><path d="M390.07232 311.23456s37.82656 15.04256 38.26688 15.48288-1.1776 3.3792 2.2016 5.59104c3.3792 2.2016 15.57504 7.65952 16.31232 8.89856s-8.23296 12.11392-6.02112 13.28128 9.55392 1.32096 9.55392 1.32096-10.43456 13.57824-11.1616 12.81024-18.61632-1.52576-20.02944-3.64544-3.328-5.89824-3.328-7.31136 3.96288-9.34912 5.43744-10.0864 5.91872-5.7344-2.10944-4.25984-15.96416 3.52256-18.31936 1.32096-7.34208-5.7344-6.17472-8.51968 7.49568-4.4032 8.96-5.5808 13.21984-3.08224 0.44032-6.17472c-12.77952-3.08224-19.0976-6.02112-19.69152-7.34208s1.024-6.46144 1.024-6.46144l4.63872 0.67584z" fill="#3EBA4A" p-id="1750"></path><path d="M638.53568 528.09728s-26.73664-10.63936-64.64512-2.06848-51.12832 39.48544-51.12832 39.48544 35.97312-1.1264 58.10176-0.73728 29.17376 8.61184 50.04288-1.96608c20.85888-10.57792 21.02272-19.75296 21.02272-19.75296l-13.38368-14.96064zM630.89664 637.2352s-29.67552 1.96608-57.00608-0.37888-34.37568-8.41728-64.64512-1.56672c-30.26944 6.85056-93.47072 28.1088-93.47072 28.1088s2.37568 19.29216 45.8752 21.64736 66.70336 5.87776 66.70336 5.87776l44.96384-4.06528s21.4528-13.86496 34.37568-26.78784c12.93312-12.93312 23.21408-22.8352 23.21408-22.8352zM312.65792 694.05696s6.8096 12.60544 10.60864 28.24192c3.79904 15.63648-0.91136 22.69184 18.4832 25.91744 19.39456 3.23584 40.64256-2.4064 40.64256-2.4064s3.91168-10.84416 7.34208-15.08352 7.72096-8.42752 7.72096-8.42752-15.1552-10.21952-22.21056-17.27488-11.75552-22.6304-11.75552-22.6304l-50.8416 11.66336zM253.27616 554.50624s-5.85728 10.63936 3.84 33.26976 34.2528 34.90816 34.2528 34.90816-3.9424-13.25056-1.61792-28.34432c2.33472-15.08352 5.36576-26.1632 5.36576-26.1632l-41.84064-13.6704zM486.83008 486.43072l7.94624 21.64736s18.7392-33.14688 47.74912-39.31136c29.00992-6.17472 63.25248 7.168 63.25248 7.168s1.35168-13.9264 3.82976-28.90752 7.33184-27.33056 7.33184-27.33056-40.69376 32.32768-73.60512 38.78912-44.2368 5.40672-44.2368 5.40672l-12.25728 22.54848zM743.14752 585.97376l13.06624 20.0192 27.19744-12.8-40.26368-7.2192zM597.10464 722.29888l-18.0736 11.52 40.11008 5.7344s-5.14048-10.87488-10.43456-14.5408-11.61216-2.70336-11.61216-2.70336z" fill="#A07970" p-id="1751"></path><path d="M927.60064 336.42496c-22.72256-53.7088-55.2448-101.94944-96.6656-143.37024-41.4208-41.4208-89.66144-73.94304-143.37024-96.6656-55.61344-23.52128-114.688-35.45088-175.57504-35.45088S392.02816 72.86784 336.41472 96.38912c-53.7088 22.72256-101.94944 55.23456-143.37024 96.6656-41.4208 41.4208-73.94304 89.66144-96.6656 143.37024C72.8576 392.0384 60.928 451.11296 60.928 512s11.9296 119.9616 35.45088 175.57504c22.72256 53.7088 55.2448 101.94944 96.6656 143.37024 41.4208 41.4208 89.66144 73.94304 143.37024 96.6656 55.61344 23.52128 114.688 35.45088 175.57504 35.45088s119.9616-11.9296 175.57504-35.45088c53.7088-22.72256 101.94944-55.2448 143.37024-96.6656 41.4208-41.4208 73.94304-89.66144 96.6656-143.37024 23.52128-55.61344 35.45088-114.688 35.45088-175.57504s-11.9296-119.9616-35.45088-175.57504zM512 942.57152C274.57536 942.57152 81.42848 749.4144 81.42848 512S274.57536 81.42848 512 81.42848 942.57152 274.5856 942.57152 512 749.4144 942.57152 512 942.57152z m353.39264-403.712c2.65216-9.73824 3.90144-20.54144 3.60448-32.0512-1.0752-41.97376-21.79072-82.39104-54.04672-105.472-34.70336-24.832-74.97728-25.4976-102.64576-21.68832-31.49824 4.34176-62.86336 16.75264-84.36736 33.3312 12.3392-13.52704 21.67808-28.89728 27.50464-45.568 2.34496 3.74784 6.06208 6.28736 10.38336 6.56384 0.26624 0.02048 0.53248 0.03072 0.79872 0.03072 7.41376 0 13.76256-6.7584 14.32576-15.4624 0.52224-7.91552-7.936-19.3024-9.6256-21.504-0.7168-0.93184-1.80224-1.50528-2.97984-1.5872-1.1776-0.07168-2.32448 0.3584-3.15392 1.18784-0.62464 0.62464-2.03776 2.06848-3.69664 4.00384 0.24576-2.33472 0.44032-4.66944 0.54272-7.00416 0-0.14336 0.01024-0.28672 0.01024-0.44032l0.11264-37.376c0-0.4096-0.03072-0.8192-0.07168-1.21856-0.4096-20.11136-6.03136-40.06912-16.7424-58.42944-22.10816-37.90848-63.32416-65.5872-113.1008-75.95008-44.14464-9.18528-90.12224-3.9424-129.46432 14.76608-36.66944 17.43872-63.6416 44.67712-76.86144 77.34272-10.31168 2.58048-20.62336 6.07232-30.67904 10.40384-41.40032 17.85856-76.01152 48.57856-97.45408 86.49728-21.74976 38.48192-27.43296 79.85152-15.99488 116.50048 2.304 7.3728 5.2736 14.39744 8.86784 21.03296-3.97312 14.5408-10.38336 42.93632-10.37312 74.79296 0 26.70592 4.58752 50.20672 13.60896 69.8368 6.07232 13.19936 14.17216 24.6272 24.18688 34.24256 0.12288 0.1536 0.256 0.29696 0.39936 0.43008 0.03072 0.03072 0.26624 0.23552 0.67584 0.60416 0.38912 0.36864 0.78848 0.72704 1.18784 1.08544 8.99072 8.3456 47.5136 46.03904 48.9984 79.68768 0.65536 14.97088 6.3488 26.61376 16.92672 34.6112 11.5712 8.7552 28.8256 13.12768 52.11136 13.12768 20.39808 0 45.42464-3.35872 75.30496-10.06592l-0.77824 2.44736v0.01024c-1.1776 3.69664 0.1536 7.8848 3.65568 11.49952 2.9184 3.01056 7.17824 5.51936 12.00128 7.0656 3.2768 1.05472 6.6048 1.5872 9.68704 1.5872 1.45408 0 2.85696-0.12288 4.17792-0.3584 4.66944-0.84992 8.0384-3.25632 9.40032-6.61504 0.1024-0.19456 0.18432-0.4096 0.256-0.62464l8.99072-28.0576c2.34496 0.59392 9.51296 2.2016 18.1248 2.2016 1.8432 0 3.74784-0.07168 5.69344-0.24576 15.9744-1.42336 27.04384-8.89856 32.31744-21.67808 10.76224 4.99712 18.86208 10.20928 21.74976 12.14464l-2.52928 18.49344c-0.06144 0.45056-0.08192 0.89088-0.08192 1.34144l-1.8432-6.01088v-0.02048c-1.13664-3.69664-4.61824-6.37952-9.55392-7.35232-4.10624-0.80896-9.04192-0.44032-13.88544 1.04448s-9.14432 3.93216-12.09344 6.90176c-3.55328 3.57376-4.94592 7.75168-3.80928 11.45856l7.81312 25.55904-13.38368-10.24c-3.08224-2.3552-7.48544-2.51904-12.07296-0.43008-3.81952 1.73056-7.60832 4.90496-10.69056 8.92928s-5.14048 8.51968-5.81632 12.65664c-0.80896 4.97664 0.49152 9.17504 3.57376 11.53024l23.90016 18.2784c1.67936 1.29024 3.6864 1.90464 5.86752 1.90464 5.38624 0 11.81696-3.75808 16.896-10.40384 3.072-4.02432 5.14048-8.51968 5.81632-12.65664 0.54272-3.34848 0.11264-6.33856-1.15712-8.66304 0.70656 0.06144 1.42336 0.09216 2.16064 0.09216 2.99008 0 6.18496-0.49152 9.34912-1.46432 4.84352-1.4848 9.14432-3.93216 12.09344-6.90176 3.55328-3.57376 4.94592-7.75168 3.80928-11.45856l-5.41696-17.72544c0.96256 1.56672 2.34496 3.03104 4.12672 4.32128 3.38944 2.4576 8.02816 4.1984 13.04576 4.88448 1.56672 0.21504 3.1232 0.31744 4.64896 0.31744 3.34848 0 6.52288-0.512 9.22624-1.51552 4.72064-1.75104 7.7312-4.9664 8.26368-8.8064l2.47808-18.09408c5.16096 0.55296 16.30208 1.55648 29.39904 1.55648 20.36736 0 45.4656-2.42688 60.13952-12.71808 20.40832-14.31552 40.94976-16.24064 47.48288-16.47616 0.33792 0.41984 0.7168 0.79872 1.1264 1.14688 0.98304 0.8192 2.78528 1.8944 5.44768 1.8944 1.24928 0 2.68288-0.23552 4.32128-0.83968 7.69024-2.83648 16.4352-12.75904 17.67424-20.0192 0.17408-1.024 0.512-3.30752 0.73728-6.62528 8.72448-2.10944 20.96128-9.0112 20.46976-24.48384l-0.0512-1.88416c-0.04096-1.26976-0.07168-2.60096-0.13312-3.9936 8.93952-3.26656 21.21728-12.31872 17.73568-29.17376-0.5632-2.74432-1.23904-5.67296-2.048-8.76544 5.45792-1.86368 16.54784-6.36928 28.5696-15.39072 15.23712-11.44832 34.85696-32.6656 42.01472-68.72064 6.58432-7.92576 10.89536-17.05984 12.8-27.136zM504.79104 784.67072c1.9968-2.00704 5.16096-3.76832 8.68352-4.85376 2.37568-0.72704 4.79232-1.10592 6.9632-1.10592 1.05472 0 2.048 0.09216 2.94912 0.26624 2.03776 0.39936 3.14368 1.1776 3.31776 1.73056 0.17408 0.55296-0.31744 1.81248-1.78176 3.28704-1.9968 2.00704-5.16096 3.76832-8.68352 4.85376-3.52256 1.0752-7.13728 1.3824-9.91232 0.83968-2.03776-0.39936-3.14368-1.1776-3.31776-1.73056-0.17408-0.55296 0.31744-1.81248 1.78176-3.28704z m-35.67616 43.4688c0.4608-2.78528 1.9968-6.07232 4.23936-9.00096 2.24256-2.92864 4.99712-5.28384 7.5776-6.4512 1.16736-0.53248 2.11968-0.73728 2.79552-0.73728 0.41984 0 0.72704 0.08192 0.90112 0.21504 1.08544 0.82944 1.11616 6.31808-3.77856 12.70784-2.24256 2.92864-4.99712 5.2736-7.5776 6.4512-1.88416 0.86016-3.24608 0.8704-3.69664 0.52224-0.4608-0.34816-0.79872-1.65888-0.4608-3.70688z m39.8848 6.02112c-0.4608 2.78528-2.00704 6.07232-4.23936 9.00096-4.88448 6.38976-10.1888 7.80288-11.27424 6.97344l-15.616-11.95008c3.40992-1.81248 6.73792-4.73088 9.49248-8.32512 2.87744-3.75808 4.73088-7.69024 5.56032-11.34592l15.616 11.93984c0.4608 0.34816 0.79872 1.65888 0.4608 3.70688z m24.7296-21.39136c-1.9968 2.00704-5.16096 3.76832-8.68352 4.85376-3.52256 1.0752-7.13728 1.3824-9.91232 0.83968-2.03776-0.39936-3.14368-1.1776-3.31776-1.73056l-5.75488-18.82112c1.04448 0.14336 2.10944 0.23552 3.2256 0.23552 2.99008 0 6.18496-0.49152 9.34912-1.46432 4.34176-1.3312 8.22272-3.4304 11.12064-5.9904l5.74464 18.80064c0.17408 0.55296-0.31744 1.81248-1.78176 3.28704z m227.77856-206.53056c6.84032-0.99328 16.77312-3.72736 24.59648-11.17184 8.27392-0.49152 16.13824-1.66912 23.48032-3.54304-14.25408 24.4224-36.44416 26.79808-40.2432 27.02336-2.26304-4.02432-4.85376-8.1408-7.82336-12.30848z m-10.4448-13.0048a171.820032 171.820032 0 0 0 19.88608 1.95584c-6.2464 2.63168-12.36992 3.23584-15.3088 3.36896-1.45408-1.77152-2.9696-3.54304-4.57728-5.3248z m9.33888-19.38432c-30.14656-3.49184-60.93824-15.57504-86.72256-34.02752-31.0272-22.20032-49.93024-50.36032-50.57536-75.3152-0.3584-13.99808 5.0688-25.55904 16.13824-34.37568 12.40064-9.8816 31.1296-15.1552 52.82816-15.1552 5.38624 0 10.96704 0.32768 16.67072 0.98304 30.14656 3.49184 60.93824 15.57504 86.72256 34.02752 31.0272 22.20032 49.93024 50.36032 50.57536 75.3152 0.07168 2.95936-0.12288 5.80608-0.5632 8.5504-3.10272 11.10016-8.42752 20.13184-15.57504 25.82528-15.48288 12.32896-40.81664 17.48992-69.49888 14.16192zM328.50944 443.904l-0.90112 13.89568c-0.18432 2.89792 1.08544 5.59104 3.38944 7.20896 2.60096 1.82272 6.08256 2.06848 9.3184 0.64512l35.97312-15.79008c3.20512-1.41312 5.55008-4.17792 6.27712-7.39328 0.23552-1.0752 0.26624-2.1504 0.12288-3.1744 11.83744 7.6288 24.9856 14.03904 39.19872 18.98496-14.61248 16.15872-32.768 29.184-53.07392 37.9392-27.71968 11.95008-56.6784 14.76608-82.176 8.0896l34.37568-59.4944c1.05472-1.83296 3.35872-3.072 5.33504-2.87744l0.37888-4.07552-0.24576 4.08576c0.79872 0.07168 2.11968 0.41984 2.01728 1.96608z m28.0064-57.11872c23.05024 22.87616 54.528 39.39328 90.46016 46.86848 14.20288 2.95936 28.60032 4.42368 42.9056 4.42368 30.14656 0 59.87328-6.49216 86.55872-19.17952 17.78688-8.45824 33.28-19.22048 46.03904-31.78496-25.96864 37.10976-74.91584 60.68224-128.13312 61.952h-0.11264c-14.1824 0.32768-28.66176-0.91136-43.08992-3.91168-41.34912-8.6016-74.97728-30.208-94.63808-58.368zM514.7648 584.5504c-0.3072-0.94208-0.7168-1.8432-1.2288-2.68288-4.08576-6.6048-13.66016-8.11008-21.3504-3.35872-3.47136 2.1504-6.30784 6.7584-8.35584 11.10016-37.86752 7.9872-70.20544 21.48352-98.74432 33.39264-41.0624 17.13152-73.49248 30.6688-103.2704 20.48-26.13248-8.94976-41.78944-30.72-46.53056-64.7168-1.78176-12.75904-1.61792-24.95488-0.9728-34.0992 4.75136 4.18816 9.82016 7.9872 15.17568 11.38688-0.4608 6.16448-0.512 14.68416 1.1776 23.88992 0.59392 3.21536 1.37216 6.28736 2.304 9.24672 0.06144 0.39936 0.2048 0.77824 0.38912 1.14688 6.20544 18.47296 19.2 31.70304 38.11328 38.53312 7.75168 2.79552 15.11424 4.02432 22.3744 4.02432 19.456 0 38.1952-8.81664 61.67552-19.85536 28.11904-13.23008 63.11936-29.68576 114.76992-38.05184 44.83072-7.26016 76.8-6.36928 100.13696-5.72416 5.82656 0.16384 11.19232 0.3072 16.1792 0.3072h0.2048c21.42208 0 35.69664-2.77504 47.12448-19.02592 2.53952 2.01728 5.14048 3.9936 7.8336 5.91872 2.37568 1.69984 4.80256 3.328 7.24992 4.92544-31.42656 26.23488-49.664 24.86272-80.66048 22.49728-18.52416-1.41312-41.43104-3.16416-73.58464 0.65536z m-7.92576 6.03136c-0.6656 1.91488-2.17088 3.70688-4.13696 4.92544-2.27328 1.40288-7.92576 1.50528-12.9536 1.08544 1.86368-4.6592 4.5056-9.728 6.74816-11.1104 3.77856-2.33472 8.38656-2.01728 10.06592 0.69632 1.00352 1.61792 0.60416 3.45088 0.26624 4.4032z m1.25952-121.76384l-5.7856 21.62688a96.6656 96.6656 0 0 0-6.57408 8.74496c-1.65888-6.07232-3.49184-10.65984-4.49536-12.97408 3.6352-5.4784 6.9632-11.12064 9.97376-16.896 2.304-0.12288 4.58752-0.29696 6.88128-0.50176z m94.53568-3.77856c0.04096 1.65888 0.1536 3.33824 0.31744 5.0176-5.3248-2.38592-10.56768-4.32128-15.73888-5.80608l5.36576-22.2208c0.02048-0.1024 0.02048-0.2048 0.04096-0.29696 8.27392-5.00736 15.9232-10.56768 22.8864-16.61952-8.83712 11.23328-13.2608 24.80128-12.87168 39.92576z m-23.37792-2.7136c-13.68064-2.70336-26.73664-2.08896-39.04512 1.87392-10.56768 3.39968-19.3024 8.84736-26.32704 14.71488l2.94912-11.03872c20.76672-2.7136 40.93952-8.54016 59.61728-17.42848 2.19136-1.04448 4.34176-2.11968 6.46144-3.23584l-3.64544 15.11424z m-95.16032 105.15456c0.16384 0.06144 0.32768 0.12288 0.49152 0.16384-0.24576 0.04096-0.50176 0.08192-0.74752 0.13312 0.08192-0.1024 0.16384-0.19456 0.256-0.29696z m1.4848-73.18528c5.2224 14.76608 14.44864 52.64384-16.90624 76.47232-39.63904 8.63232-68.64896 21.72928-92.63104 32.98304a97.130496 97.130496 0 0 1 8.84736-23.08096c9.95328-0.37888 46.66368-3.328 69.0176-26.10176 11.08992-11.29472 16.88576-25.72288 17.27488-42.92608 5.14048-5.5296 9.95328-11.32544 14.39744-17.33632z m-37.49888 54.49728c-17.07008 17.41824-44.65664 22.04672-57.98912 23.28576 2.64192-3.8912 5.18144-7.00416 7.2704-9.32864 1.13664-0.47104 2.28352-0.93184 3.42016-1.42336 22.79424-9.8304 43.65312-23.72608 61.3376-40.51968-1.8432 10.9568-6.52288 20.34688-14.0288 27.99616z m-81.32608 59.31008c-6.77888 3.1744-13.06624 6.05184-19.02592 8.4992 1.30048-16.35328 7.168-32.79872 11.19232-42.43456 7.936-1.47456 15.93344-3.51232 23.9104-6.0928-6.31808 9.43104-12.98432 22.80448-16.0768 40.02816z m-27.43296 11.68384c-6.83008 2.37568-13.32224 4.00384-19.74272 4.62848-1.792-15.7184 4.18816-35.9424 8.192-47.23712 7.12704-0.0512 14.36672-0.54272 21.67808-1.51552-4.34176 11.19232-9.50272 27.71968-10.11712 44.11392z m-27.96544 4.84352c-5.25312-0.23552-10.55744-1.2288-16.05632-3.10272-0.02048-0.06144-0.02048-0.12288-0.04096-0.18432-4.80256-14.00832-0.3584-35.97312 2.37568-46.7456a157.19424 157.19424 0 0 0 21.49376 2.42688c-4.11648 12.11392-9.37984 31.44704-7.77216 47.60576z m-25.4976-7.20896c-11.32544-6.07232-19.3536-15.2064-23.94112-27.32032 3.3792-1.792 11.0592-4.63872 24.84224-3.72736-1.61792 9.63584-2.62144 21.12512-0.90112 31.04768z m2.46784-39.14752c-14.60224-1.13664-23.72608 1.42336-28.84608 3.84-0.26624-1.11616-0.512-2.2528-0.73728-3.40992-1.2288-6.59456-1.46432-12.88192-1.30048-18.0224 9.97376 5.34528 20.76672 9.43104 32.1536 12.19584-0.39936 1.59744-0.83968 3.40992-1.26976 5.39648z m280.48384-47.4624c4.03456 5.90848 14.4896 20.5824 25.00608 30.3616l-3.16416-0.09216c-6.59456-0.18432-13.8752-0.38912-21.92384-0.41984l-19.97824-19.23072a73.714688 73.714688 0 0 1 20.06016-10.61888z m35.10272-4.096c2.74432 5.82656 11.1616 21.1456 27.60704 31.71328-6.36928 2.32448-14.03904 2.9696-23.8592 2.97984-9.5232-4.85376-23.1936-22.48704-30.53568-32.96256 8.3456-1.87392 17.28512-2.44736 26.7776-1.73056z m-61.47072 20.00896l14.56128 14.00832c-8.25344 0.14336-17.23392 0.52224-27.00288 1.25952 2.10944-3.52256 6.12352-9.34912 12.45184-15.27808z m97.42336 7.1168c-13.52704-7.30112-21.85216-18.78016-26.03008-25.94816 6.73792 1.09568 13.73184 2.79552 20.98176 5.08928 3.95264 4.21888 8.23296 8.33536 12.81024 12.31872-2.42688 3.55328-4.9664 6.3488-7.76192 8.52992z m-32.17408-34.9184c-0.36864-0.09216-0.73728-0.12288-1.1264-0.11264-14.3872-1.28-26.55232 0.22528-36.66944 3.16416-0.3584 0.0512-0.7168 0.16384-1.06496 0.32768-8.68352 2.64192-15.8208 6.31808-21.51424 10.12736-18.80064 12.56448-26.3168 28.89728-26.624 29.58336-0.12288 0.26624-0.2048 0.54272-0.26624 0.8192-9.71776 0.94208-20.1728 2.26304-31.4368 4.08576l-1.06496 0.18432c0.59392-0.39936 1.10592-0.96256 1.4336-1.65888 0.256-0.53248 25.6512-53.78048 70.05184-65.67936 18.03264-4.83328 36.92544-2.22208 56.32 7.75168 2.80576 4.85376 6.0416 9.66656 9.66656 14.3872-6.23616-1.46432-12.12416-2.42688-17.69472-2.9696z m-50.46272-27.06432c-26.29632 7.05536-46.01856 26.65472-58.6752 43.35616 0.77824-5.44768 0.96256-11.18208 0.512-17.16224-0.18432-2.48832-0.47104-4.90496-0.82944-7.2192 0.256-0.27648 0.47104-0.59392 0.65536-0.94208 0.14336-0.28672 14.47936-28.49792 43.9296-37.92896 18.60608-5.94944 39.3728-3.2768 61.7472 7.92576 1.20832 5.29408 2.97984 10.60864 5.25312 15.91296-17.92-7.18848-35.5328-8.51968-52.5824-3.9424z m-89.74336-23.43936c3.4304 0.36864 6.85056 0.64512 10.28096 0.83968-19.2512 31.6928-49.52064 57.9072-85.08416 73.24672-38.76864 16.72192-78.67392 18.37056-110.94016 6.63552 8.704 1.4848 17.64352 2.24256 26.73664 2.24256 24.30976 0 49.664-5.30432 74.17856-15.88224 34.03776-14.68416 63.27296-37.84704 84.81792-67.08224zM213.6064 520.83712c0.84992 1.20832 1.62816 2.31424 2.29376 3.2768 3.29728 4.70016 6.912 9.10336 10.79296 13.19936-1.03424 9.70752-1.90464 25.41568 0.44032 42.37312 5.08928 36.90496 23.08096 61.6448 52.02944 71.54688 8.11008 2.77504 16.2816 4.00384 24.6272 4.00384 25.344 0 52.36736-11.27424 84.44928-24.66816 26.86976-11.2128 57.15968-23.83872 92.0576-31.77472 0 0.02048-0.01024 0.04096-0.02048 0.06144-0.33792 1.1264-0.18432 2.34496 0.44032 3.34848s1.6384 1.6896 2.79552 1.88416c1.44384 0.24576 6.01088 0.94208 11.008 0.94208 4.48512 0 9.30816-0.5632 12.50304-2.53952 3.59424-2.22208 6.27712-5.48864 7.56736-9.20576 0.0512-0.1536 0.08192-0.29696 0.13312-0.45056 31.8976-3.88096 54.67136-2.1504 73.02144-0.75776 8.07936 0.6144 15.50336 1.18784 22.66112 1.18784 20.87936 0 39.5776-4.83328 65.91488-27.2896 4.63872 2.7648 9.3696 5.376 14.20288 7.7824-40.0896 41.00096-76.92288 38.33856-119.16288 35.2768-19.4048-1.40288-39.46496-2.85696-61.51168-0.38912-28.75392 3.21536-60.86656 15.26784-94.8736 28.03712-52.5312 19.712-106.8544 40.09984-147.54816 25.64096-33.31072-11.83744-51.97824-42.3424-55.5008-90.6752-1.40288-19.21024 0-37.57056 1.67936-50.7904z m589.45536-102.85056c15.95392 11.4176 27.04384 26.46016 34.28352 42.11712-8.41728-9.51296-18.46272-18.55488-29.94176-26.76736-23.20384-16.60928-50.13504-28.55936-77.40416-34.54976 25.77408-1.13664 51.89632 4.0448 73.0624 19.2z m-135.3728-71.936c2.73408 4.2496 5.30432 9.28768 5.13024 11.95008-0.28672 4.43392-3.2256 7.97696-6.42048 7.79264-3.18464-0.2048-5.64224-4.12672-5.34528-8.56064 0.17408-2.6624 3.36896-7.3216 6.63552-11.18208zM489.45152 176.30208c12.75904 0 25.73312 1.29024 38.656 3.97312 44.09344 9.17504 80.39424 33.31072 99.57376 66.22208 9.08288 15.58528 13.79328 32.06144 14.04928 48.7424 0 0.17408-0.03072 0.34816-0.03072 0.52224v3.98336c-0.29696 8.91904-1.85344 17.87904-4.70016 26.7776-17.52064 54.72256-79.34976 91.06432-147.17952 91.06432-12.75904 0-25.73312-1.29024-38.656-3.97312-44.09344-9.17504-80.39424-33.31072-99.57376-66.21184-8.81664-15.12448-13.5168-31.09888-14.01856-47.27808v-5.66272c0.26624-9.02144 1.82272-18.09408 4.70016-27.0848 17.52064-54.72256 79.34976-91.06432 147.18976-91.06432z m-186.0608 105.23648c5.18144-2.23232 10.4448-4.21888 15.72864-5.9392-0.99328 5.31456-1.60768 10.6496-1.86368 15.99488h-0.16384v36.88448c-0.03072 37.15072 17.64352 71.53664 47.22688 97.0752 0.22528 2.27328 1.08544 4.41344 2.63168 6.17472l7.66976 8.73472c0.0512 0.26624-0.32768 1.34144-1.5872 1.90464l-35.97312 15.79008c-0.63488 0.27648-1.06496 0.23552-1.24928 0.17408s0.90112-13.90592 0.90112-13.90592c0.36864-5.64224-3.61472-10.11712-9.45152-10.6496l-0.36864 4.07552 0.26624-4.08576c-5.23264-0.49152-10.51648 2.304-13.19936 6.93248l-36.99712 64.03072c-0.62464 1.0752-0.7168 2.37568-0.26624 3.5328 0.45056 1.15712 1.40288 2.048 2.58048 2.42688 11.28448 3.57376 23.26528 5.34528 35.57376 5.34528 18.7904 0 38.31808-4.13696 57.25184-12.29824 22.51776-9.70752 42.53696-24.41216 58.32704-42.72128 4.58752 1.36192 9.2672 2.58048 14.03904 3.6352-18.60608 22.38464-42.52672 40.2432-69.89824 52.04992-41.35936 17.83808-84.93056 18.95424-119.54176 3.05152-15.91296-7.31136-28.928-17.67424-38.64576-30.6176-1.30048-1.85344-2.42688-3.45088-3.26656-4.64896-4.9664-7.53664-8.9088-15.84128-11.71456-24.86272-20.34688-65.16736 25.41568-145.0496 102.01088-178.08384zM188.5184 561.74592c-0.03072-25.79456 4.43392-49.68448 8.13056-65.05472l10.05568 14.30528c-2.12992 13.37344-4.73088 36.29056-2.94912 61.04064 3.6864 51.24096 24.76032 85.12512 60.93824 97.97632 10.55744 3.74784 21.82144 5.36576 33.61792 5.35552 36.83328 0 78.72512-15.7184 119.552-31.04768 33.51552-12.57472 65.16736-24.46336 92.90752-27.55584 21.28896-2.37568 40.97024-0.95232 60.0064 0.41984 43.17184 3.1232 84.04992 6.08256 127.56992-39.76192a213.23776 213.23776 0 0 0 16.03584 6.47168c-6.05184 7.23968-15.7184 17.12128-29.3888 26.25536-23.58272 15.74912-64.12288 32.2048-123.2896 21.12512-31.22176-5.84704-62.1056-0.74752-92.47744 8.45824-0.02048 0-0.04096 0.01024-0.06144 0.02048-19.28192 5.84704-38.35904 13.33248-57.18016 20.736-16.7424 6.58432-33.21856 13.056-49.42848 18.24768-0.1024 0.03072-0.2048 0.0512-0.3072 0.09216-0.01024 0-0.02048 0.01024-0.03072 0.02048-20.70528 6.61504-41.00096 11.14112-60.928 11.14112-6.76864 0-13.49632-0.53248-20.18304-1.66912h-0.02048c-9.66656-1.64864-19.26144-4.57728-28.76416-9.09312-9.15456-4.352-17.33632-9.61536-24.53504-15.77984-2.14016-2.02752-3.54304-3.25632-3.86048-3.5328-0.0512-0.0512-0.12288-0.08192-0.17408-0.12288-23.3472-22.28224-35.1744-55.10144-35.2256-98.01728z m455.94624 173.55776c-0.512-0.03072-1.15712-0.11264-2.01728-0.3072-5.96992-1.29024-9.92256 0.67584-12.55424 2.46784-1.42336-0.03072-2.99008-0.1024-4.68992-0.21504-0.90112-1.25952-1.78176-2.77504-2.70336-4.352-3.93216-6.79936-9.32864-16.10752-23.7568-16.35328h-0.17408c-3.328 0-5.7856 1.64864-8.3968 3.38944-3.51232 2.3552-8.33536 5.5808-18.65728 7.39328-1.9456 0.33792-3.82976 0.64512-5.64224 0.90112-4.97664-1.18784-9.22624-2.38592-12.92288-3.584 15.9232-0.88064 38.12352-5.05856 44.3904-21.03296 0.11264-0.27648 0.18432-0.57344 0.23552-0.8704 0.14336-0.89088 1.19808-8.86784-4.29056-14.15168-0.31744-0.3072-0.32768-0.47104-0.29696-0.68608 0.0512-0.41984 0.29696-0.86016 0.54272-1.16736 1.04448 0.11264 2.06848-0.14336 2.95936-0.73728 2.26304-1.52576 2.1504-4.0448 2.05824-5.888-0.02048-0.33792-0.04096-0.82944-0.04096-1.26976 1.08544 0.31744 1.95584 1.29024 1.95584 1.29024 1.25952 1.57696 3.50208 2.03776 5.26336 1.024 1.75104-1.01376 2.51904-3.11296 1.78176-5.00736-0.04096-0.11264-0.07168-0.26624-0.09216-0.4096 0.22528-0.0512 0.58368-0.09216 1.09568-0.09216 1.90464 0 4.28032 6.17472 4.89472 11.22304a4.096 4.096 0 0 0 3.4304 3.56352c1.80224 0.28672 3.59424-0.6656 4.36224-2.33472 0.11264-0.256 2.85696-6.28736 3.0208-13.5168 0.04096-1.6896 0-3.33824-0.0512-4.80256-0.04096-1.6384-0.1024-3.77856 0.0512-4.93568 2.05824-0.39936 5.24288-0.6144 7.02464-0.65536 1.32096-0.03072 2.51904-0.6656 3.25632-1.76128 0.34816-0.48128 1.01376-1.04448 1.23904-1.09568 0 0 0.12288 0.03072 0.3584 0.21504 3.35872 2.64192 4.98688 5.39648 4.98688 5.40672 0.74752 1.32096 2.1504 2.12992 3.70688 2.07872 2.16064-0.06144 4.47488 0.62464 4.85376 1.21856-0.04096 2.11968-3.72736 9.07264-8.02816 15.07328a4.102144 4.102144 0 0 0 0.08192 4.88448 4.084736 4.084736 0 0 0 4.70016 1.3312c0.24576-0.09216 6.02112-2.304 13.99808-7.9872 2.29376-1.62816 4.23936-3.14368 5.94944-4.47488 1.23904-0.96256 2.68288-2.07872 3.72736-2.79552 0.36864 0.62464 0.73728 1.39264 0.99328 2.08896 0.52224 1.45408 1.80224 2.5088 3.328 2.70336 1.2288 0.1536 2.43712-0.23552 3.31776-1.06496 0.6656 0.86016 0.79872 1.42336 0.78848 1.64864-0.50176 0.88064-0.7168 1.87392-0.47104 2.8672 0.23552 0.9216 0.69632 1.67936 1.42336 2.22208-4.8128 2.70336-20.84864 9.03168-34.7136 13.99808-1.98656 0.70656-3.09248 2.80576-2.58048 4.85376s2.5088 3.36896 4.58752 3.05152c0.04096 0 4.48512-0.64512 15.57504 0.04096 3.92192 0.24576 6.30784 0.90112 7.71072 1.4848-0.21504 0.45056-0.34816 0.94208-0.37888 1.46432-0.0512 0.58368-0.37888 1.61792-0.80896 1.9456-0.34816 0.26624-1.1776 0.13312-1.51552 0.07168a4.08576 4.08576 0 0 0-4.54656 2.39616c-0.90112-0.24576-2.17088-0.69632-3.18464-1.06496-3.8912-1.40288-9.23648-3.31776-15.40096-2.85696-8.23296 0.6144-12.94336 0.8704-12.99456 0.88064-1.9456 0.1024-3.54304 1.57696-3.82976 3.50208-0.27648 1.93536 0.84992 3.79904 2.69312 4.44416 0.03072 0.01024 3.38944 1.21856 12.01152 5.5296 3.00032 1.50528 4.90496 2.60096 6.11328 3.3792-1.01376 1.29024-1.45408 2.77504-1.77152 3.84-0.04096 0.13312-0.08192 0.28672-0.13312 0.44032-0.57344 0.4096-1.1776 0.78848-1.8432 1.13664z m-29.44 1.03424c-6.21568-0.68608-13.75232-1.69984-22.97856-3.11296-2.47808-0.37888-4.83328-0.75776-7.09632-1.14688 4.5056-1.81248 7.49568-3.80928 9.78944-5.33504 1.98656-1.3312 3.10272-2.01728 3.87072-2.00704 9.46176 0.16384 12.82048 5.40672 16.42496 11.61216z m-123.93472-93.99296c0 0.36864 0 0.74752 0.02048 1.14688 0 0.04096-0.01024 0.08192-0.01024 0.13312 0 0.06144 0.02048 0.12288 0.02048 0.18432 0.19456 9.984 1.42336 28.12928 7.424 38.57408-2.75456 0.06144-5.41696 0.2048-8.11008 0.34816-1.92512 0.1024-3.87072 0.2048-5.86752 0.27648-9.20576-7.15776-10.51648-26.4704-10.16832-36.2496 5.56032-1.62816 11.13088-3.11296 16.71168-4.4032zM581.632 709.34528c-3.95264-3.56352-13.1584-10.30144-31.52896-16.9984 13.824-0.72704 27.96544-2.12992 34.816-2.85696 0.31744 1.8432 1.21856 3.584 2.68288 4.99712 2.03776 1.96608 1.98656 5.45792 1.91488 6.61504-1.50528 3.46112-4.34176 6.144-7.8848 8.2432z m-72.25344-26.71616c-0.27648-0.39936-0.6144-0.75776-1.03424-1.05472-2.36544-1.62816-4.17792-5.30432-5.55008-10.00448 11.42784-1.71008 53.1456-6.97344 75.53024 3.6352-5.00736 2.84672-10.21952 5.51936-15.58528 7.87456-0.1536 0.07168-0.28672 0.16384-0.43008 0.24576-13.2096 1.01376-28.38528 1.78176-37.50912 0.9216-0.67584-0.06144-1.3312 0.06144-1.92512 0.3072-5.05856-1.01376-9.48224-1.60768-13.50656-1.91488z m80.9472-3.6352c-0.91136 0.43008-1.78176 1.09568-2.57024 1.93536-0.58368 0.06144-1.82272 0.2048-3.57376 0.38912 2.11968-1.2288 4.18816-2.48832 6.21568-3.75808-0.0512 0.50176-0.07168 0.99328-0.07168 1.4336z m-4.43392-8.32512a3.9936 3.9936 0 0 0-1.61792-1.62816c-24.63744-13.5168-71.56736-7.3216-83.26144-5.49888-0.84992-5.07904-1.36192-10.5984-1.59744-15.79008 9.0112 0.1536 31.04768 0.79872 52.49024 3.49184 7.4752 0.94208 14.76608 2.3552 21.8112 3.71712 9.86112 1.91488 19.33312 3.7376 28.75392 4.21888a236.16512 236.16512 0 0 1-16.57856 11.47904z m14.92992-0.0512c-0.08192 0.1024-0.16384 0.2048-0.23552 0.29696l-0.14336-0.03072c0.12288-0.09216 0.256-0.18432 0.37888-0.26624z m12.09344-19.72224c-12.00128 0.99328-24.46336-1.41312-37.62176-3.96288-7.17824-1.39264-14.60224-2.82624-22.35392-3.79904-18.66752-2.34496-37.74464-3.16416-48.62976-3.45088 18.59584-3.18464 37.26336-3.85024 55.87968-0.3584 24.02304 4.49536 45.12768 4.62848 63.4368 2.14016-2.95936 2.75456-6.56384 5.96992-10.71104 9.44128z m-139.15136 32.13312c-3.96288-0.14336-8.3456-0.48128-13.38368-1.14688-4.77184-4.2496-7.30112-18.30912-8.00768-27.98592 4.58752-1.61792 9.18528-3.1744 13.79328-4.63872-0.03072 8.30464 0.95232 23.3984 7.60832 33.77152z m-29.36832-26.24512c0.57344 6.11328 1.95584 15.84128 5.24288 23.33696-20.8896-4.22912-26.59328-11.08992-28.12928-14.592 7.59808-2.9696 15.22688-5.92896 22.8864-8.74496z m-30.59712 11.776c2.59072 6.32832 11.17184 15.79008 38.69696 20.43904 17.74592 2.99008 28.69248 2.41664 38.35904 1.90464 11.73504-0.6144 21.87264-1.15712 41.86112 4.46464 22.64064 6.36928 34.68288 13.39392 40.42752 17.63328-9.90208 3.09248-21.23776 3.59424-26.13248 3.65568-2.78528 0.03072-5.3248 1.14688-7.2192 2.93888-2.67264-1.21856-5.00736-2.39616-7.2192-3.51232-10.0352-5.05856-17.96096-9.05216-42.1888-9.35936-3.4816-0.04096-6.89152-0.07168-10.21952-0.09216-39.7824-0.27648-66.59072-0.49152-82.57536-31.75424 5.4272-2.07872 10.83392-4.1984 16.19968-6.30784z m250.78784 1.59744c-1.04448 0.73728-2.11968 1.57696-3.26656 2.4576-1.49504 1.16736-3.1744 2.46784-5.08928 3.85024 0.59392-1.44384 1.04448-2.85696 1.30048-4.16768l7.04512-2.12992z m-7.66976 56.60672c-1.50528-2.14016-4.49536-4.12672-8.82688-6.4 3.15392 0.32768 6.08256 1.3824 8.73472 2.34496 1.98656 0.7168 3.84 1.3824 5.5808 1.62816-2.10944 0.79872-3.92192 1.61792-5.49888 2.42688z m12.17536-4.85376c2.16064-0.19456 3.7376-1.024 4.78208-1.83296 2.1504-1.65888 3.14368-4.01408 3.59424-5.71392l0.1024-0.07168c1.792-1.25952 2.56-3.50208 1.93536-5.71392-0.53248-1.87392-2.75456-5.98016-12.09344-7.53664 4.25984-1.6896 7.5776-3.09248 10.1888-4.28032a4.08576 4.08576 0 0 0 3.05152 1.3824c0.43008 0 0.8704-0.07168 1.30048-0.21504l31.21152-10.41408c2.18112 7.6288 3.25632 15.52384 3.21536 23.66464-5.376 0.80896-20.60288 3.49184-47.3088 10.98752-0.1024 0.03072-0.18432 0.0512-0.28672 0.08192 0.1024-0.11264 0.21504-0.2048 0.3072-0.32768z m19.12832-34.7136c0.0512-1.81248-0.55296-3.49184-1.54624-4.85376 0.16384-2.19136-0.45056-4.9664-2.88768-7.84384-2.3552-2.78528-4.8128-3.26656-6.47168-3.1744-0.22528 0.01024-0.44032 0.03072-0.64512 0.06144-0.67584-1.024-1.50528-2.02752-2.47808-2.77504-0.52224-0.39936-1.04448-0.68608-1.56672-0.8704l26.74688-8.11008c4.67968 6.46144 8.3968 13.17888 11.15136 20.13184l-22.30272 7.44448z m-32.82944-22.80448c-0.34816-0.34816-0.70656-0.6656-1.08544-0.94208 7.02464-3.96288 20.44928-12.7488 25.5488-24.50432 4.4032 3.64544 9.3184 8.2432 14.06976 13.7728l-38.52288 11.6736z m17.664-30.67904c-3.45088 11.53024-20.2752 21.63712-26.624 24.61696-0.4096 0.19456-0.75776 0.45056-1.06496 0.74752a32.034816 32.034816 0 0 0-4.1984-3.96288c-2.54976-1.9968-5.00736-2.11968-6.62528-1.86368-2.36544 0.36864-4.16768 1.6896-5.33504 2.83648-2.17088 0.12288-5.7344 0.41984-8.15104 1.10592-5.38624 1.536-5.2224 7.53664-5.07904 12.82048l0.03072 1.16736c-1.85344-2.19136-4.29056-3.71712-7.49568-3.71712-1.73056 0-3.13344 0.27648-4.27008 0.70656 17.98144-13.12768 30.52544-25.9072 33.75104-29.2864 10.67008-2.41664 20.21376-5.69344 28.65152-9.40032 1.41312 0.84992 3.65568 2.26304 6.41024 4.22912zM469.8624 741.15072c2.36544 0.06144 4.63872 0.12288 6.8096 0.2048 2.29376 0.08192 4.59776 0.28672 6.88128 0.58368-4.096 2.64192-13.03552 3.21536-26.81856 3.85024-2.85696 0.13312-5.888 0.27648-9.04192 0.45056 0.57344-2.05824 1.60768-4.23936 2.57024-5.92896 6.90176 0.48128 13.5168 0.6656 19.59936 0.82944z m-30.6176 5.66272c-7.22944 0.5632-15.04256 1.42336-23.30624 2.85696 0.39936-6.32832 3.47136-11.24352 5.33504-13.6704 6.76864 1.69984 13.568 2.80576 20.19328 3.54304-0.9728 2.1504-1.87392 4.68992-2.22208 7.2704z m-31.55968 4.4544a189.02016 189.02016 0 0 0-19.7632 5.38624c-1.25952-6.35904-1.8432-19.32288 10.79296-29.07136 3.84 2.01728 7.90528 3.79904 12.1856 5.31456 0.68608 0.24576 1.36192 0.4608 2.048 0.68608-2.54976 3.9936-5.34528 10.12736-5.2736 17.68448z m-99.56352-53.34016c6.44096 5.4784 8.46848 13.89568 10.58816 22.80448 2.5088 10.5472 5.10976 21.46304 15.32928 28.18048 6.58432 4.34176 14.56128 5.76512 22.2208 5.76512 8.97024 0 17.50016-1.96608 22.85568-3.52256 0.04096 3.00032 0.41984 5.7856 0.9728 8.192-30.59712 10.00448-55.1424 5.08928-67.14368-2.44736-5.36576-3.36896-8.54016-7.36256-8.93952-11.24352-1.36192-13.1584-11.39712-36.67968-16.65024-48.2816 4.56704 0.48128 9.22624 0.7168 13.98784 0.7168 2.23232 0 4.49536-0.06144 6.77888-0.16384z m71.87456 44.35968c-2.63168 0.88064-7.9872 2.49856-14.30528 3.46112 4.62848-7.7312 13.17888-20.06016 22.784-24.5248 0.91136 0.65536 1.83296 1.31072 2.77504 1.93536-6.47168 5.8368-9.80992 12.62592-11.24352 19.12832z m-24.17664 4.21888c-5.89824-0.04096-11.83744-1.10592-16.6912-4.08576 6.54336-9.41056 23.37792-29.52192 38.01088-31.1296 1.4336 1.52576 2.93888 2.9696 4.48512 4.37248-12.70784 7.91552-22.528 24.73984-25.79456 30.84288z m-22.6816-9.79968c-3.36896-4.90496-4.89472-11.264-6.47168-17.87904-0.06144-0.26624-0.12288-0.53248-0.19456-0.79872 0.39936-0.2048 0.77824-0.4608 1.10592-0.80896 0.1536-0.1536 14.60224-15.17568 38.74816-20.30592 1.50528 2.52928 3.1232 4.95616 4.84352 7.2704-17.11104 5.12-32.79872 25.23136-38.0416 32.512z m29.20448-47.28832c-19.69152 4.72064-32.96256 15.07328-38.21568 19.78368-1.3312-4.21888-3.09248-8.37632-5.7344-12.09344 4.2496-0.47104 8.57088-1.10592 12.97408-1.91488 9.95328-1.83296 20.02944-4.47488 30.13632-7.59808 0.27648 0.6144 0.55296 1.21856 0.83968 1.81248z m-71.08608 86.09792c-8.66304-6.5536-13.13792-15.85152-13.69088-28.44672-0.94208-21.44256-14.72512-43.56096-28.08832-60.16 9.00096 4.20864 18.3808 7.22944 28.20096 9.05216 3.5328 7.55712 16.72192 36.5056 18.176 50.5344 0.6656 6.44096 5.19168 12.60544 12.73856 17.34656 8.21248 5.16096 21.49376 9.28768 38.12352 9.28768 11.79648 0 25.27232-2.07872 39.82336-7.3216 12.83072-4.62848 25.1904-7.3216 36.608-8.97024-0.41984 0.64512-0.768 1.3312-1.00352 2.06848l-5.49888 17.14176c-63.29344 14.6944-105.48224 14.53056-125.37856-0.52224z m149.74976 23.77728c-2.78528 0.512-6.38976 0.1536-9.90208-0.9728s-6.656-2.93888-8.62208-4.9664c-1.44384-1.49504-1.91488-2.7648-1.73056-3.30752 0.17408-0.55296 1.29024-1.31072 3.33824-1.67936 2.77504-0.512 6.38976-0.1536 9.90208 0.9728 3.51232 1.1264 6.656 2.93888 8.62208 4.9664 1.44384 1.49504 1.91488 2.7648 1.73056 3.30752-0.17408 0.55296-1.29024 1.31072-3.33824 1.67936z m12.52352-30.34112l-6.00064 18.71872c-2.85696-2.60096-6.71744-4.7616-11.03872-6.144-4.32128-1.3824-8.71424-1.87392-12.55424-1.41312l6.00064-18.71872c0.17408-0.55296 1.29024-1.31072 3.33824-1.67936 2.78528-0.512 6.38976-0.1536 9.90208 0.9728 7.65952 2.4576 10.77248 6.97344 10.35264 8.27392z m9.02144-4.99712c-0.68608-0.19456-1.36192-0.18432-2.01728-0.03072-1.85344-3.70688-5.74464-7.15776-11.03872-9.5744 2.65216-0.14336 5.20192-0.26624 7.6288-0.37888 17.92-0.82944 31.49824-1.46432 35.82976-10.2912 5.85728 1.40288 11.53024 3.29728 16.80384 5.40672-10.25024 24.92416-45.62944 15.3088-47.19616 14.86848z m110.67392-6.31808c-0.08192 0.57344-1.05472 1.51552-2.99008 2.23232-2.65216 0.98304-6.26688 1.25952-9.91232 0.75776-3.65568-0.50176-7.05536-1.7408-9.34912-3.39968-1.67936-1.21856-2.36544-2.38592-2.28352-2.95936 0.08192-0.57344 1.04448-1.51552 2.99008-2.23232 1.78176-0.6656 4.00384-1.00352 6.37952-1.00352 1.15712 0 2.34496 0.08192 3.5328 0.24576 3.65568 0.50176 7.05536 1.7408 9.34912 3.39968 1.67936 1.21856 2.3552 2.38592 2.28352 2.95936z m-7.07584 32.0512c-2.65216 0.98304-6.26688 1.25952-9.91232 0.75776-3.65568-0.50176-7.05536-1.7408-9.34912-3.39968-1.67936-1.21856-2.36544-2.38592-2.28352-2.95936l2.6624-19.47648c3.26656 2.06848 7.44448 3.52256 11.93984 4.13696 1.56672 0.21504 3.1232 0.31744 4.64896 0.31744 2.84672 0 5.55008-0.38912 7.95648-1.11616l-2.67264 19.49696c-0.08192 0.57344-1.04448 1.51552-2.99008 2.23232zM664.576 752.60928c-21.38112 15.0016-70.9632 11.04896-83.73248 9.73824l0.49152-3.59424c0.52224-3.84-1.51552-7.74144-5.59104-10.7008-3.38944-2.4576-8.02816-4.1984-13.04576-4.88448-5.02784-0.68608-9.94304-0.26624-13.8752 1.19808-4.72064 1.75104-7.7312 4.9664-8.26368 8.8064l-0.31744 2.32448c-8.448-5.35552-27.19744-16.04608-48.2304-20.4288-0.39936-0.2048-0.82944-0.3584-1.30048-0.41984-0.29696-0.04096-0.59392-0.04096-0.88064-0.02048-4.22912-0.78848-8.54016-1.31072-12.87168-1.46432-2.19136-0.08192-4.49536-0.14336-6.88128-0.2048-31.85664-0.8704-79.53408-2.17088-100.74112-47.872 6.85056-2.27328 13.71136-4.73088 20.54144-7.29088 18.10432 36.5056 48.55808 36.73088 90.23488 37.0176 3.30752 0.02048 6.69696 0.0512 10.16832 0.09216 22.33344 0.27648 29.15328 3.71712 38.6048 8.47872 2.31424 1.16736 4.75136 2.39616 7.5264 3.65568 0 0.11264-0.02048 0.23552-0.02048 0.34816 0 2.94912 1.16736 5.70368 3.29728 7.75168s4.95616 3.11296 7.8848 3.00032c4.31104-0.17408 10.51648-0.59392 17.89952-1.59744 6.99392 1.62816 15.28832 3.2256 25.32352 4.7616 12.9024 1.97632 22.75328 3.21536 30.464 3.85024 2.05824 1.8944 3.9936 2.56 5.7344 2.56 2.24256 0 4.13696-1.10592 5.49888-2.05824 6.58432-0.04096 10.79296-0.84992 14.08-2.26304 3.18464-0.38912 5.05856-1.96608 6.25664-3.91168 0.256-0.2048 0.512-0.4096 0.77824-0.62464 3.40992-2.7648 7.28064-5.90848 17.67424-8.82688 23.76704-6.67648 38.4-9.472 44.67712-10.50624-0.24576 2.51904-0.58368 5.05856-1.03424 7.61856-0.50176 2.8672-0.7168 5.38624-0.64512 7.58784-9.09312 0.57344-29.27616 3.54304-49.69472 17.85856z m72.67328-28.95872c-0.64512 3.77856-5.75488 9.984-10.53696 12.77952-2.23232 1.31072-3.4304 1.31072-3.584 1.25952-0.01024-0.01024-1.44384-1.69984-0.14336-9.12384 5.95968-34.01728-6.20544-59.70944-18.90304-76.30848 0 0 0-0.01024-0.01024-0.02048-1.15712-1.51552-2.32448-2.9696-3.4816-4.33152-9.24672-10.9056-19.00544-18.40128-25.23136-22.59968 5.23264-2.7136 9.97376-5.53984 14.1824-8.35584 0.44032-0.29696 0.8704-0.59392 1.30048-0.89088 54.7328 47.68768 47.43168 101.51936 46.40768 107.58144z m9.02144-13.8752c-0.3584-21.63712-7.40352-61.92128-48.64-98.62144 4.68992-3.59424 8.81664-7.19872 12.41088-10.63936 46.8992 44.8 47.73888 74.10688 48.24064 91.7504l0.0512 1.90464c0.3072 9.74848-7.05536 13.90592-12.07296 15.60576z m19.48672-30.3616c-2.03776-19.23072-10.3936-46.91968-49.95072-84.736 2.73408-2.93888 5.03808-5.66272 6.92224-8.02816 4.74112 1.46432 9.51296 2.75456 14.29504 3.86048 27.32032 26.2144 35.3792 52.29568 39.03488 70.01088 2.28352 11.01824-5.1712 16.4864-10.30144 18.8928z m40.20224-51.47648c-10.94656 8.28416-21.21728 12.52352-26.23488 14.27456-1.6384-5.0176-3.69664-10.35264-6.3488-15.90272 4.08576-0.63488 10.5984-2.18112 17.79712-5.92896 9.25696-4.82304 21.248-14.24384 29.37856-32.32768 7.7824-2.94912 14.81728-6.78912 20.95104-11.4688-6.5024 21.13536-18.40128 38.37952-35.5328 51.3536z m-42.0352-189.77792c-13.9264-9.96352-32-15.23712-50.92352-14.85824-18.95424 0.37888-36.68992 6.41024-49.95072 16.96768-13.95712 11.12064-21.42208 25.93792-21.02272 41.71776 0.4096 16.04608 8.86784 30.7712 23.808 41.46176 13.45536 9.6256 30.79168 14.87872 48.9984 14.87872 0.63488 0 1.28 0 1.91488-0.02048 18.95424-0.37888 36.68992-6.41024 49.95072-16.96768 13.95712-11.12064 21.42208-25.92768 21.02272-41.71776-0.4096-16.04608-8.86784-30.7712-23.808-41.46176z m-9.97376 67.15392c-20.0704 15.98464-54.95808 16.66048-76.1856 1.47456-9.59488-6.8608-15.01184-15.86176-15.24736-25.33376-0.23552-9.20576 4.48512-18.14528 13.30176-25.16992 10.38336-8.27392 24.7296-12.4416 39.09632-12.4416 13.4144 0 26.84928 3.6352 37.09952 10.96704 9.59488 6.8608 15.01184 15.86176 15.24736 25.33376 0.23552 9.20576-4.48512 18.14528-13.30176 25.16992zM360.92928 306.88256h0.28672l19.79392-1.37216a9.274368 9.274368 0 0 0-0.3072 3.09248c-1.56672 2.14016-2.18112 5.05856-0.768 8.01792 0.60416 1.25952 1.60768 3.36896 20.02944 10.67008-9.33888 1.55648-11.56096 5.66272-12.09344 7.53664-0.62464 2.21184 0.13312 4.46464 1.93536 5.71392l0.1024 0.07168c0.11264 0.44032 0.27648 0.9216 0.47104 1.4336l-12.20608 5.66272c-1.1264 0.52224-1.95584 1.52576-2.2528 2.73408a4.12672 4.12672 0 0 0 0.7168 3.47136c18.15552 23.78752 46.55104 40.71424 79.95392 47.6672 10.8544 2.26304 21.92384 3.36896 32.95232 3.36896 25.856 0 51.47648-6.11328 73.41056-17.8688a4.099072 4.099072 0 0 0 2.0992-2.87744c0.22528-1.2288-0.13312-2.49856-0.95232-3.4304l-43.88864-49.92c-3.76832-4.28032-10.35264-5.95968-16.384-4.17792l1.16736 3.93216-1.30048-3.8912c-6.20544 1.82272-10.19904 6.8608-9.92256 12.3904-7.07584-2.28352-13.35296-5.92896-15.88224-11.73504-0.08192-1.1776-0.11264-4.66944 1.91488-6.62528 3.34848-3.2256 3.7376-8.12032 0.9728-12.17536-1.04448-1.536-2.33472-2.6624-3.70688-3.31776-0.01024-2.79552-0.64512-7.19872-5.4272-8.22272-1.7408-0.36864-3.36896-0.256-4.83328 0.14336-1.1264-1.59744-3.40992-3.46112-7.92576-3.46112-3.20512 0-5.64224 1.536-7.49568 3.71712 0-0.38912 0.02048-0.78848 0.03072-1.16736 0.08192-2.82624 0.1536-5.84704-0.60416-8.28416 0.78848-4.38272-1.72032-8.71424-6.3488-10.60864l-15.13472-6.1952c-0.36864-0.1536-0.5632-0.32768-0.63488-0.41984 0.03072-0.04096 0.09216-0.1024 0.17408-0.16384l28.47744-22.30272c0.512-0.39936 1.35168-0.5632 2.1504-0.4096 0.63488 0.12288 1.04448 0.39936 1.1776 0.62464l6.78912 11.60192c2.57024 4.4032 8.15104 6.71744 13.85472 5.75488l0.13312-0.02048c5.87776-0.9728 10.15808-5.23264 10.3936-10.36288l2.87744-62.28992a4.091904 4.091904 0 0 0-4.06528-4.29056h-1.11616c-60.52864 0-113.31584 33.11616-128.58368 80.81408-3.50208 10.92608-4.87424 22.14912-4.096 33.34144 0.1536 2.16064 1.9456 3.80928 4.08576 3.80928z m97.3312 86.67136c-29.55264-6.15424-54.87616-20.49024-71.89504-40.61184l10.7008-4.9664c0.38912 0.08192 0.78848 0.1536 1.21856 0.19456a6.48192 6.48192 0 0 0 1.93536 1.67936c3.09248 1.73056 6.44096 0.52224 10.32192-0.88064 2.6624-0.96256 5.5808-2.00704 8.73472-2.34496-6.6048 3.47136-10.11712 6.25664-9.96352 9.97376 0.04096 1.00352 0.47104 3.38944 3.49184 4.85376 0.09216 0.256 0.19456 0.60416 0.26624 0.86016 1.29024 4.32128 3.9936 9.02144 13.58848 6.95296 3.54304-0.768 5.24288 0.49152 7.39328 2.07872 1.36192 1.00352 3.584 2.65216 6.32832 2.65216 1.93536 0 4.12672-0.8192 6.4512-3.25632 2.048-2.14016 3.61472-4.85376 5.13024-7.46496 2.23232-3.85024 4.29056-7.3728 7.6288-9.65632l20.75648 4.17792c0.27648 0.0512 0.54272 0.08192 0.80896 0.08192 0.04096 0 0.08192 0 0.12288-0.01024 3.34848 1.44384 7.5776 2.816 13.14816 3.79904 10.6496 1.87392 19.67104 2.53952 25.35424 2.7648 2.93888 0.11264 5.75488-0.94208 7.8848-3.00032 1.71008-1.64864 2.79552-3.75808 3.15392-6.06208l23.61344 26.85952c-28.7744 13.99808-63.51872 18.14528-96.19456 11.34592z m43.6736-54.72256c-0.18432-1.76128 1.47456-3.51232 4.01408-4.25984l0.19456-0.06144c2.93888-0.8704 6.26688-0.14336 7.90528 1.73056l5.84704 6.656c-3.72736-0.06144-10.55744-0.37888-17.7152-1.71008l-0.24576-2.3552z m-47.96416-25.69216c0.6144-5.05856 2.99008-11.23328 4.89472-11.23328 0.52224 0 0.88064 0.04096 1.10592 0.09216-0.02048 0.13312-0.04096 0.26624-0.07168 0.34816-0.73728 1.88416 0 4.0448 1.75104 5.05856 1.75104 1.01376 3.96288 0.6144 5.23264-0.9728 0.01024-0.01024 0.89088-1.01376 1.98656-1.3312 0 0.45056-0.02048 0.93184-0.04096 1.26976-0.08192 1.8432-0.2048 4.36224 2.05824 5.888 0.89088 0.59392 1.91488 0.84992 2.95936 0.73728 0.24576 0.3072 0.49152 0.74752 0.54272 1.16736 0.02048 0.2048 0.02048 0.37888-0.29696 0.67584-5.48864 5.29408-4.42368 13.2608-4.29056 14.16192 0.04096 0.29696 0.12288 0.58368 0.23552 0.8704 7.08608 18.04288 34.5088 21.0432 50.2272 21.22752 1.39264 0.02048 2.52928 1.16736 2.52928 2.56 0 0.70656-0.27648 1.36192-0.78848 1.8432-0.512 0.49152-1.1776 0.74752-1.88416 0.7168-5.43744-0.21504-14.05952-0.84992-24.25856-2.64192-10.32192-1.81248-15.14496-5.03808-18.65728-7.39328-2.60096-1.7408-5.05856-3.38944-8.3968-3.38944h-0.17408c-14.42816 0.256-19.8144 9.56416-23.7568 16.36352-1.3312 2.304-2.60096 4.48512-3.96288 5.91872-0.28672 0.29696-0.50176 0.49152-0.65536 0.60416-0.36864-0.22528-0.90112-0.62464-1.3312-0.93184-2.07872-1.536-5.29408-3.91168-10.27072-3.91168-1.14688 0-2.38592 0.12288-3.71712 0.4096-1.2288 0.26624-2.05824 0.33792-2.59072 0.33792-0.60416 0-0.86016-0.11264-0.84992-0.08192-0.17408-0.21504-0.4096-1.00352-0.5632-1.536-0.31744-1.05472-0.75776-2.53952-1.78176-3.82976 1.20832-0.77824 3.11296-1.88416 6.12352-3.38944 8.62208-4.31104 11.9808-5.51936 12.00128-5.5296 1.85344-0.64512 2.99008-2.49856 2.7136-4.44416s-1.88416-3.40992-3.84-3.51232c-0.0512 0-4.7616-0.256-12.99456-0.88064-6.16448-0.4608-11.50976 1.45408-15.40096 2.85696-1.01376 0.36864-2.28352 0.8192-3.18464 1.06496a4.110336 4.110336 0 0 0-4.54656-2.39616c-0.33792 0.06144-1.16736 0.19456-1.51552-0.07168-0.44032-0.32768-0.75776-1.36192-0.80896-1.8944-0.03072-0.53248-0.17408-1.04448-0.38912-1.51552 1.40288-0.58368 3.7888-1.24928 7.72096-1.49504 11.08992-0.68608 15.53408-0.0512 15.55456-0.04096 2.07872 0.33792 4.096-0.9728 4.61824-3.0208 0.52224-2.048-0.59392-4.16768-2.59072-4.87424-13.86496-4.95616-29.9008-11.29472-34.7136-13.99808 0.72704-0.54272 1.18784-1.30048 1.42336-2.22208 0.24576-0.99328 0.03072-1.98656-0.47104-2.8672 0-0.21504 0.12288-0.77824 0.75776-1.60768 0.8192 0.86016 1.98656 1.25952 3.24608 1.15712 1.5872-0.13312 2.87744-1.32096 3.42016-2.82624 0.256-0.69632 0.62464-1.46432 0.99328-2.0992 1.05472 0.7168 2.49856 1.83296 3.7376 2.79552 1.71008 1.3312 3.65568 2.83648 5.94944 4.46464 7.97696 5.67296 13.76256 7.89504 13.99808 7.9872 1.6896 0.63488 3.59424 0.1024 4.70016-1.3312 1.09568-1.4336 1.13664-3.40992 0.08192-4.88448-4.29056-6.01088-7.9872-12.9536-8.02816-15.07328 0.36864-0.59392 2.74432-1.28 4.83328-1.21856a4.11648 4.11648 0 0 0 3.70688-2.05824c0.02048-0.03072 1.64864-2.79552 4.99712-5.4272 0.19456-0.1536 0.3072-0.2048 0.3072-0.21504 0.29696 0.06144 0.94208 0.6144 1.25952 1.04448a4.08576 4.08576 0 0 0 3.28704 1.80224c1.78176 0.04096 4.9664 0.256 7.02464 0.65536 0.1536 1.14688 0.1024 3.28704 0.0512 4.93568-0.04096 1.46432-0.08192 3.1232-0.0512 4.80256 0.16384 7.22944 2.89792 13.2608 3.0208 13.5168a4.089856 4.089856 0 0 0 4.352 2.33472 4.096 4.096 0 0 0 3.4304-3.55328z m-85.21728-40.91904c13.9264-43.49952 61.92128-73.95328 117.57568-75.08992l-2.68288 57.97888c-0.0512 1.18784-1.57696 2.33472-3.56352 2.6624l-0.12288 0.02048c-2.26304 0.37888-4.608-0.39936-5.4272-1.81248l-6.78912-11.60192c-1.36192-2.33472-3.80928-3.98336-6.71744-4.53632-3.10272-0.59392-6.36928 0.1536-8.73472 2.00704l-28.47744 22.30272c-2.4576 1.92512-3.67616 4.80256-3.2768 7.70048 0.41984 3.05152 2.54976 5.64224 5.6832 6.92224l2.69312 1.10592c-0.86016 0.3072-1.77152 0.77824-2.69312 1.49504-2.70336 2.12992-4.58752 4.3008-5.72416 5.82656-3.34848 0.31744-9.08288 1.66912-10.67008 7.12704-0.09216 0.3072-0.1536 0.64512-0.19456 0.98304l-7.10656 0.49152c-0.17408 0.01024-0.34816 0.0512-0.52224 0.09216-3.2256-2.16064-6.06208-3.15392-8.82688-1.024-0.62464 0.48128-1.18784 1.0752-1.6896 1.71008h-0.07168l-26.58304 1.8432c-0.1536-8.79616 1.15712-17.58208 3.90144-26.18368z m147.7632 1.05472l2.36544-3.34848-2.26304 3.42016c4.59776 3.26656 11.0592 3.59424 16.0768 0.8192l12.48256-6.912c0.67584-0.37888 1.61792-0.43008 2.39616-0.12288 0.47104 0.18432 0.68608 0.41984 0.7168 0.512l10.60864 30.75072c-0.16384 0.22528-0.79872 0.70656-1.8944 0.64512l-17.95072-0.84992c-4.7616-0.22528-8.97024 2.43712-10.26048 6.46144-0.24576 0.768-0.53248 1.54624-0.86016 2.304-1.80224 4.22912 0.18432 8.99072 4.61824 11.06944l68.63872 32.2048c0.5632 0.26624 1.15712 0.38912 1.7408 0.38912 1.3312 0 2.62144-0.64512 3.39968-1.81248 5.21216-7.75168 9.24672-16.04608 12.00128-24.64768 7.5776-23.66464 5.00736-48.95744-7.22944-71.22944-11.93984-21.72928-32.64512-39.86432-58.28608-51.07712a4.094976 4.094976 0 0 0-5.10976 1.57696l-34.5088 55.06048c-3.13344 4.99712-1.73056 11.20256 3.328 14.77632z m3.61472-10.42432l32.6144-52.02944c47.9232 22.43584 71.63904 67.57376 57.78432 110.848-2.17088 6.78912-5.23264 13.37344-9.10336 19.63008l-65.40288-30.67904c-0.41984-0.19456-0.55296-0.4096-0.57344-0.41984v-0.03072c0.41984-0.99328 0.79872-2.00704 1.1264-3.0208 0.08192-0.256 0.91136-0.82944 2.06848-0.77824l17.95072 0.84992c3.584 0.17408 6.88128-1.29024 8.84736-3.91168 1.65888-2.21184 2.0992-4.94592 1.21856-7.49568l-10.63936-30.84288c-0.84992-2.46784-2.8672-4.46464-5.5296-5.48864-3.03104-1.16736-6.51264-0.93184-9.29792 0.60416l-12.48256 6.912c-2.21184 1.2288-5.376 1.08544-7.3728-0.33792l-0.11264-0.08192c-0.5632-0.39936-2.304-1.8432-1.11616-3.7376zM233.84064 480.4608a4.096 4.096 0 0 0 3.18464 1.51552c0.91136 0 1.82272-0.29696 2.58048-0.91136l60.70272-49.2544c4.15744-3.3792 5.632-8.71424 3.584-12.98432-0.53248-1.11616-1.00352-2.29376-1.39264-3.54304-1.4848-4.79232-6.42048-7.40352-11.74528-6.18496l-15.94368 3.6352c-0.38912 0.09216-0.64512 0.06144-0.768 0.02048 0-0.0512 0.02048-0.13312 0.0512-0.23552l10.48576-34.62144c0.18432-0.62464 0.78848-1.23904 1.52576-1.56672 0.58368-0.26624 1.08544-0.27648 1.3312-0.16384l12.22656 5.59104c4.63872 2.11968 10.52672 0.80896 14.65344-3.25632l-2.87744-2.9184 2.9696 2.82624c4.2496-4.17792 5.29408-10.11712 2.53952-14.44864l-33.44384-52.62336a4.114432 4.114432 0 0 0-2.64192-1.82272c-1.09568-0.21504-2.23232 0.01024-3.14368 0.64512-50.14528 34.73408-74.69056 92.57984-59.67872 140.67712 3.42016 10.9568 8.74496 20.92032 15.81056 29.6448z m45.056-161.10592l31.1296 48.97792c0.63488 1.00352 0.0512 2.816-1.3312 4.16768l-0.14336 0.14336c-1.6384 1.61792-4.00384 2.32448-5.48864 1.6384l-12.22656-5.59104c-2.4576-1.1264-5.40672-1.0752-8.11008 0.14336-2.88768 1.30048-5.12 3.7888-5.9904 6.66624l-10.48576 34.62144c-0.90112 2.97984-0.24576 6.0416 1.75104 8.18176 2.0992 2.2528 5.3248 3.15392 8.62208 2.39616l15.94368-3.6352c0.89088-0.2048 1.88416-0.08192 2.11968 0.68608 0.49152 1.5872 1.10592 3.13344 1.81248 4.608 0.32768 0.68608-0.1024 2.05824-1.36192 3.08224l-57.43616 46.61248c-5.18144-7.10656-9.1648-15.0528-11.85792-23.67488-13.60896-43.60192 8.15104-96.11264 53.0432-129.024z m589.27104 42.17856c-19.46624-46.0288-47.33952-87.35744-82.83136-122.85952-35.49184-35.49184-76.83072-63.36512-122.84928-82.83136-47.65696-20.15232-98.27328-30.37184-150.44608-30.37184s-102.78912 10.21952-150.44608 30.37184c-46.0288 19.46624-87.35744 47.33952-122.84928 82.83136-35.49184 35.49184-63.36512 76.83072-82.83136 122.85952-20.15232 47.65696-30.37184 98.27328-30.37184 150.44608s10.21952 102.78912 30.37184 150.44608c19.46624 46.0288 47.33952 87.35744 82.83136 122.84928s76.83072 63.36512 122.84928 82.83136c47.65696 20.15232 98.27328 30.37184 150.44608 30.37184s102.78912-10.21952 150.44608-30.37184c46.0288-19.46624 87.35744-47.33952 122.84928-82.83136s63.36512-76.83072 82.83136-122.84928c20.15232-47.65696 30.37184-98.27328 30.37184-150.44608s-10.21952-102.79936-30.37184-150.44608zM512.03072 890.29632c-208.59904 0-378.3168-169.70752-378.3168-378.3168S303.40096 133.6832 512 133.6832 890.3168 303.39072 890.3168 512 720.60928 890.3168 512 890.3168z m97.67936-103.0656c-4.82304-1.54624-9.74848-1.97632-13.8752-1.2288-4.95616 0.91136-8.47872 3.54304-9.66656 7.23968l-9.18528 28.65152c-1.18784 3.69664 0.14336 7.89504 3.65568 11.50976 2.9184 3.01056 7.17824 5.51936 12.00128 7.0656 3.2768 1.05472 6.6048 1.5872 9.68704 1.5872 1.45408 0 2.85696-0.12288 4.17792-0.3584 4.66944-0.84992 8.0384-3.25632 9.40032-6.61504 0.1024-0.19456 0.18432-0.4096 0.256-0.62464l9.18528-28.65152c1.18784-3.69664-0.14336-7.89504-3.65568-11.50976-2.9184-3.01056-7.17824-5.51936-12.00128-7.0656z m-4.66944 46.41792c-2.78528 0.512-6.38976 0.1536-9.90208-0.9728-3.51232-1.1264-6.656-2.93888-8.62208-4.9664-1.44384-1.49504-1.91488-2.7648-1.73056-3.30752 0.26624-0.83968 2.5088-1.91488 6.11328-1.91488 1.98656 0 4.39296 0.32768 7.12704 1.19808 7.65952 2.4576 10.77248 6.97344 10.35264 8.27392-0.17408 0.55296-1.29024 1.31072-3.33824 1.67936z m12.52352-30.34112l-6.00064 18.71872c-2.7648-2.52928-6.53312-4.70016-11.03872-6.144-4.5056-1.44384-8.83712-1.87392-12.55424-1.42336l6.00064-18.71872c0.17408-0.55296 1.29024-1.31072 3.33824-1.67936 2.78528-0.512 6.38976-0.1536 9.90208 0.9728 3.51232 1.1264 6.656 2.93888 8.62208 4.9664 1.44384 1.49504 1.91488 2.7648 1.7408 3.30752z m82.86208-521.43104c0.6144 1.00352 1.6384 1.6896 2.79552 1.88416 1.44384 0.24576 6.01088 0.94208 11.008 0.94208 4.48512 0 9.30816-0.5632 12.50304-2.53952 7.68-4.75136 10.60864-13.99808 6.52288-20.60288-2.03776-3.28704-5.5808-5.4784-9.73824-6.02112-3.8912-0.50176-8.01792 0.44032-11.61216 2.6624-6.74816 4.17792-11.1104 17.664-11.91936 20.3264-0.33792 1.1264-0.18432 2.34496 0.44032 3.33824z m15.79008-16.70144c1.96608-1.21856 4.2496-1.76128 6.2464-1.50528 0.99328 0.13312 2.816 0.58368 3.81952 2.2016 1.67936 2.7136-0.09216 6.98368-3.86048 9.32864-2.27328 1.40288-7.91552 1.50528-12.9536 1.08544 1.86368-4.6592 4.5056-9.728 6.74816-11.1104z m84.61312 101.19168c0.26624 0.02048 0.53248 0.03072 0.79872 0.03072 7.41376 0 13.76256-6.7584 14.32576-15.4624 0.52224-7.91552-7.936-19.3024-9.6256-21.504-0.7168-0.93184-1.80224-1.50528-2.97984-1.5872-1.1776-0.08192-2.32448 0.3584-3.15392 1.18784-1.97632 1.96608-11.83744 12.15488-12.34944 20.0704-0.59392 9.02144 5.23264 16.76288 12.98432 17.27488z m-4.8128-16.73216c0.17408-2.6624 3.36896-7.3216 6.63552-11.18208 2.73408 4.2496 5.30432 9.28768 5.13024 11.95008-0.28672 4.43392-3.24608 7.9872-6.42048 7.79264-3.18464-0.2048-5.64224-4.12672-5.34528-8.56064z m-79.6672 422.15424c-1.16736-0.07168-2.32448 0.3584-3.15392 1.18784-1.97632 1.96608-11.8272 12.15488-12.34944 20.0704-0.59392 9.0112 5.23264 16.76288 12.98432 17.27488 0.26624 0.02048 0.53248 0.03072 0.79872 0.03072 7.41376 0 13.76256-6.74816 14.32576-15.4624 0.52224-7.91552-7.936-19.3024-9.63584-21.504-0.7168-0.93184-1.80224-1.50528-2.97984-1.5872z m4.43392 22.55872c-0.28672 4.43392-3.21536 8.00768-6.42048 7.79264-3.18464-0.2048-5.64224-4.12672-5.34528-8.56064 0.17408-2.6624 3.36896-7.33184 6.63552-11.18208 2.73408 4.2496 5.30432 9.28768 5.13024 11.95008zM208.72192 684.1344c-1.1776-0.07168-2.32448 0.3584-3.15392 1.18784-1.97632 1.96608-11.83744 12.15488-12.34944 20.0704-0.59392 9.0112 5.23264 16.76288 12.98432 17.27488 0.26624 0.02048 0.53248 0.03072 0.79872 0.03072 7.41376 0 13.76256-6.74816 14.32576-15.4624 0.52224-7.91552-7.936-19.3024-9.6256-21.504-0.7168-0.93184-1.80224-1.50528-2.97984-1.5872z m4.43392 22.55872c-0.28672 4.43392-3.20512 7.99744-6.42048 7.79264-3.18464-0.2048-5.64224-4.12672-5.34528-8.56064 0.174" p-id="1752"></path></svg>