<?xml version="1.0" standalone="no"?><!DOCTYPE svg PUBLIC "-//W3C//DTD SVG 1.1//EN" "http://www.w3.org/Graphics/SVG/1.1/DTD/svg11.dtd"><svg t="1692877773299" class="icon" viewBox="0 0 1024 1024" version="1.1" xmlns="http://www.w3.org/2000/svg" p-id="1726" xmlns:xlink="http://www.w3.org/1999/xlink" width="200" height="200"><path d="M805.376 629.9648l17.7152-63.5904c-50.8928-41.3696-129.8432-67.8912-218.5216-67.8912H419.4304c-98.304 0-184.7296 32.6656-234.0864 81.92l-2.2528 2.3552s-28.4672-31.744-44.4416-9.4208c-15.9744 22.3232 18.3296 44.544 18.3296 44.544 0 0.1024 0 0.2048-0.1024 0.3072l3.8912-6.7584-3.8912 6.7584c-4.3008 19.1488-6.5536 22.1184-6.5536 42.5984 0 12.1856 2.3552 23.7568 6.5536 34.4064h562.7904c39.936 0 74.9568-26.624 85.7088-65.2288z" fill="#FFFFFF" p-id="1727"></path><path d="M870.4 685.8752c2.2528-7.9872 3.3792-16.384 3.3792-25.088 0-20.5824-2.2528-23.6544-6.656-42.9056-10.24-18.7392-25.1904-36.1472-44.032-51.4048l-17.7152 63.5904C794.624 668.672 759.5008 695.296 719.5648 695.296H156.7744c13.7216 34.4064 47.3088 58.7776 86.6304 58.7776h537.1904c31.0272 0 58.5728-15.1552 75.5712-38.6048 52.4288 47.104 79.4624-28.8768 14.2336-29.5936z" fill="#FDF7E5" p-id="1728"></path><path d="M695.9104 580.3008c-22.9376-19.968-45.4656 14.9504-45.4656 14.9504s-8.2944 11.9808 4.4032 25.7024 25.088 3.2768 25.088 3.2768 39.0144-23.9616 15.9744-43.9296zM316.8256 619.9296c-24.576 15.36 4.8128 54.8864 4.8128 54.8864s-30.3104-15.6672-40.6528 2.048c-10.3424 17.6128 20.992 27.648 20.992 27.648s23.04 5.2224 26.4192-23.4496c31.232 7.7824 26.3168-23.3472 26.3168-23.3472s-13.312-53.1456-37.888-37.7856z" fill="#FFFFFF" p-id="1729"></path><path d="M270.4384 457.9328c33.3824-10.4448 73.3184-19.1488 121.2416-24.6784l-14.6432-58.2656c-1.4336-5.7344 0.3072-11.776 4.5056-15.9744l60.5184-59.2896h-32.9728c-59.8016 0-115.712 16.9984-163.0208 46.4896l-6.3488 57.9584c-0.4096 3.8912 0.512 7.68 2.6624 10.9568l28.0576 42.8032zM638.2592 431.8208c47.4112 4.9152 87.2448 12.6976 120.5248 22.4256l-3.1744-41.5744c-0.8192-9.9328 7.3728-18.3296 17.3056-17.92l67.584 2.9696c-41.2672-44.1344-95.3344-76.1856-156.3648-90.2144L629.1456 357.376c-4.5056 4.096-6.4512 10.3424-5.0176 16.2816l14.1312 58.1632zM455.2704 427.9296c20.8896-1.1264 42.9056-1.6384 66.2528-1.6384 18.3296 0 35.84 0.4096 52.6336 1.024l-13.7216-53.76c-1.536-5.8368 0.3072-12.0832 4.7104-16.2816l61.0304-57.2416c-3.6864-0.1024-7.4752-0.2048-11.1616-0.2048H505.856l-58.88 57.6512c-4.1984 4.096-5.9392 10.0352-4.608 15.6672l12.9024 54.784zM199.3728 487.7312l-16.896-25.8048c-2.1504-3.1744-3.072-7.0656-2.6624-10.9568l5.7344-52.9408 60.416-51.712c-76.5952 47.7184-130.7648 128-143.1552 221.4912-1.3312 9.8304-1.1264 19.6608 0.3072 29.3888 4.096-18.6368 21.6064-68.4032 96.256-109.4656z" fill="#FF9A4E" p-id="1730"></path><path d="M628.6336 300.1344l55.5008 7.4752c-18.0224-4.096-36.5568-6.656-55.5008-7.4752zM840.6016 397.824l47.3088 66.3552c-12.8-24.2688-28.7744-46.4896-47.3088-66.3552zM826.368 480.256c56.9344 28.5696 82.944 62.8736 94.8224 88.1664-4.8128-37.2736-16.384-72.3968-33.28-104.2432l-39.5264-16.1792c-11.264-4.608-23.552 4.096-22.9376 16.1792l0.9216 16.0768z" fill="#FF9A4E" p-id="1731"></path><path d="M574.1568 427.3152c-16.6912-0.7168-34.304-1.024-52.6336-1.024-23.3472 0-45.4656 0.6144-66.2528 1.6384l16.0768 68.5056H407.552l-15.872-63.1808c-47.9232 5.632-87.8592 14.2336-121.2416 24.6784l36.5568 55.7056c34.4064-9.728 72.4992-15.1552 112.5376-15.1552h185.1392c6.2464 0 12.3904 0.1024 18.432 0.4096l-31.232-2.4576-17.7152-69.12zM826.368 480.256l4.7104 92.9792c15.1552 13.6192 27.3408 28.5696 36.0448 44.6464-0.1024-0.4096-0.2048-0.8192-0.3072-1.3312 0.1024 0.4096 0.2048 0.8192 0.3072 1.3312 2.9696 5.5296 5.5296 11.0592 7.68 16.7936 5.12 13.6192 23.552 15.5648 31.1296 3.1744l0.2048-0.3072c12.6976-20.6848 18.0224-45.056 15.0528-69.12-11.8784-25.3952-37.888-59.5968-94.8224-88.1664zM199.3728 487.7312c-74.5472 41.0624-92.16 90.9312-96.1536 109.4656 2.1504 14.1312 7.0656 27.8528 14.6432 40.3456l0.2048 0.3072c7.5776 12.3904 26.0096 10.4448 31.1296-3.1744 1.8432-4.9152 3.9936-9.728 6.4512-14.4384l1.2288-2.048c0-0.1024 0-0.2048 0.1024-0.3072 0 0-34.2016-22.3232-18.3296-44.544 15.9744-22.3232 44.4416 9.4208 44.4416 9.4208l2.2528-2.3552c13.9264-13.9264 30.9248-26.5216 50.2784-37.4784l-36.2496-55.1936zM758.8864 454.2464c-33.28-9.728-73.1136-17.5104-120.5248-22.4256l16.7936 69.632c40.2432 4.7104 77.5168 15.0528 109.7728 29.5936h-0.1024l-5.9392-76.8z" fill="#FF822E" p-id="1732"></path><path d="M830.976 573.2352c-18.2272-16.2816-40.5504-30.6176-66.1504-42.1888l66.1504 42.1888zM888.0128 464.1792c-0.1024 0-0.1024 0 0 0zM840.6016 397.824z" fill="#FFEEC7" p-id="1733"></path><path d="M758.8864 454.2464c26.3168 7.68 48.64 16.4864 67.4816 26.0096l-0.8192-16.0768c-0.6144-12.1856 11.6736-20.8896 22.9376-16.1792l39.5264 16.1792-47.4112-66.3552-67.584-2.9696c-9.9328-0.4096-18.1248 7.9872-17.3056 17.92l3.1744 41.472z" fill="#FFD092" p-id="1734"></path><path d="M826.368 480.256c-18.944-9.4208-41.1648-18.3296-67.4816-26.0096l5.9392 76.6976h0.1024c25.6 11.5712 47.9232 25.8048 66.1504 42.1888L826.368 480.256z" fill="#FFB852" p-id="1735"></path><path d="M626.3808 299.8272l-0.2048 0.2048c0.8192 0 1.6384 0 2.56 0.1024l-2.3552-0.3072zM655.1552 501.4528c-10.5472-1.2288-21.1968-2.048-32.1536-2.56l32.1536 2.56zM684.2368 307.6096h-0.1024 0.1024z" fill="#FFEEC7" p-id="1736"></path><path d="M574.1568 427.3152l17.7152 69.12 31.232 2.4576c10.8544 0.512 21.6064 1.3312 32.1536 2.56l-16.7936-69.5296c-20.1728-2.1504-41.5744-3.6864-64.3072-4.608z" fill="#FFB852" p-id="1737"></path><path d="M574.1568 427.3152c22.8352 0.9216 44.2368 2.4576 64.2048 4.5056l-14.0288-58.1632c-1.4336-5.9392 0.512-12.1856 5.0176-16.2816l54.8864-49.7664v-0.1024L628.736 300.032c-0.8192 0-1.6384-0.1024-2.56-0.1024l-61.0304 57.2416c-4.4032 4.096-6.2464 10.3424-4.7104 16.2816l13.7216 53.8624zM391.68 433.2544c19.7632-2.3552 40.96-4.096 63.488-5.3248L442.368 373.1456c-1.3312-5.632 0.4096-11.5712 4.608-15.6672l58.88-57.6512h-63.6928l-60.5184 59.2896c-4.1984 4.096-5.9392 10.24-4.5056 15.9744l14.5408 58.1632z" fill="#FFD092" p-id="1738"></path><path d="M407.552 496.4352h63.6928l-16.0768-68.5056c-22.6304 1.2288-43.7248 2.9696-63.488 5.3248l15.872 63.1808z" fill="#FFB852" p-id="1739"></path><path d="M306.9952 513.6384c-26.112 7.3728-50.176 17.3056-71.3728 29.2864l71.3728-29.2864zM246.0672 346.3168c-0.1024 0 0 0 0 0z" fill="#FFEEC7" p-id="1740"></path><path d="M199.3728 487.7312l36.2496 55.1936c21.1968-11.9808 45.1584-21.9136 71.3728-29.2864l-36.5568-55.7056c-28.16 8.8064-51.6096 19.0464-71.0656 29.7984z" fill="#FFB852" p-id="1741"></path><path d="M182.4768 461.9264l16.896 25.8048c19.5584-10.752 42.9056-20.8896 71.0656-29.696l-28.0576-42.8032c-2.1504-3.1744-3.072-7.0656-2.6624-10.9568l6.3488-57.9584-60.416 51.8144-5.7344 52.9408c-0.512 3.7888 0.4096 7.5776 2.56 10.8544z" fill="#FFD092" p-id="1742"></path><path d="M882.7904 676.6592c0.8192-5.2224 1.2288-10.5472 1.2288-15.872 0-1.9456 0-3.6864-0.1024-5.4272 1.536 0.4096 3.072 0.7168 4.7104 0.8192 10.5472 1.024 20.5824-3.9936 26.112-13.0048l0.2048-0.3072c14.0288-22.9376 19.8656-50.0736 16.384-76.3904-10.0352-76.0832-47.4112-146.0224-105.1648-197.12-58.2656-51.5072-133.3248-79.872-211.1488-79.872h-205.824c-77.824 0-152.8832 28.3648-211.1488 79.872-57.7536 50.9952-95.1296 121.0368-105.1648 197.12-3.4816 26.3168 2.3552 53.4528 16.384 76.3904l0.2048 0.3072c5.5296 9.0112 15.5648 14.0288 26.112 13.1072 1.6384-0.2048 3.1744-0.4096 4.7104-0.8192 0 1.6384-0.1024 3.4816-0.1024 5.4272 0 57.0368 46.3872 103.424 103.424 103.424h537.1904c29.4912 0 57.5488-12.6976 77.1072-34.5088 24.9856 17.8176 42.3936 9.8304 47.616 6.656 11.1616-6.8608 16.1792-20.0704 12.5952-32.8704-1.8432-5.7344-8.8064-22.6304-35.328-26.9312z m-743.2192-45.568c-1.4336 3.8912-4.8128 4.608-6.144 4.8128-1.3312 0.1024-4.608 0-6.656-3.3792l-0.2048-0.3072c-11.5712-18.944-16.384-41.3696-13.5168-62.976 19.5584-147.7632 146.8416-259.1744 296.0384-259.1744h205.824c149.2992 0 276.5824 111.4112 296.0384 259.1744 2.8672 21.7088-1.9456 44.032-13.5168 62.976l-0.2048 0.3072c-2.048 3.3792-5.3248 3.4816-6.656 3.3792-1.3312-0.1024-4.7104-0.8192-6.144-4.8128-2.1504-5.632-4.608-11.264-7.5776-16.7936-0.512-1.9456-1.4336-3.6864-2.8672-5.0176-18.5344-31.744-50.176-60.0064-91.4432-81.1008-51.0976-26.112-112.64-39.936-177.9712-39.936H419.4304c-94.9248 0-182.6816 29.9008-236.544 80.2816-7.4752-6.2464-19.2512-14.0288-31.5392-13.4144-5.8368 0.3072-14.2336 2.6624-21.0944 12.1856-5.3248 7.3728-7.168 15.7696-5.632 24.3712 2.3552 12.8 12.1856 23.1424 19.2512 29.184-1.536 3.3792-2.9696 6.7584-4.3008 10.24z m754.7904 87.8592c-5.4272 3.3792-16.4864 2.1504-31.4368-11.264-2.1504-1.9456-5.0176-2.8672-7.8848-2.56s-5.5296 1.8432-7.168 4.1984c-15.5648 21.504-40.7552 34.304-67.2768 34.304H243.4048c-45.7728 0-82.944-37.1712-82.944-82.944 0-14.6432 1.1264-19.2512 3.6864-29.3888 0.8192-3.1744 1.7408-6.7584 2.7648-11.3664 0.9216-4.1984-0.8192-8.4992-4.4032-10.8544-4.096-2.6624-15.9744-12.288-17.7152-21.504-0.512-3.072 0.1024-5.7344 2.1504-8.6016 2.2528-3.072 3.9936-3.584 5.5296-3.6864h0.512c7.3728 0 18.3296 9.3184 22.528 14.0288 1.8432 2.1504 4.608 3.3792 7.3728 3.3792s5.5296-1.024 7.5776-3.072l2.2528-2.2528c49.5616-49.4592 134.3488-78.9504 226.9184-78.9504h185.1392c61.2352 0 121.1392 13.4144 168.6528 37.6832 38.7072 19.7632 67.9936 46.08 84.2752 75.264 0.8192 3.1744 1.4336 5.9392 2.048 8.4992 2.6624 10.6496 3.8912 15.5648 3.8912 30.72 0 7.5776-1.024 15.0528-3.072 22.3232-0.8192 3.072-0.2048 6.3488 1.6384 8.9088 1.9456 2.56 4.9152 4.096 8.0896 4.096 17.92 0.2048 26.2144 6.8608 27.8528 12.9024 1.024 4.096-0.4096 8.0896-3.7888 10.1376zM713.3184 596.3776c-1.6384 19.7632-25.2928 34.9184-27.9552 36.5568-1.6384 1.024-3.4816 1.536-5.3248 1.536-3.4816 0-6.7584-1.7408-8.704-4.9152-2.9696-4.8128-1.4336-11.1616 3.3792-14.1312 7.0656-4.4032 17.8176-14.0288 18.3296-20.7872 0.1024-0.9216 0.2048-3.2768-3.6864-6.656-4.4032-3.7888-7.68-3.8912-9.728-3.584-8.192 1.1264-17.2032 11.4688-20.2752 16.384-3.072 4.8128-9.4208 6.144-14.1312 3.072s-6.144-9.4208-3.072-14.1312c1.536-2.3552 15.1552-22.7328 34.6112-25.4976 9.216-1.3312 18.3296 1.536 26.112 8.3968 9.5232 8.3968 10.9568 17.6128 10.4448 23.7568z m-348.672 58.88c1.3312 5.5296-1.9456 11.0592-7.4752 12.3904-5.5296 1.3312-11.0592-1.9456-12.3904-7.4752-2.8672-11.3664-10.5472-29.5936-17.8176-32.5632-0.7168-0.3072-1.9456-0.8192-4.7104 0.9216-2.7648 1.7408-4.1984 3.7888-4.7104 6.656-1.9456 10.1376 7.4752 26.9312 12.3904 33.4848 2.8672 3.7888 2.6624 9.1136-0.4096 12.6976s-8.2944 4.608-12.4928 2.4576c-4.3008-2.1504-22.6304-9.4208-27.0336-1.9456-0.9216 1.536-0.7168 2.048-0.6144 2.3552 1.3312 3.4816 9.4208 8.192 15.872 10.3424 5.3248 1.7408 8.2944 7.4752 6.5536 12.9024-1.4336 4.3008-5.4272 7.0656-9.728 7.0656-1.024 0-2.048-0.2048-3.072-0.512-3.7888-1.2288-23.1424-7.9872-28.672-22.528-1.7408-4.608-2.8672-11.776 2.048-20.0704 6.5536-11.1616 17.7152-14.1312 28.7744-13.312-3.1744-8.2944-5.3248-17.92-3.584-26.8288 1.6384-8.4992 6.4512-15.5648 14.0288-20.2752 9.6256-5.9392 17.92-4.7104 23.2448-2.56 19.2512 8.0896 28.16 40.3456 29.7984 46.7968z" p-id="1743"></path></svg>