<?xml version="1.0" standalone="no"?><!DOCTYPE svg PUBLIC "-//W3C//DTD SVG 1.1//EN" "http://www.w3.org/Graphics/SVG/1.1/DTD/svg11.dtd"><svg t="1692877465446" class="icon" viewBox="0 0 1024 1024" version="1.1" xmlns="http://www.w3.org/2000/svg" p-id="2992" xmlns:xlink="http://www.w3.org/1999/xlink" width="200" height="200"><path d="M512 512m-440.81152 0a440.81152 440.81152 0 1 0 881.62304 0 440.81152 440.81152 0 1 0-881.62304 0Z" fill="#CAEAFF" p-id="2993"></path><path d="M936.84736 394.0352c-14.77632 269.76256-204.6976 492.86144-458.00448 557.54752 10.94656 0.80896 22.00576 1.2288 33.15712 1.2288 243.456 0 440.81152-197.35552 440.81152-440.81152 0-40.8576-5.57056-80.41472-15.9744-117.9648z" fill="#76CEFF" p-id="2994"></path><path d="M512 512m-382.4128 0a382.4128 382.4128 0 1 0 764.8256 0 382.4128 382.4128 0 1 0-764.8256 0Z" fill="#FF9640" p-id="2995"></path><path d="M658.37056 650.33216s-9.45152 25.73312-184.65792 20.98176c-82.24768-2.23232-140.73856-10.77248-179.64032-19.21024l-0.5632 46.22336c1.39264 1.18784 2.93888 2.2528 4.608 3.14368 41.37984 22.08768 148.992 72.07936 265.8816 66.21184 39.74144 9.0624 102.03136 22.5792 102.03136 22.5792s37.91872-39.90528 63.37536-81.64352c6.00064-9.8304 10.91584-19.89632 15.06304-29.35808-28.28288 1.60768-59.81184-4.80256-86.07744-28.928z" fill="#212D2B" p-id="2996"></path><path d="M765.46048 633.62048c18.28864-12.07296 15.75936-49.7152 22.96832-55.10144 27.77088-20.76672 27.77088-66.5088 27.77088-66.5088s0-45.96736-29.81888-73.03168c-9.80992-48.5888-24.77056-58.05056-35.50208-46.03904 1.90464-98.97984-88.68864-161.66912-88.68864-161.66912s-57.7024 11.45856-102.79936 24.85248c-115.0976-4.352-220.43648 44.62592-261.2736 66.41664l-4.03456 329.58464c38.912 8.43776 97.39264 16.97792 179.64032 19.21024 175.2064 4.7616 184.65792-20.98176 184.65792-20.98176 26.2656 24.12544 57.8048 30.53568 86.07744 28.928 10.02496-22.82496 15.58528-42.07616 21.00224-45.64992z" fill="#384846" p-id="2997"></path><path d="M362.43456 412.27264m-34.79552 0a34.79552 34.79552 0 1 0 69.59104 0 34.79552 34.79552 0 1 0-69.59104 0Z" fill="#FFFFFF" p-id="2998"></path><path d="M362.43456 611.79904m-34.79552 0a34.79552 34.79552 0 1 0 69.59104 0 34.79552 34.79552 0 1 0-69.59104 0Z" fill="#FFFFFF" p-id="2999"></path><path d="M672.94208 451.93216s-92.71296 16.19968-169.89184 6.656c-174.81728-21.61664-204.93312-131.18464-204.93312-131.18464s-9.45152-12.63616-10.01472-13.9776c-4.0448-9.63584-15.11424-14.15168-24.75008-10.1376-9.64608 4.02432-14.20288 15.104-10.19904 24.76032 0.11264 0.27648 11.28448 27.58656 11.70432 60.04736 0.52224 40.27392-15.47264 70.06208-47.54432 88.54528-9.0624 5.2224-12.17536 16.80384-6.95296 25.87648 3.50208 6.08256 9.8816 9.49248 16.4352 9.49248-6.5536 0-12.92288 3.39968-16.4352 9.49248-5.2224 9.0624-2.10944 20.64384 6.95296 25.87648 32.08192 18.4832 48.0768 48.2816 47.54432 88.54528-0.41984 32.45056-11.59168 59.77088-11.70432 60.04736-4.00384 9.64608 0.5632 20.736 10.19904 24.76032 9.64608 4.02432 20.70528-0.50176 24.75008-10.1376 0.32768-0.78848 10.01472-27.83232 10.01472-27.83232s50.08384-81.98144 146.80064-106.1888c105.02144-26.27584 218.35776-5.91872 218.35776-5.91872l12.09344-58.64448-2.43712-60.06784z" fill="#FDF7E5" p-id="3000"></path><path d="M421.81632 304.64s-17.96096 21.46304-16.55808 45.71136c17.14176 17.664 45.71136 16.55808 45.71136 16.55808s17.39776-21.06368 16.55808-45.71136c-13.2096-16.87552-45.71136-16.55808-45.71136-16.55808z" fill="#E01E22" p-id="3001"></path><path d="M543.8464 130.9184a385.59744 385.59744 0 0 0-31.8464-1.3312c-206.91968 0-375.41888 164.34176-382.17728 369.6128 62.8224-185.25184 219.84256-327.02464 414.02368-368.2816z" fill="#FFD14F" p-id="3002"></path><path d="M587.776 570.09152c-2.23232 10.92608 2.46784 22.82496 7.48544 31.71328 26.03008-4.7104 45.76256-18.0224 52.6336-23.18336-4.82304-14.91968-14.57152-25.53856-14.57152-25.53856s-27.32032 0.39936-45.54752 17.00864z" fill="#E01E22" p-id="3003"></path><path d="M604.78464 615.64928s27.98592-0.22528 45.54752-17.00864c0.68608-7.10656-0.47104-13.91616-2.43712-20.00896-6.8608 5.15072-26.59328 18.47296-52.6336 23.18336 4.61824 8.192 9.51296 13.83424 9.51296 13.83424zM550.42048 651.20256c0.53248 9.97376 2.68288 17.80736 2.68288 17.80736s25.33376 11.8784 48.4352 4.32128c4.20864-6.99392 6.0928-14.67392 6.74816-21.82144-11.6224 2.58048-41.05216 7.87456-57.86624-0.31744z" fill="#BF000A" p-id="3004"></path><path d="M605.85984 624.90624s-24.82176-11.43808-48.4352-4.32128c-6.46144 8.54016-7.54688 20.64384-7.0144 30.6176 16.81408 8.192 46.24384 2.89792 57.86624 0.31744 1.31072-14.39744-2.41664-26.61376-2.41664-26.61376zM517.0176 590.05952c-16.9472-13.11744-48.384-4.84352-48.384-4.84352s-6.36928 13.23008-7.10656 29.3376c26.92096 11.2128 45.73184 10.57792 55.6032 8.73472 2.08896-9.15456 3.33824-21.31968-0.11264-33.2288z" fill="#E01E22" p-id="3005"></path><path d="M461.52704 614.56384c-0.27648 6.12352 0.256 12.65664 2.26304 19.0464 20.95104 12.92288 48.384 4.84352 48.384 4.84352s2.88768-6.10304 4.95616-15.1552c-9.87136 1.8432-28.68224 2.47808-55.6032-8.73472zM616.01792 684.1856c-0.09216 5.55008 0.52224 11.38688 2.32448 17.1008 20.95104 12.92288 48.384 4.84352 48.384 4.84352s4.52608-9.56416 6.2976-22.50752c-12.72832 4.096-32.256 7.05536-57.00608 0.55296z" fill="#BF000A" p-id="3006"></path><path d="M671.55968 657.74592c-16.9472-13.11744-48.384-4.84352-48.384-4.84352s-6.89152 14.31552-7.168 31.27296c24.75008 6.5024 44.27776 3.54304 57.00608-0.55296 1.0752-7.84384 1.1264-16.93696-1.45408-25.87648zM684.5952 593.22368c12.98432-1.20832 26.46016-9.10336 32.1536-12.8-0.0512-4.9664-0.6656-10.1376-2.1504-15.26784-16.9472-13.11744-48.384-4.84352-48.384-4.84352s-5.0176 10.42432-6.656 24.02304c6.52288 4.74112 15.7696 9.74848 25.0368 8.88832z" fill="#E01E22" p-id="3007"></path><path d="M684.5952 593.22368c-9.2672 0.86016-18.52416-4.13696-25.0368-8.88832-0.91136 7.55712-0.78848 16.08704 1.82272 24.36096 20.95104 12.92288 48.384 4.84352 48.384 4.84352s7.17824-15.1552 6.99392-33.11616c-5.69344 3.69664-19.16928 11.59168-32.1536 12.8z" fill="#BF000A" p-id="3008"></path><path d="M428.51328 505.2416c-21.06368 3.9424-35.76832 32.93184-35.76832 32.93184s2.49856 5.9904 7.55712 13.312c23.59296 2.48832 45.06624-2.3552 59.29984-7.05536 1.21856-2.0992 1.8432-3.40992 1.8432-3.40992s-10.68032-25.14944-32.93184-35.76832z" fill="#E01E22" p-id="3009"></path><path d="M400.30208 551.48544c5.44768 7.8848 13.8752 17.3056 25.37472 22.46656 18.2784-5.4784 29.71648-22.26176 33.93536-29.52192-14.2336 4.70016-35.71712 9.55392-59.29984 7.05536z" fill="#BF000A" p-id="3010"></path><path d="M501.87264 681.74848c0.43008 10.46528 2.73408 18.87232 2.73408 18.87232s25.33376 11.8784 48.4352 4.32128c4.11648-6.83008 6.01088-14.32576 6.69696-21.32992-23.08096-0.09216-42.14784-0.79872-57.86624-1.87392zM469.30944 706.048c14.76608-4.42368 25.06752-16.2304 30.69952-24.43264-36.72064-2.60096-54.7328-7.168-63.1808-10.31168 2.2528 4.864 12.92288 25.97888 32.48128 34.74432z" fill="#BF000A" p-id="3011"></path><path d="M557.3632 656.51712s-24.82176-11.43808-48.4352-4.32128c-3.47136 4.58752-5.38624 10.20928-6.33856 15.9744-4.33152-7.87456-14.35648-23.1424-30.45376-30.8224-21.06368 3.9424-35.76832 32.93184-35.76832 32.93184s0.1536 0.36864 0.4608 1.024c8.448 3.15392 26.46016 7.72096 63.1808 10.31168 0.6656-0.96256 1.82272-0.80896 1.86368 0.12288 15.7184 1.06496 34.77504 1.77152 57.86624 1.87392 1.44384-14.61248-2.37568-27.10528-2.37568-27.10528zM576.48128 593.57184c3.87072-5.44768 5.84704-9.61536 5.84704-9.61536s-10.68032-25.14944-32.93184-35.76832c-21.06368 3.9424-35.76832 32.93184-35.76832 32.93184s2.31424 5.55008 7.00416 12.4928c13.12768 1.6384 38.44096 3.90144 55.8592-0.04096z" fill="#E01E22" p-id="3012"></path><path d="M520.62208 593.6128c5.4272 8.0384 14.03904 17.95072 25.93792 23.27552 14.11072-4.22912 24.14592-15.19616 29.92128-23.31648-17.41824 3.9424-42.73152 1.66912-55.8592 0.04096z" fill="#BF000A" p-id="3013"></path><path d="M746.19904 498.76992c-5.07904-11.55072-12.1856-19.29216-12.1856-19.29216s-27.32032 0.39936-45.55776 17.00864c-1.98656 9.728 1.51552 20.21376 5.84704 28.672 5.9904-0.6144 17.14176-2.58048 30.18752-8.83712 8.99072-4.31104 16.36352-11.28448 21.69856-17.55136z" fill="#E01E22" p-id="3014"></path><path d="M724.50048 516.33152c-13.04576 6.25664-24.19712 8.22272-30.18752 8.83712 5.0176 9.79968 11.15136 16.87552 11.15136 16.87552s27.98592-0.22528 45.54752-17.00864c0.9216-9.64608-1.52576-18.75968-4.82304-26.2656-5.34528 6.26688-12.70784 13.24032-21.69856 17.55136zM617.43104 501.90336c5.20192 12.1344 13.34272 21.54496 13.34272 21.54496s27.98592-0.22528 45.55776-17.00864c0.55296-5.75488-0.1024-11.30496-1.41312-16.44544-4.98688 3.45088-12.86144 7.43424-24.41216 9.56416-10.41408 1.91488-23.93088 2.32448-33.0752 2.3552z" fill="#BF000A" p-id="3015"></path><path d="M607.17056 501.76s4.15744 0.1536 10.26048 0.14336c-0.33792-0.78848-0.6656-1.57696-0.9728-2.38592l-9.28768 2.24256zM681.95328 483.6864l-8.30464 2.00704c0.47104 1.39264 0.89088 2.82624 1.26976 4.29056 4.93568-3.40992 7.03488-6.2976 7.03488-6.2976z" fill="#E01E22" p-id="3016"></path><path d="M673.64864 485.69344c-4.89472-14.5408-14.32576-24.81152-14.32576-24.81152s-27.32032 0.39936-45.54752 17.00864c-1.46432 7.168 0.0512 14.7456 2.68288 21.62688 0.3072 0.80896 0.63488 1.59744 0.9728 2.38592 9.15456-0.02048 22.66112-0.44032 33.0752-2.3552 11.55072-2.11968 19.42528-6.11328 24.41216-9.56416-0.36864-1.46432-0.79872-2.89792-1.26976-4.29056zM613.20192 409.16992c11.2128-1.97632 20.4288-8.76544 25.78432-13.6192-5.04832-13.45536-13.59872-22.77376-13.59872-22.77376s-27.32032 0.39936-45.54752 17.00864c-1.34144 6.58432-0.17408 13.5168 2.06848 19.93728 6.00064 0.73728 18.40128 1.72032 31.30368-0.55296z" fill="#E01E22" p-id="3017"></path><path d="M613.20192 409.16992c-12.9024 2.27328-25.30304 1.29024-31.30368 0.55296 4.90496 14.04928 14.94016 25.62048 14.94016 25.62048s27.98592-0.22528 45.54752-17.00864c0.78848-8.20224-0.86016-16.01536-3.39968-22.784-5.35552 4.85376-14.56128 11.64288-25.78432 13.6192z" fill="#BF000A" p-id="3018"></path><path d="M576.31744 428.38016c1.59744-6.78912 1.82272-11.64288 1.82272-11.64288s-19.51744-19.11808-44.15488-20.36736c-9.09312 5.95968-14.20288 17.23392-17.02912 26.90048 13.81376 11.8272 48.96768 6.89152 59.36128 5.12z" fill="#E01E22" p-id="3019"></path><path d="M516.95616 423.26016c-2.74432 9.39008-3.33824 17.2544-3.33824 17.2544s19.8656 19.712 44.15488 20.36736c11.20256-9.1648 16.27136-22.81472 18.54464-32.50176-10.38336 1.78176-45.54752 6.7072-59.36128-5.12z" fill="#BF000A" p-id="3020"></path><path d="M502.84544 411.56608c-4.10624-6.95296-8.04864-11.24352-8.04864-11.24352s-27.32032 0.39936-45.55776 17.00864c-0.99328 4.84352-0.60416 9.87136 0.54272 14.7456 14.4896 0.50176 38.912-1.792 53.05344-20.50048z" fill="#E01E22" p-id="3021"></path><path d="M502.84544 411.56608c-14.14144 18.70848-38.56384 21.01248-53.05344 20.50048 3.86048 16.27136 16.45568 30.81216 16.45568 30.81216s27.98592-0.22528 45.55776-17.00864c1.29024-13.44512-3.96288-25.856-8.96-34.31424z" fill="#BF000A" p-id="3022"></path><path d="M523.1104 327.40352c-18.44224 10.91584-22.33344 43.19232-22.33344 43.19232s4.02432 4.36224 10.71104 9.23648c14.62272-1.18784 38.18496-14.08 53.69856-23.5008 0.8704-4.00384 1.10592-6.59456 1.10592-6.59456s-18.64704-19.97824-43.19232-22.33344z" fill="#E01E22" p-id="3023"></path><path d="M543.96928 392.92928c13.79328-10.2912 19.21024-27.2896 21.22752-36.59776-15.5136 9.43104-39.08608 22.31296-53.69856 23.5008 7.85408 5.72416 19.39456 12.15488 32.48128 13.09696zM433.75616 388.79232c0.77824 5.03808 1.6896 8.35584 1.6896 8.35584s25.33376 11.8784 48.4352 4.32128c3.34848-5.56032 5.2224-11.56096 6.18496-17.37728-17.00864 5.14048-39.55712 5.44768-56.29952 4.70016z" fill="#BF000A" p-id="3024"></path><path d="M488.20224 353.03424s-24.81152-11.43808-48.4352-4.32128c-8.73472 11.54048-7.63904 29.58336-6.01088 40.07936 16.7424 0.74752 39.29088 0.44032 56.29952-4.70016 2.67264-16.2304-1.85344-31.04768-1.85344-31.04768z" fill="#E01E22" p-id="3025"></path><path d="M620.38016 349.45024c-0.41984-0.04096-0.8192-0.07168-1.2288-0.11264 17.26464 15.79008 43.85792 14.76608 43.85792 14.76608s13.52704-16.39424 16.14848-37.1712c-15.2576 10.0352-40.46848 24.24832-58.7776 22.51776z" fill="#BF000A" p-id="3026"></path><path d="M679.15776 326.93248c0.34816-2.78528 0.512-5.632 0.4096-8.54016-13.2096-16.87552-45.71136-16.55808-45.71136-16.55808s-17.96096 21.46304-16.55808 45.71136c0.60416 0.62464 1.2288 1.21856 1.85344 1.792 0.4096 0.04096 0.80896 0.07168 1.2288 0.11264 18.31936 1.73056 43.53024-12.47232 58.7776-22.51776z" fill="#E01E22" p-id="3027"></path><path d="M504.23808 279.76704c19.51744 2.68288 27.392 5.31456 38.43072 3.08224-1.97632-2.18112-3.50208-4.67968-4.37248-7.53664 0 0-0.50176-6.67648 3.92192-10.30144 4.41344-3.62496-0.16384-10.0352-2.47808-9.18528-2.31424 0.84992 1.6896-6.78912-2.34496-7.99744s-7.24992 2.22208-7.24992 2.22208 2.82624-5.81632-4.352-6.38976c-7.17824-0.57344-10.11712 14.08-10.11712 14.08s-2.05824-5.62176-1.6896-12.07296c0.36864-6.4512 2.01728-12.36992-0.98304-13.49632-3.01056-1.1264-8.84736-1.7408-8.84736-1.7408s-2.9696-5.25312-7.33184-2.3552-6.53312 6.11328-6.53312 6.11328-7.58784-0.90112-9.27744 3.5328c-1.67936 4.43392 7.168 19.1488 7.168 19.1488s-5.25312-2.48832-12.4416-8.50944c-7.17824-6.03136-10.93632-10.752-12.9536-9.44128-2.01728 1.31072-3.6352 4.864-3.6352 4.864s-2.2016-3.86048-5.72416-0.3072-1.97632 6.32832-1.97632 6.32832-3.2256 1.65888-2.00704 4.85376 36.21888 18.96448 36.21888 18.96448-4.48512-1.09568-16.40448-1.31072c-11.91936-0.21504-14.47936 4.1472-13.09696 5.29408l1.3824 1.14688s0 0.79872 0.23552 1.82272c13.0048-1.50528 31.50848-2.84672 46.45888-0.79872z" fill="#68E077" p-id="3028"></path><path d="M583.13728 297.59488c-10.51648-0.96256-30.90432-4.17792-40.46848-14.73536-11.03872 2.22208-18.91328-0.4096-38.43072-3.08224-14.9504-2.05824-33.45408-0.70656-46.45888 0.79872 0.47104 2.03776 1.93536 4.97664 6.49216 4.46464 0.90112 7.14752 10.43456-1.52576 22.08768 0.29696 8.30464 1.29024 12.96384 1.92512 12.96384 1.92512s-3.46112 0.90112-12.9024 4.72064c-9.44128 3.80928-12.73856 6.3488-9.19552 8.11008 3.54304 1.76128-0.768 9.66656 10.25024 8.192 11.02848-1.47456 11.14112 10.02496 17.80736 4.07552s9.70752-20.00896 26.42944-18.96448c5.44768 0.33792 7.45472 8.11008 25.50784 12.8 10.17856 2.64192 18.87232 3.9936 24.51456 4.66944 3.75808 0.45056 7.13728-2.304 7.43424-6.08256 0.28672-3.6352-2.38592-6.83008-6.02112-7.15776zM469.48352 497.69472c-8.35584-2.83648-28.27264-2.4064-41.79968-1.69984 0.11264 2.2528 0.96256 6.49216 5.80608 6.0928 0.19456 8.1408 10.04544-1.20832 20.93056 1.42336 7.76192 1.87392 12.12416 2.816 12.12416 2.816s-3.36896 0.84992-12.67712 4.70016-12.67712 6.56384-9.472 8.73472c3.20512 2.17088-1.62816 10.91584 8.97024 9.78944 10.5984-1.1264 9.64608 11.90912 16.51712 5.49888 6.32832-5.89824 10.37312-19.712 23.26528-20.31616-9.04192-9.24672-14.29504-13.85472-23.66464-17.03936z" fill="#3EBA4A" p-id="3029"></path><path d="M545.1264 522.21952c-11.9296-1.9456-37.23264-8.30464-40.48896-27.45344 0 0 0.14336-7.58784 4.66944-11.47904 4.52608-3.8912 0.768-11.37664-1.50528-10.53696-2.27328 0.84992 2.23232-7.60832-1.4848-9.17504-3.71712-1.56672-7.08608 2.16064-7.08608 2.16064s3.21536-6.4512-3.54304-7.45472c-6.7584-1.00352-10.89536 15.45216-10.89536 15.45216s-1.4336-6.47168-0.49152-13.76256c0.94208-7.29088 3.06176-13.90592 0.3072-15.32928s-8.2432-2.4064-8.2432-2.4064-2.33472-6.0928-6.73792-3.03104c-4.4032 3.06176-6.7584 6.59456-6.7584 6.59456s-7.1168-1.40288-9.12384 3.54304 5.03808 22.04672 5.03808 22.04672-4.7616-3.072-11.01824-10.26048-9.37984-12.71808-11.4176-11.33568c-2.03776 1.3824-3.8912 5.33504-3.8912 5.33504s-1.73056-4.48512-5.40672-0.63488c-3.67616 3.85024-2.4576 7.0656-2.4576 7.0656s-3.21536 1.72032-2.3552 5.39648c0.86016 3.67616 32.6144 23.27552 32.6144 23.27552s-4.1472-1.46432-15.44192-2.29376c-11.29472-0.83968-14.12096 3.98336-12.91264 5.34528l1.20832 1.36192s-0.0512 0.55296 0 1.36192c13.52704-0.70656 33.44384-1.13664 41.79968 1.69984 9.3696 3.18464 14.62272 7.79264 23.66464 17.03936 1.11616-0.0512 2.29376-0.02048 3.55328 0.14336 5.14048 0.65536 6.32832 9.56416 23.01952 15.7696 9.4208 3.50208 17.54112 5.45792 22.82496 6.5024 3.52256 0.69632 6.98368-2.26304 7.61856-6.52288 0.6144-4.10624-1.6384-7.85408-5.05856-8.40704z" fill="#68E077" p-id="3030"></path><path d="M566.30272 520.40704c9.78944-2.80576 34.1504-1.96608 48.13824-1.19808-1.29024-2.58048-2.5088-4.10624-2.5088-4.10624s3.47136-6.36928-0.63488-9.76896c-4.10624-3.39968-22.53824-1.83296-22.53824-1.83296s4.36224-3.61472 13.09696-7.424 14.9504-5.12 14.24384-7.48544c-0.70656-2.36544-3.91168-5.3248-3.91168-5.3248s4.79232-0.29696 2.23232-4.95616c-2.56-4.6592-6.00064-4.47488-6.00064-4.47488s-0.67584-3.584-4.43392-3.87072-32.01024 24.10496-32.01024 24.10496 2.64192-3.52256 6.84032-14.03904c4.1984-10.51648 0.45056-14.66368-1.20832-13.9264l-1.65888 0.73728s-7.39328-3.14368-8.8576 3.28704c-7.82336-2.26304-1.87392 9.94304-7.65952 19.52768-4.12672 6.84032-6.33856 10.71104-6.33856 10.71104s0.2048-3.47136-0.6656-13.50656c-0.8704-10.0352-2.44736-14.05952-5.4784-11.66336s-9.92256-4.83328-12.032 5.61152c-2.10944 10.4448-14.26432 5.61152-10.21952 14.10048 4.0448 8.48896 17.82784 17.21344 11.17184 31.65184-2.17088 4.70016-11.01824 3.15392-21.9648 17.21344-6.17472 7.92576-10.48576 15.08352-13.07648 19.8144-1.73056 3.15392 0.0512 7.34208 3.92192 9.22624 3.72736 1.82272 7.9872 0.79872 9.54368-2.28352 5.44768-10.79296 19.11808-33.00352 38.36928-30.35136 0 0 5.31456 1.792 8.2944 5.7856l4.23936-4.67968s-12.99456-16.8448 1.10592-20.8896z" fill="#68E077" p-id="3031"></path><path d="M614.44096 519.20896c-13.9776-0.77824-38.3488-1.60768-48.13824 1.19808-14.10048 4.0448-1.10592 20.8896-1.10592 20.8896l-4.23936 4.67968c0.48128 0.64512 0.91136 1.35168 1.23904 2.11968 2.34496 5.48864 10.61888 4.15744 10.496 1.7408-0.12288-2.41664 6.58432 4.41344 9.19552 1.35168 2.6112-3.072 0.07168-7.40352 0.07168-7.40352s5.18144 5.00736 8.17152-1.13664c2.99008-6.144-11.44832-15.04256-11.44832-15.04256s6.59456 0.58368 13.27104 3.67616 12.34944 7.09632 14.53056 4.90496c2.18112-2.19136 4.77184-7.12704 4.77184-7.12704s6.51264-0.38912 4.9152-5.50912c-0.512-1.64864-1.13664-3.10272-1.75104-4.32128z" fill="#3EBA4A" p-id="3032"></path><path d="M927.60064 336.42496c-22.72256-53.7088-55.2448-101.94944-96.6656-143.37024-41.4208-41.4208-89.66144-73.94304-143.37024-96.6656-55.61344-23.52128-114.688-35.45088-175.57504-35.45088S392.02816 72.86784 336.41472 96.38912c-53.7088 22.72256-101.94944 55.23456-143.37024 96.6656-41.4208 41.4208-73.94304 89.66144-96.6656 143.37024C72.8576 392.0384 60.928 451.11296 60.928 512s11.9296 119.9616 35.45088 175.57504c22.72256 53.7088 55.2448 101.94944 96.6656 143.37024 41.4208 41.4208 89.66144 73.94304 143.37024 96.6656 55.61344 23.52128 114.688 35.45088 175.57504 35.45088s119.9616-11.9296 175.57504-35.45088c53.7088-22.72256 101.94944-55.2448 143.37024-96.6656 41.4208-41.4208 73.94304-89.66144 96.6656-143.37024 23.52128-55.61344 35.45088-114.688 35.45088-175.57504s-11.9296-119.9616-35.45088-175.57504zM512 942.57152C274.57536 942.57152 81.42848 749.4144 81.42848 512S274.57536 81.42848 512 81.42848 942.57152 274.5856 942.57152 512 749.4144 942.57152 512 942.57152z m356.13696-581.0176c-19.46624-46.0288-47.33952-87.35744-82.83136-122.85952-35.49184-35.49184-76.83072-63.36512-122.84928-82.83136-47.65696-20.15232-98.27328-30.37184-150.44608-30.37184s-102.78912 10.21952-150.44608 30.37184c-46.0288 19.46624-87.35744 47.33952-122.84928 82.83136-35.49184 35.49184-63.36512 76.83072-82.83136 122.85952-20.15232 47.65696-30.37184 98.27328-30.37184 150.44608s10.21952 102.78912 30.37184 150.44608c19.46624 46.0288 47.33952 87.35744 82.83136 122.84928s76.83072 63.36512 122.84928 82.83136c47.65696 20.15232 98.27328 30.37184 150.44608 30.37184s102.78912-10.21952 150.44608-30.37184c46.0288-19.46624 87.35744-47.33952 122.84928-82.83136s63.36512-76.83072 82.83136-122.84928c20.15232-47.65696 30.37184-98.27328 30.37184-150.44608s-10.21952-102.79936-30.37184-150.44608zM512 890.3168c-208.59904 0-378.3168-169.70752-378.3168-378.3168S303.40096 133.6832 512 133.6832 890.3168 303.39072 890.3168 512 720.60928 890.3168 512 890.3168z m313.0368-397.14816l-12.61568-33.44384c-3.19488-8.47872-8.58112-15.52384-15.29856-20.6848l-13.11744-41.6768c-1.98656-6.2976-6.2976-11.43808-12.16512-14.46912a24.56576 24.56576 0 0 0-5.8368-2.14016c-30.5152-118.89664-95.98976-156.83584-98.816-158.42304a10.24 10.24 0 0 0-7.53664-0.99328l-96.72704 24.6784c-5.87776-0.26624-11.8784-0.41984-17.84832-0.41984-1.0752 0-2.1504 0.17408-3.1744 0.512-0.72704-0.94208-1.78176-1.7408-3.31776-2.2016-1.69984-0.512-3.33824-0.52224-4.82304-0.24576-0.99328-1.6896-3.1232-3.72736-7.6288-4.08576-3.19488-0.256-5.75488 1.0752-7.77216 3.11296l0.12288-1.16736c0.5632-5.26336 1.20832-11.22304-4.03456-13.18912-2.36544-0.88064-5.888-1.46432-8.0384-1.75104-1.0752-1.2288-2.7648-2.69312-5.08928-3.24608-1.5872-0.37888-4.05504-0.4608-6.74816 1.3312-2.8672 1.90464-4.9152 3.92192-6.16448 5.34528-3.36896 0.0512-9.18528 0.94208-11.20256 6.25664-0.8192 2.17088-0.39936 5.21216 0.64512 8.47872-1.792-1.52576-3.35872-2.95936-4.7616-4.23936-4.70016-4.3008-8.41728-7.69024-12.50304-5.03808-1.03424 0.6656-1.93536 1.60768-2.69312 2.57024-0.2048-0.0512-0.41984-0.08192-0.64512-0.11264-1.6384-0.22528-4.13696 0.06144-6.69696 2.65216-2.6624 2.67264-3.49184 5.39648-3.50208 7.58784-1.73056 2.00704-2.57024 4.87424-1.40288 7.936 0.08192 0.21504 0.17408 0.45056 0.34816 0.73728-64.94208 14.2848-118.6304 38.88128-147.83488 54.08768-0.31744-0.8192-0.53248-1.3312-0.59392-1.47456-6.20544-14.7968-23.31648-21.80096-38.13376-15.62624-14.81728 6.18496-21.87264 23.28576-15.72864 38.0928 0.1024 0.256 10.5472 26.15296 10.94656 56.28928 0.48128 36.79232-13.39392 62.81216-42.42432 79.54432-6.7584 3.8912-11.59168 10.17856-13.60896 17.70496s-0.99328 15.39072 2.89792 22.14912c0.90112 1.56672 1.95584 3.0208 3.10272 4.37248a28.817408 28.817408 0 0 0-3.10272 4.37248c-3.8912 6.7584-4.92544 14.62272-2.89792 22.14912s6.8608 13.81376 13.60896 17.70496c29.0304 16.73216 42.9056 42.752 42.42432 79.54432-0.38912 30.13632-10.83392 56.03328-10.92608 56.25856-6.15424 14.848 0.90112 31.9488 15.7184 38.12352a28.99968 28.99968 0 0 0 11.19232 2.24256c11.40736 0 22.272-6.72768 26.94144-17.8688 0.06144-0.14336 0.27648-0.6656 0.59392-1.4848 42.36288 22.04672 139.29472 65.34144 246.84544 65.34144 5.94944 0 11.93984-0.14336 17.95072-0.41984l96.72704 24.6784c0.82944 0.21504 1.67936 0.31744 2.52928 0.31744 1.7408 0 3.47136-0.44032 5.00736-1.31072 2.82624-1.5872 68.3008-39.5264 98.816-158.43328a24.56576 24.56576 0 0 0 5.8368-2.14016c5.86752-3.03104 10.1888-8.17152 12.16512-14.46912l13.12768-41.69728A46.80192 46.80192 0 0 0 812.46208 564.224l12.61568-33.44384c2.3552-6.23616 1.66912-13.18912-1.80224-18.83136 3.47136-5.64224 4.15744-12.5952 1.80224-18.83136z m-19.15904 7.22944c0.0512 0.13312 0.18432 0.49152-0.11264 0.93184s-0.68608 0.43008-0.82944 0.43008H758.272c-5.45792-16.76288-16.0768-28.50816-16.71168-29.20448-1.97632-2.1504-4.72064-3.328-7.69024-3.30752-1.16736 0.02048-26.73664 0.58368-47.0528 15.4112 0-4.2496-0.08192-8.88832-0.27648-13.86496l75.23328-20.02944c7.2704-1.93536 14.67392-0.6656 20.6336 3.01056 0.27648 0.19456 0.5632 0.37888 0.84992 0.55296 4.42368 2.95936 7.9872 7.29088 10.00448 12.63616l12.61568 33.44384z m-474.5216 111.32928c0-17.13152 13.94688-31.0784 31.0784-31.0784s31.0784 13.93664 31.0784 31.0784-13.93664 31.0784-31.0784 31.0784-31.0784-13.94688-31.0784-31.0784z m31.0784-39.2704c-21.6576 0-39.2704 17.6128-39.2704 39.2704 0 9.18528 3.1744 17.63328 8.47872 24.32-8.92928 9.05216-15.58528 17.57184-20.43904 24.7296 0.94208-7.22944 1.59744-14.91968 1.75104-22.89664 0.96256-48.22016-15.5136-87.63392-47.94368-115.52768 0.47104-0.08192 0.96256-0.13312 1.50528-0.13312h124.02688c-3.93216 5.56032-6.31808 10.09664-6.92224 11.30496a10.237952 10.237952 0 0 0-0.31744 8.57088c0.48128 1.15712 11.64288 27.392 35.10272 39.65952-7.75168 2.89792-15.24736 6.05184-22.46656 9.49248-6.912-11.264-19.34336-18.80064-33.49504-18.80064z m-49.47968-186.35776c-0.16384-7.97696-0.80896-15.65696-1.75104-22.89664 4.84352 7.15776 11.50976 15.67744 20.43904 24.7296-5.29408 6.69696-8.46848 15.14496-8.46848 24.32 0 21.6576 17.6128 39.2704 39.2704 39.2704 14.16192 0 26.58304-7.53664 33.49504-18.80064 11.61216 5.51936 24.0128 10.38336 37.04832 14.52032-0.58368 0.53248-1.11616 1.13664-1.60768 1.76128-0.11264-0.03072-0.21504-0.0512-0.32768-0.07168-1.67936-0.33792-4.23936-0.13312-6.9632 2.70336-2.92864 3.072-3.70688 6.0416-3.77856 8.17152-1.5872 1.76128-2.89792 4.5056-2.06848 8.05888 0.3072 1.29024 0.93184 3.9936 18.7904 15.85152-10.31168-0.03072-13.48608 4.5568-14.2336 6.06208-1.06496 2.1504-0.83968 4.5056 0.59392 6.15424-4.5056 1.25952-8.69376 3.30752-12.52352 5.81632H266.51648c-0.54272 0-1.03424-0.0512-1.50528-0.12288 32.43008-27.89376 48.90624-67.30752 47.94368-115.52768z m49.47968 57.2416c-17.13152 0-31.0784-13.93664-31.0784-31.0784s13.94688-31.0784 31.0784-31.0784 31.0784 13.93664 31.0784 31.0784-13.93664 31.0784-31.0784 31.0784z m74.38336-104.43776a10.230784 10.230784 0 0 0-5.21216 3.62496c-2.2528 2.97984-3.98336 6.21568-5.3248 9.59488-4.13696-1.67936-7.76192-3.77856-10.82368-6.28736 0.59392-12.94336 7.424-24.87296 11.39712-30.76096 8.73472 0.6656 22.75328 3.16416 30.40256 10.0864-0.18432 3.55328-0.8192 7.22944-1.88416 11.008-5.9904 0.08192-12.288 0.84992-18.56512 2.73408z m82.23744 57.40544c-2.75456 3.36896-5.03808 7.08608-6.912 10.88512-4.7104-8.192-9.37984-13.35296-9.79968-13.81376-0.93184-1.01376-2.048-1.81248-3.2768-2.37568 0.57344-2.31424 1.01376-4.608 1.3312-6.87104 4.49536 3.7376 10.9056 8.37632 18.66752 12.16512z m70.0416 45.73184c1.9456 2.24256 4.77184 3.5328 7.7312 3.5328h0.08192c1.31072 0 32.27648-0.47104 52.54144-19.84512 1.78176-1.69984 2.88768-3.98336 3.1232-6.43072 2.07872-21.67808-9.66656-40.51968-15.93344-48.88576 3.72736 1.15712 7.31136 1.97632 10.5984 2.56 9.85088 26.48064 14.76608 53.05344 17.1008 75.70432-31.232 4.68992-61.00992 7.38304-89.14944 8.05888 4.57728-6.71744 7.5776-13.89568 9.53344-20.2752a88.41216 88.41216 0 0 0 4.37248 5.5808z m74.51648 108.36992a10.24 10.24 0 0 0-6.61504 5.45792c-0.19456 0.39936-1.82272 3.84-3.57376 9.24672-5.45792-11.14112-12.04224-18.42176-12.544-18.96448-1.9456-2.10944-4.67968-3.30752-7.53664-3.30752h-0.1536c-1.19808 0.02048-27.94496 0.60416-48.47616 16.47616-2.01728-0.08192-4.01408-0.14336-6.01088-0.2048-1.25952-1.52576-2.60096-3.072-4.0448-4.608 2.73408 1.35168 7.23968 2.99008 10.36288-0.67584a8.815616 8.815616 0 0 0 1.97632-4.08576c0.18432-0.02048 0.36864-0.04096 0.55296-0.08192 1.86368-0.32768 4.47488-1.50528 6.28736-5.24288 1.28-2.62144 1.00352-5.25312-0.11264-7.7312 0.34816 0.18432 0.70656 0.3584 1.04448 0.54272 5.59104 2.88768 10.86464 5.61152 14.63296 1.83296 1.69984-1.71008 3.45088-4.5056 4.51584-6.33856 1.72032-0.4608 3.92192-1.4336 5.34528-3.49184 0.43008-0.6144 0.83968-1.44384 1.0752-2.43712 1.30048 1.69984 2.29376 2.85696 2.7136 3.34848 1.9456 2.24256 4.77184 3.5328 7.7312 3.5328h0.08192c0.96256 0 18.10432-0.27648 35.16416-8.20224 0.256 6.21568 0.39936 14.53056 0.09216 24.34048-1.19808 0.26624-2.05824 0.48128-2.49856 0.59392z m-140.83072 89.27232c1.65888-4.1984 4.42368-12.22656 5.79584-22.07744 4.06528 3.31776 8.6528 6.31808 13.79328 8.62208 0.21504 0.1024 0.44032 0.17408 0.6656 0.256-1.57696 4.72064-2.42688 9.64608-2.78528 14.42816-5.26336-0.90112-11.2128-1.46432-17.46944-1.23904z m-96.39936-76.87168c-11.2128-6.48192-18.6368-18.04288-22.04672-24.29952 3.38944-5.46816 8.97024-12.99456 15.53408-18.04288 0.26624-0.18432 0.53248-0.37888 0.77824-0.58368 2.14016-1.56672 4.37248-2.85696 6.656-3.70688 11.54048 6.77888 19.10784 18.36032 22.56896 24.58624-3.71712 6.02112-11.76576 17.00864-23.48032 22.04672zM467.968 531.15904c-2.37568-4.31104-6.20544-10.47552-11.59168-16.72192 8.05888-3.29728 11.17184-4.13696 11.19232-4.13696 1.8432-0.47104 3.1232-2.14016 3.09248-4.0448a4.088832 4.088832 0 0 0-3.23584-3.93216c-0.04096 0-4.41344-0.95232-12.02176-2.79552-5.61152-1.36192-10.78272-0.13312-14.6944 0.90112a63.760384 63.760384 0 0 0-7.77216-4.43392c-0.37888-0.18432-0.768-0.32768-1.15712-0.4608v-0.512c0.07168-0.78848-0.08192-1.56672-0.43008-2.2528 1.35168-0.54272 3.80928-1.05472 7.76192-0.75776 10.36288 0.768 14.37696 2.07872 14.3872 2.07872a4.099072 4.099072 0 0 0 3.51232-7.35232c-12.93312-7.97696-27.89376-18.03264-30.79168-21.16608 0.04096-0.13312 0.14336-0.28672 0.3584-0.44032 1.024-0.4608 1.80224-1.01376 2.16064-2.07872 0.34816-1.04448 0.256-1.86368-0.23552-2.816-0.01024-0.29696 0.06144-1.10592 0.93184-2.2528 0.68608 0.77824 1.67936 1.24928 2.79552 1.32096 1.67936 0.11264 3.21536-0.93184 3.93216-2.44736 0.31744-0.67584 0.73728-1.40288 1.14688-2.03776 0.77824 0.91136 1.72032 2.07872 2.53952 3.11296 1.3824 1.7408 2.94912 3.70688 4.83328 5.86752 6.56384 7.53664 11.66336 10.87488 11.8784 11.008 1.50528 0.9728 3.46112 0.84992 4.84352-0.28672a4.099072 4.099072 0 0 0 1.16736-4.7104c-3.30752-8.02816-5.65248-16.90624-5.02784-18.944 0.58368-1.44384 3.79904-1.19808 4.53632-1.06496 1.60768 0.31744 3.26656-0.37888 4.18816-1.73056 0.02048-0.03072 2.02752-2.93888 5.62176-5.46816 0.23552 0.29696 0.512 0.73728 0.64512 1.0752 0.512 1.34144 1.6896 2.31424 3.10272 2.57024 1.60768 0.28672 4.44416 0.94208 6.23616 1.6384 0.03072 1.37216-0.44032 4.11648-0.80896 6.20544-0.27648 1.62816-0.59392 3.47136-0.83968 5.33504-1.024 7.91552 0.48128 14.87872 0.55296 15.17568 0.4096 1.85344 2.03776 3.1744 3.9424 3.20512 1.92512 0.01024 3.56352-1.24928 4.03456-3.09248 0.512-2.00704 1.1776-3.96288 1.90464-5.69344 1.65888-0.50176 3.26656-1.04448 4.84352-1.62816 0.29696 0.64512 0.768 1.2288 1.3824 1.65888 1.65888 1.16736 3.9424 0.9216 5.33504-0.55296 0.23552-0.256 0.84992-0.75776 1.46432-1.03424-0.08192 0.65536-0.21504 1.39264-0.3072 1.85344-0.39936 2.0992-0.89088 4.72064 1.26976 6.54336a4.4032 4.4032 0 0 0 2.31424 1.00352c0.19456 0.45056 0.37888 1.09568 0.34816 1.78176-0.04096 0.84992-0.38912 1.26976-0.69632 1.52576-5.75488 4.94592-6.07232 13.53728-6.0928 14.49984 0 0.256 0.01024 0.512 0.06144 0.768 3.7376 21.95456 31.91808 28.85632 43.86816 30.81216 1.024 0.16384 1.95584 1.81248 1.65888 3.76832-0.17408 1.1776-0.74752 2.21184-1.54624 2.77504-0.43008 0.29696-0.83968 0.4096-1.2288 0.33792-5.03808-0.99328-12.98432-2.89792-22.19008-6.32832-9.24672-3.4304-13.18912-7.69024-16.05632-10.8032-2.2528-2.43712-4.38272-4.74112-7.87456-5.18144-1.1264-0.14336-2.21184-0.21504-3.24608-0.21504-11.71456 0-17.664 8.73472-22.09792 15.24736-1.35168 1.9968-2.65216 3.88096-3.93216 5.31456z m17.5104-119.48032c1.76128-0.31744 3.35872-0.55296 4.72064-0.7168 4.15744 5.71392 11.3152 17.34656 11.5712 30.06464-3.328 2.58048-7.24992 4.7616-11.71456 6.5536-0.08192-2.88768-0.94208-5.25312-3.54304-6.59456-2.14016-1.10592-5.33504-1.93536-7.40352-2.39616-0.95232-1.49504-2.54976-3.30752-4.93568-4.0448-1.5872-0.49152-4.06528-0.6656-6.8608 1.28a33.72032 33.72032 0 0 0-4.12672 3.40992c-2.4064-5.10976-4.42368-11.10016-4.25984-16.65024 6.144-4.68992 13.2608-7.54688 19.53792-9.29792 2.33472-0.38912 4.66944-0.9216 7.00416-1.60768z m91.07456 119.3984c5.5808 3.45088 10.11712 8.26368 9.92256 9.75872-0.18432 0.37888-0.33792 0.59392-0.44032 0.7168-0.33792-0.11264-0.89088-0.44032-1.20832-0.73728a4.099072 4.099072 0 0 0-5.376-0.27648 4.103168 4.103168 0 0 0-1.00352 5.29408c0.12288 0.2048 0.44032 0.96256 0.52224 1.65888-0.59392-0.27648-1.25952-0.62464-1.66912-0.84992-1.88416-1.01376-4.23936-2.26304-6.62528-0.75776a4.4544 4.4544 0 0 0-1.65888 1.90464c-0.4608 0.0512-1.08544 0.03072-1.6896-0.17408-0.43008-0.34816-0.86016-0.69632-1.30048-1.04448-0.02048-0.04096-0.04096-0.08192-0.06144-0.11264-2.97984-6.97344-11.08992-9.87136-12.00128-10.17856-0.24576-0.08192-0.49152-0.14336-0.74752-0.17408-0.24576-0.03072-0.49152-0.04096-0.73728-0.07168 0.88064-1.4336 1.4848-3.08224 1.75104-4.83328 0.95232-6.38976-2.75456-12.12416-8.448-13.056-1.19808-0.19456-2.59072-0.45056-4.10624-0.768-0.57344-7.33184-5.08928-13.08672-8.8064-17.79712-1.82272-2.31424-3.55328-4.5056-4.47488-6.44096-0.07168-0.1536-0.13312-0.28672-0.18432-0.4096 0.31744-0.14336 0.67584-0.28672 0.9728-0.4096 3.09248-1.28 8.26368-3.42016 9.73824-10.7008 0.3584-1.76128 0.77824-2.39616 0.91136-2.57024 0.4096-0.04096 1.44384 0.17408 2.07872 0.3072 1.42336 0.3072 3.3792 0.7168 5.3248 0.17408 0.33792 1.35168 0.74752 3.6864 1.09568 7.66976 0.8192 9.45152 0.6656 12.9024 0.6656 12.91264a4.10624 4.10624 0 0 0 2.92864 4.16768c1.82272 0.54272 3.77856-0.24576 4.72064-1.8944 0.02048-0.04096 2.23232-3.92192 6.28736-10.62912 3.14368-5.21216 3.39968-10.83392 3.59424-14.92992 0.04096-0.82944 0.08192-1.8432 0.16384-2.64192 0.84992 0.08192 1.72032-0.1024 2.47808-0.55296a4.12672 4.12672 0 0 0 1.91488-2.62144c0.11264-0.48128 0.256-0.7168 0.31744-0.74752 0.512-0.26624 2.048-0.03072 2.93888 0.32768 0.72704 0.3072 1.51552 0.39936 2.27328 0.26624 0.11264 1.45408-0.14336 3.95264-1.60768 7.6288-3.85024 9.65632-6.30784 13.08672-6.30784 13.09696a4.092928 4.092928 0 0 0 0.48128 5.45792c1.52576 1.4336 3.8912 1.47456 5.4784 0.11264 11.50976-9.9328 25.6-21.17632 29.45024-22.99904 0.03072 0.02048 0.06144 0.06144 0.09216 0.1024-0.19456 0.50176-0.33792 1.024-0.45056 1.55648-1.03424 5.05856-0.96256 10.15808-0.19456 15.104-1.05472 0.43008-2.16064 0.88064-3.328 1.39264-9.1648 3.9936-13.8752 7.85408-14.08 8.01792a4.087808 4.087808 0 0 0-1.1776 4.70016 4.08064 4.08064 0 0 0 4.13696 2.52928c8.6528-0.72704 17.82784-0.29696 19.57888 0.91136 1.35168 1.11616-0.34816 4.63872-0.34816 4.64896-0.78848 1.44384-0.62464 3.2256 0.38912 4.51584 0.02048 0.03072 2.2016 2.816 3.52256 7.0144-0.34816 0.13312-0.86016 0.26624-1.2288 0.29696-1.4336 0.08192-2.7136 0.91136-3.3792 2.18112-0.75776 1.44384-2.24256 3.95264-3.44064 5.45792-1.32096-0.38912-3.7888-1.65888-5.67296-2.63168-1.46432-0.75776-3.1232-1.61792-4.83328-2.4064-7.23968-3.35872-14.336-4.01408-14.63296-4.03456-1.8944-0.17408-3.64544 0.99328-4.23936 2.78528s0.12288 3.77856 1.73056 4.77184z m-51.33312 50.37056c4.61824-7.44448 13.29152-18.72896 22.95808-22.33344 11.53024 6.77888 19.10784 18.35008 22.55872 24.576-3.71712 6.01088-11.79648 17.01888-23.48032 22.05696-11.20256-6.48192-18.6368-18.04288-22.04672-24.29952z m79.47264-82.1248c0.256-0.1024 0.50176-0.2048 0.74752-0.3072 0.04096 0.14336 0.09216 0.27648 0.13312 0.41984-0.29696-0.04096-0.58368-0.07168-0.88064-0.11264z m50.04288-27.81184c3.77856 5.1712 9.97376 15.17568 11.29472 26.49088-0.0512 1.40288-0.11264 2.70336-0.17408 3.90144-10.17856 7.66976-23.3984 10.14784-30.38208 10.92608-5.04832-6.97344-12.30848-19.38432-12.02176-29.696 10.62912-8.12032 24.20736-10.77248 31.27296-11.6224z m-45.19936-3.46112c-1.25952-1.1264-2.9696-1.9968-5.23264-2.16064-1.3312-0.1024-4.08576-0.3072-20.76672 13.1584 2.53952-7.92576 0.80896-12.30848-0.59392-14.32576 11.24352-0.4096 22.74304-1.1264 34.47808-2.1504a67.212288 67.212288 0 0 0-7.87456 5.48864z m-52.02944 3.06176h0.27648c0.38912 0 0.77824-0.03072 1.16736-0.07168-0.43008 1.64864-0.512 3.51232-0.60416 5.43744-0.14336 3.21536-0.3072 6.81984-1.8432 10.00448-0.8704-10.0352-2.39616-14.12096-5.80608-15.59552-1.10592-0.48128-3.26656-0.9728-5.76512 0.72704-0.3584-0.0512-0.90112-0.16384-1.29024-0.24576-2.10944-0.45056-5.29408-1.1264-8.25344 0.8192-2.24256 1.47456-3.70688 4.03456-4.47488 7.82336-0.58368 2.87744-2.05824 3.60448-4.84352 4.7616-2.10944 0.8704-4.72064 1.95584-5.82656 4.83328-0.77824 2.02752-0.52224 4.34176 0.77824 7.07584 0.82944 1.75104 1.9456 3.40992 3.18464 5.0688h-12.31872c-1.4848-2.1504-2.58048-4.5568-3.10272-7.2704 0.12288-1.86368 0.86016-6.06208 3.2256-8.0896 4.42368-3.80928 4.3008-9.9328 1.8944-14.01856-0.67584-1.14688-1.44384-1.98656-2.23232-2.58048 0.31744-1.93536 0.58368-4.75136-0.52224-7.02464 6.38976 0.62464 12.88192 1.13664 19.49696 1.50528 7.77216 3.66592 16.95744 6.56384 26.89024 6.83008z m-30.89408 66.18112c3.21536 0.99328 6.17472 1.80224 8.81664 2.44736-7.92576 4.42368-14.2848 11.91936-18.8416 18.7392-0.68608 0.80896-1.34144 1.61792-1.97632 2.4064-2.67264 0.24576-5.33504 0.50176-7.97696 0.78848 2.49856-4.21888 5.9904-9.58464 10.496-15.38048 2.97984-3.82976 6.0928-6.77888 9.472-9.00096z m-18.56512 59.11552c2.60096 13.11744-1.01376 26.4704-3.36896 33.18784-5.98016 1.04448-16.85504 2.11968-27.10528-1.00352-0.33792-0.17408-0.6656-0.34816-1.01376-0.512-0.8704-0.41984-1.80224-0.69632-2.74432-0.84992-0.4096-0.17408-0.8192-0.33792-1.2288-0.52224-2.60096-12.68736 1.09568-25.91744 3.50208-32.6144 8.62208-1.49504 22.82496-2.5088 31.9488 2.31424z m75.40736 4.94592c1.3312 2.79552 2.7648 5.39648 4.17792 7.76192-3.08224-0.49152-6.36928-0.84992-9.78944-1.01376 2.11968-2.29376 3.98336-4.58752 5.61152-6.74816z m26.03008 3.66592c-5.15072-7.08608-12.32896-19.38432-12.02176-29.696 10.62912-8.12032 24.19712-10.77248 31.27296-11.6224 4.15744 5.71392 11.3152 17.34656 11.5712 30.06464-10.24 7.936-23.74656 10.45504-30.8224 11.24352z m48.42496-251.3408c-7.05536-0.52224-20.52096-2.60096-30.39232-10.68032 0.59392-12.93312 7.424-24.86272 11.39712-30.76096 8.73472 0.6656 22.75328 3.16416 30.40256 10.0864-0.69632 13.3632-7.48544 25.42592-11.4176 31.35488z m-25.55904 59.78112c-10.22976 7.92576-23.73632 10.45504-30.8224 11.24352-5.04832-6.97344-12.30848-19.38432-12.02176-29.696 10.62912-8.12032 24.20736-10.77248 31.27296-11.6224 4.17792 5.71392 11.3152 17.31584 11.56096 30.06464z m-78.20288 36.85376c-12.84096-1.67936-24.14592-9.49248-29.68576-13.95712 1.40288-8.64256 5.07904-22.40512 12.61568-29.44 13.2608 1.82272 24.69888 9.60512 30.27968 14.01856-1.11616 6.98368-4.32128 20.224-13.2096 29.37856z m-13.32224-68.10624c-12.7488-2.2528-23.69536-10.56768-29.0304-15.27808 1.792-8.57088 6.08256-22.14912 13.9264-28.84608 13.1584 2.41664 24.23808 10.71104 29.61408 15.37024-1.4336 6.93248-5.23264 20.00896-14.51008 28.75392z m-63.81568 10.30144c-0.94208 0.22528-1.90464 0.4608-2.88768 0.7168-11.776 1.71008-23.62368-1.4848-29.85984-3.65568-1.54624-8.46848-2.73408-22.79424 1.97632-31.97952 13.09696-2.73408 26.49088 0.73728 33.2288 3.0208 1.29024 6.912 2.7136 20.3264-2.4576 31.88736z m-29.41952 61.1328a10.21952 10.21952 0 0 0 2.24256 2.74432c0.06144 0.34816 0.12288 0.69632 0.19456 1.04448-1.41312-1.65888-2.65216-3.21536-3.76832-4.608-0.58368-0.73728-1.16736-1.45408-1.7408-2.1504 0.57344 0.1536 1.14688 0.31744 1.72032 0.47104 0.43008 0.82944 0.88064 1.66912 1.35168 2.5088z m23.13216 91.70944c0.94208-1.98656 1.19808-4.20864 0.78848-6.33856 0.38912-0.29696 0.78848-0.62464 1.18784-0.99328 2.23232-2.08896 4.05504-4.7616 5.98016-7.58784 5.35552-7.87456 9.216-12.57472 17.53088-11.52 0.53248 0.07168 1.792 1.42336 2.89792 2.62144 3.14368 3.39968 7.86432 8.48896 18.25792 12.544-2.32448 2.05824-4.54656 4.42368-6.67648 7.168-6.37952 8.20224-10.82368 15.59552-13.43488 20.35712-0.21504 0.39936-0.39936 0.8192-0.55296 1.24928-16.31232 2.14016-31.87712 5.14048-46.67392 8.97024 13.45536-11.37664 20.30592-25.62048 20.71552-26.48064z m26.58304 25.68192c0.31744 0.6144 0.68608 1.19808 1.11616 1.75104-3.52256-0.37888-6.98368-0.50176-10.27072-0.44032 3.03104-0.47104 6.08256-0.91136 9.1648-1.32096z m-26.368 77.21984c11.53024 6.77888 19.10784 18.36032 22.55872 24.576-3.71712 6.02112-11.76576 17.00864-23.48032 22.04672-11.20256-6.48192-18.6368-18.04288-22.04672-24.29952 4.54656-7.30112 13.312-18.70848 22.96832-22.33344z m43.40736 29.19424c1.23904-2.64192 1.30048-5.6832 0.16384-8.36608-0.08192-0.18432-0.4608-1.06496-1.14688-2.44736 0.52224-2.06848 1.19808-3.93216 2.03776-5.56032 9.29792-1.9456 18.7392-0.75776 25.82528 0.90112 0.78848 5.03808 1.72032 8.63232 2.01728 9.71776a10.26048 10.26048 0 0 0 5.5296 6.56384c0.11264 0.0512 0.47104 0.21504 1.03424 0.4608-0.17408 5.376-1.09568 11.65312-3.7376 17.48992-12.63616 2.73408-25.89696-0.8192-32.6144-3.14368-0.512-2.77504-1.06496-6.54336-1.29024-10.7008-0.01024-0.23552-0.04096-0.4608-0.07168-0.68608 1.3824-2.37568 2.14016-3.9424 2.26304-4.20864z m47.5648-16.01536c-1.5872-8.61184-2.75456-22.80448 1.97632-31.96928 13.1072-2.74432 26.49088 0.73728 33.23904 3.0208 1.30048 6.95296 2.73408 20.50048-2.54976 32.11264-12.6464 2.74432-25.92768-0.8192-32.65536-3.15392z m65.21856 32.94208c-2.60096-12.68736 1.09568-25.91744 3.50208-32.62464 8.63232-1.49504 22.8352-2.5088 31.9488 2.31424 2.60096 13.12768-1.024 26.48064-3.36896 33.19808-6.9632 1.2288-20.5312 2.51904-32.08192-2.89792z m-6.5536-51.4048c-0.62464 0.16384-1.2288 0.39936-1.80224 0.67584-0.1536-8.3456-1.4848-15.23712-2.36544-18.92352 9.49248-1.536 23.22432-5.15072 34.99008-13.70112 0.07168 0.24576 0.13312 0.48128 0.2048 0.72704a10.194944 10.194944 0 0 0 4.39296 5.632c0.38912 0.24576 0.78848 0.4608 1.18784 0.69632a292.34176 292.34176 0 0 1-6.22592 22.20032c-14.70464-1.18784-28.09856 2.0992-30.38208 2.70336z m49.58208-41.18528c-2.60096-12.68736 1.09568-25.91744 3.50208-32.62464 8.62208-1.49504 22.8352-2.5088 31.9488 2.31424 2.60096 13.12768-1.024 26.48064-3.36896 33.19808-6.9632 1.21856-20.5312 2.51904-32.08192-2.89792z m16.50688-54.36416c0.13312-5.39648 0.13312-10.31168 0.06144-14.67392 4.17792 7.50592 8.59136 13.08672 10.40384 15.24736-3.57376-0.45056-7.09632-0.60416-10.46528-0.57344z m11.47904-45.71136c10.62912-8.12032 24.20736-10.77248 31.27296-11.6224 4.15744 5.71392 11.3152 17.34656 11.5712 30.06464-10.24 7.936-23.74656 10.45504-30.8224 11.24352-5.15072-7.08608-12.32896-19.38432-12.02176-29.696z m74.53696-72.192c-5.29408-0.45056-10.752-0.02048-16.16896 1.42336l-71.35232 18.9952c-0.72704-7.69024-1.7408-15.85152-3.1232-24.34048l77.24032-24.81152c1.42336-0.4608 2.59072-0.03072 3.16416 0.26624 0.57344 0.29696 1.59744 1.00352 2.03776 2.42688l8.20224 26.04032zM660.40832 242.24768c12.8 8.86784 60.47744 47.26784 85.21728 141.4144l-67.51232 21.68832c-2.41664-10.71104-5.45792-21.73952-9.28768-32.8704 0.768-0.53248 1.47456-1.15712 2.08896-1.8944 0.80896-0.98304 19.85536-24.38144 18.90304-52.5824a10.211328 10.211328 0 0 0-2.17088-5.96992c-15.86176-20.26496-50.03264-20.52096-53.87264-20.49024-2.94912 0.03072-5.74464 1.3312-7.66976 3.57376-10.93632-13.07648-23.296-24.6784-36.9664-34.69312l71.2704-18.176z m-204.93312 8.77568c0.32768-0.9728 0.18432-1.97632-0.24576-2.89792 0-0.21504 0.18432-0.75776 0.89088-1.54624 0.74752 0.9216 1.87392 1.41312 3.13344 1.41312h0.02048c1.59744 0 2.9696-1.09568 3.6352-2.56 0.27648-0.60416 0.7168-1.37216 1.15712-1.9968 0.99328 0.79872 2.33472 2.02752 3.50208 3.08224 1.59744 1.46432 3.40992 3.11296 5.57056 4.92544 7.50592 6.2976 13.08672 8.97024 13.32224 9.07264 1.62816 0.768 3.57376 0.37888 4.78208-0.95232a4.104192 4.104192 0 0 0 0.47104-4.864c-3.7376-6.21568-6.92224-13.568-6.79936-15.6672 0.41984-0.5632 2.78528-1.06496 4.9152-0.82944 1.50528 0.17408 3.00032-0.512 3.86048-1.75104 0.02048-0.03072 1.86368-2.65216 5.41696-5.0176 0.2048-0.13312 0.31744-0.17408 0.32768-0.18432 0.28672 0.08192 0.89088 0.68608 1.16736 1.14688a4.133888 4.133888 0 0 0 3.13344 2.05824c1.77152 0.18432 4.93568 0.65536 6.95296 1.21856 0.06144 1.15712-0.16384 3.28704-0.33792 4.92544-0.1536 1.45408-0.33792 3.10272-0.43008 4.78208-0.4096 7.2192 1.83296 13.45536 1.92512 13.71136a4.099072 4.099072 0 0 0 7.86432-0.59392c1.01376-4.98688 3.86048-10.96704 5.77536-10.8032 0.52224 0.04096 0.8704 0.11264 1.09568 0.18432-0.03072 0.13312-0.06144 0.256-0.09216 0.33792-0.88064 1.82272-0.32768 4.03456 1.34144 5.18144 1.65888 1.14688 3.90144 0.9216 5.28384-0.55296 0.01024-0.01024 0.9728-0.94208 2.08896-1.16736-0.03072 0.45056-0.09216 0.93184-0.13312 1.26976-0.23552 1.82272-0.54272 4.33152 1.5872 6.03136 0.83968 0.6656 1.85344 1.00352 2.88768 0.9728 0.22528 0.32768 0.43008 0.78848 0.45056 1.20832 0 0.2048-0.01024 0.37888-0.34816 0.65536-5.888 4.83328-5.46816 12.87168-5.40672 13.7728 0.02048 0.29696 0.08192 0.59392 0.16384 0.88064 5.62176 18.55488 32.72704 23.72608 48.384 25.15968 1.3824 0.12288 2.42688 1.36192 2.31424 2.75456-0.0512 0.70656-0.38912 1.3312-0.93184 1.78176-0.54272 0.45056-1.23904 0.64512-1.93536 0.5632-5.39648-0.64512-13.93664-1.96608-23.97184-4.56704-10.14784-2.63168-14.6944-6.23616-18.01216-8.8576-2.49856-1.97632-4.864-3.85024-8.27392-4.06528-14.39744-0.90112-20.52096 7.94624-24.9856 14.40768-1.51552 2.19136-2.94912 4.25984-4.42368 5.5808-0.3072 0.27648-0.54272 0.45056-0.70656 0.55296-0.34816-0.256-0.84992-0.68608-1.24928-1.03424-2.10944-1.83296-5.4784-4.77184-11.22304-4.77184-0.768 0-1.5872 0.0512-2.44736 0.16384-0.82944 0.11264-1.47456 0.1536-1.97632 0.1536-1.09568 0-1.45408-0.17408-1.46432-0.17408-0.1536-0.22528-0.32768-1.03424-0.44032-1.56672-0.22528-1.0752-0.55296-2.59072-1.46432-3.96288 1.25952-0.67584 3.25632-1.62816 6.36928-2.88768 8.93952-3.61472 12.38016-4.54656 12.40064-4.54656 1.8944-0.49152 3.1744-2.26304 3.05152-4.20864a4.096 4.096 0 0 0-3.54304-3.80928c-0.0512 0-4.72064-0.63488-12.88192-1.90464-6.12352-0.95232-11.58144 0.53248-15.57504 1.62816-1.03424 0.28672-2.33472 0.63488-3.25632 0.80896a4.08576 4.08576 0 0 0-4.34176-2.74432c-0.34816 0.04096-1.1776 0.1024-1.50528-0.19456-0.4096-0.3584-0.64512-1.41312-0.65536-1.95584 0-0.53248-0.08192-1.05472-0.26624-1.536 1.44384-0.47104 3.87072-0.94208 7.81312-0.8704 11.1104 0.2048 15.48288 1.18784 15.50336 1.19808a4.093952 4.093952 0 0 0 2.65216-7.71072c-8.0384-3.62496-16.81408-7.79264-23.552-11.22304-2.26304-1.6896-4.20864-2.77504-6.16448-3.25632-1.59744-0.88064-2.88768-1.64864-3.76832-2.24256 0.768-0.48128 1.29024-1.20832 1.59744-2.10944z m-3.71712 25.50784c-0.08192 1.60768 0.55296 3.15392 1.81248 4.18816l0.09216 0.08192c0.31744 1.7408 1.11616 4.15744 3.1232 5.9904 0.9728 0.89088 2.47808 1.8432 4.61824 2.21184 0.47104 0.72704 1.0752 1.34144 1.80224 1.82272 2.93888 1.96608 6.37952 1.03424 10.36288-0.0512 2.72384-0.74752 5.72416-1.55648 8.89856-1.6384-6.8608 2.93888-10.57792 5.4272-10.72128 9.15456-0.04096 1.00352 0.2048 3.42016 3.09248 5.10976 0.07168 0.26624 0.14336 0.6144 0.19456 0.88064 0.94208 4.41344 3.25632 9.30816 12.98432 8.00768 3.59424-0.48128 5.18144 0.90112 7.19872 2.6624 1.36192 1.18784 3.6352 3.16416 6.63552 3.16416 1.80224 0 3.87072-0.7168 6.144-2.75456 2.21184-1.97632 3.9936-4.54656 5.71392-7.03488 4.27008-6.17472 7.97696-11.49952 17.73568-10.89536 0.80896 0.0512 1.82272 0.82944 3.69664 2.304 3.66592 2.90816 9.216 7.30112 21.03296 10.37312 10.47552 2.7136 19.4048 4.096 25.05728 4.77184 2.93888 0.34816 5.81632-0.48128 8.09984-2.3552 2.28352-1.87392 3.66592-4.51584 3.90144-7.46496 0.47104-5.84704-3.90144-11.02848-9.728-11.5712-8.448-0.77824-36.13696-4.41344-41.12384-18.88256 0.02048-1.18784 0.256-4.6592 2.43712-6.4512 0.62464-0.512 1.14688-1.0752 1.59744-1.6896l0.89088-0.41984c4.58752 0.03072 9.17504 0.14336 13.70112 0.33792 20.77696 12.2368 38.78912 28.07808 53.63712 47.14496-4.44416 9.35936-8.32512 21.51424-7.56736 34.56 0.14336 2.4576 1.15712 4.77184 2.87744 6.54336 3.14368 3.24608 6.59456 5.9392 10.15808 8.21248-9.70752 0.9728-31.1808 4.75136-47.18592 19.33312a10.179584 10.179584 0 0 0-3.13344 5.51936c-0.65536 3.20512-0.8704 6.42048-0.74752 9.59488a90.428416 90.428416 0 0 0-9.66656-4.98688c14.73536-17.50016 17.01888-40.52992 17.12128-41.66656 0.26624-2.90816-0.7168-5.7856-2.7136-7.91552-0.8704-0.93184-21.61664-22.84544-49.70496-25.53856-2.16064-0.2048-4.33152 0.27648-6.1952 1.3824-10.86464 6.43072-17.5104 17.85856-21.53472 28.27264-1.00352-1.3312-2.32448-2.41664-3.87072-3.13344-0.55296-0.256-7.0144-3.1744-16.54784-5.3248 1.40288-5.96992 2.02752-11.85792 1.83296-17.5616a10.211328 10.211328 0 0 0-2.17088-5.96992c-15.86176-20.26496-50.04288-20.51072-53.87264-20.49024-3.00032 0.03072-5.82656 1.37216-7.75168 3.66592-0.83968 1.00352-20.55168 24.89344-18.93376 52.87936 0.14336 2.4576 1.15712 4.77184 2.87744 6.54336 6.44096 6.63552 14.65344 11.6736 24.48384 15.04256-0.41984 13.48608 2.59072 25.20064 3.1744 27.32032a10.26048 10.26048 0 0 0 5.5296 6.56384c0.43008 0.2048 4.46464 2.05824 10.69056 3.90144a10.176512 10.176512 0 0 0-2.57024 4.9664c-1.62816 7.9872-0.7168 16.7424 2.70336 26.14272-15.0528-4.42368-29.2864-9.82016-42.46528-16.0768 1.45408-4.096 2.24256-8.48896 2.24256-13.07648 0-21.6576-17.6128-39.2704-39.2704-39.2704-9.5232 0-18.26816 3.40992-25.07776 9.07264-22.29248-22.65088-29.696-42.00448-29.78816-42.24a3.93216 3.93216 0 0 0-1.00352-1.50528c-0.65536-2.70336-1.32096-5.25312-1.97632-7.63904 27.61728-14.61248 81.55136-39.87456 147.1488-54.1184zM222.43328 485.4784c35.5328-20.48 53.25824-53.2992 52.67456-97.55648-0.45056-34.21184-11.99104-62.6176-12.48256-63.82592-1.83296-4.43392 0.26624-9.54368 4.67968-11.38688 1.09568-0.45056 2.22208-0.67584 3.33824-0.67584 3.39968 0 6.63552 1.9968 8.02816 5.3248 0.53248 1.26976 13.06624 31.52896 13.824 69.12 1.01376 50.91328-20.20352 90.35776-61.36832 114.08384a8.51456 8.51456 0 0 1-4.33152 1.16736c-3.11296 0-6.01088-1.66912-7.55712-4.36224-2.39616-4.15744-0.96256-9.49248 3.19488-11.88864z m44.87168 225.7408c-4.42368-1.8432-6.52288-6.95296-4.66944-11.40736 0.49152-1.19808 12.032-29.5936 12.47232-63.80544 0.58368-44.25728-17.14176-77.07648-52.67456-97.55648-2.01728-1.15712-3.46112-3.04128-4.05504-5.28384s-0.29696-4.58752 0.86016-6.6048a8.7296 8.7296 0 0 1 7.55712-4.36224c1.52576 0 2.99008 0.38912 4.33152 1.16736 41.1648 23.72608 62.39232 63.17056 61.36832 114.08384-0.74752 37.60128-13.29152 67.85024-13.824 69.13024-1.85344 4.4032-6.94272 6.48192-11.3664 4.64896z m37.30432-17.94048c0.65536-2.38592 1.32096-4.92544 1.97632-7.6288 0.43008-0.4096 0.77824-0.9216 1.00352-1.51552 0.07168-0.19456 7.4752-19.57888 29.78816-42.24 6.8096 5.66272 15.55456 9.07264 25.07776 9.07264 21.6576 0 39.2704-17.6128 39.2704-39.2704 0-4.58752-0.79872-8.98048-2.24256-13.07648 18.97472-9.02144 39.91552-16.13824 62.65856-21.31968-1.1264 0.93184-2.048 2.0992-2.69312 3.44064-0.55296 1.14688-13.12768 27.71968-5.9904 53.80096-15.43168 10.62912-24.87296 28.47744-26.18368 31.06816a10.237952 10.237952 0 0 0-0.31744 8.57088c0.50176 1.20832 12.61568 29.70624 38.1952 41.17504 1.3312 0.59392 2.75456 0.90112 4.18816 0.90112 0.99328 0 1.97632-0.14336 2.93888-0.43008 8.89856-2.6624 16.35328-7.46496 22.41536-12.78976 0.03072 0.13312 0.06144 0.23552 0.07168 0.26624a10.26048 10.26048 0 0 0 5.5296 6.56384c0.89088 0.41984 16.91648 7.79264 36.10624 7.79264 6.41024 0 13.17888-0.8192 19.85536-3.01056 2.33472-0.768 4.32128-2.34496 5.59104-4.4544 4.4032-7.31136 7.13728-15.99488 8.09984-25.53856 4.57728 0.82944 9.64608 1.39264 14.96064 1.39264 6.41024 0 13.17888-0.8192 19.85536-3.01056 0.37888-0.12288 0.74752-0.27648 1.10592-0.44032-0.24576 6.95296 0.43008 14.39744 2.74432 21.74976a10.194944 10.194944 0 0 0 4.39296 5.632c0.45056 0.27648 0.91136 0.54272 1.37216 0.79872-14.80704 18.90304-32.68608 34.6112-53.32992 46.76608-111.95392 4.85376-215.31648-42.51648-256.41984-64.256z m387.46112 57.99936c-13.90592 17.02912-26.10176 26.51136-31.67232 30.39232l-71.22944-18.176c17.36704-12.72832 32.6144-28.01664 45.54752-45.6704 4.34176 0.70656 8.56064 0.98304 12.48256 0.98304 12.35968 0 21.73952-2.68288 22.44608-2.89792 2.79552-0.8192 5.10976-2.80576 6.35904-5.43744 0.54272-1.14688 13.27104-28.50816 5.4272-55.61344a10.27072 10.27072 0 0 0-3.56352-5.25312c-2.19136-1.69984-4.54656-3.10272-6.98368-4.29056 2.10944-6.59456 4.01408-13.38368 5.71392-20.29568 4.74112 0.86016 9.3696 1.18784 13.64992 1.18784 3.6352 0 6.99392-0.23552 9.97376-0.57344 0.08192 0.03072 0.16384 0.07168 0.24576 0.09216l45.17888 14.51008c-14.49984 55.0912-36.89472 90.624-53.5552 111.02208z m72.41728-130.83648a4.1472 4.1472 0 0 1-2.03776 2.42688c-0.57344 0.29696-1.7408 0.7168-3.16416 0.26624l-37.56032-12.06272c2.05824-5.95968 4.61824-15.29856 5.1712-25.96864l29.63456 7.8848c4.06528 1.08544 8.15104 1.59744 12.17536 1.59744 1.34144 0 2.67264-0.06144 3.9936-0.17408l-8.192 26.03008zM805.888 523.56096l-12.61568 33.44384a26.387456 26.387456 0 0 1-10.07616 12.68736c-0.22528 0.13312-0.45056 0.27648-0.6656 0.43008-5.9904 3.72736-13.42464 5.02784-20.75648 3.08224l-37.05856-9.87136-0.27648-1.05472a10.27072 10.27072 0 0 0-3.56352-5.25312c-2.79552-2.16064-5.82656-3.86048-9.00096-5.20192 10.35264-1.10592 31.22176-5.07904 46.2336-19.41504 1.78176-1.69984 2.88768-3.98336 3.1232-6.43072 0.12288-1.26976 0.18432-2.52928 0.21504-3.77856h43.50976c0.14336 0 0.52224 0 0.82944 0.43008 0.29696 0.43008 0.16384 0.78848 0.11264 0.93184zM381.78816 412.23168c0 10.68032-8.66304 19.33312-19.33312 19.33312s-19.33312-8.66304-19.33312-19.33312 8.66304-19.33312 19.33312-19.33312 19.33312 8.66304 19.33312 19.33312z m-38.67648 199.46496c0-10.68032 8.66304-19.33312 19.33312-19.33312s19.33312 8.66304 19.33312 19.33312-8.66304 19.33312-19.33312 19.33312-19.33312-8.66304-19.33312-19.33312z" p-id="3033"></path></svg>