<?xml version="1.0" standalone="no"?><!DOCTYPE svg PUBLIC "-//W3C//DTD SVG 1.1//EN" "http://www.w3.org/Graphics/SVG/1.1/DTD/svg11.dtd"><svg t="1692877457017" class="icon" viewBox="0 0 1024 1024" version="1.1" xmlns="http://www.w3.org/2000/svg" p-id="2635" xmlns:xlink="http://www.w3.org/1999/xlink" width="200" height="200"><path d="M477.7984 465.8176l-61.44 61.44c-7.168 7.168-18.944 7.168-26.112 0l24.3712 24.3712c7.168 7.168 18.944 7.168 26.112 0l61.44-61.44c7.168-7.168 7.168-18.944 0-26.112l-24.3712-24.3712c7.168 7.2704 7.168 18.944 0 26.112z" fill="#E01E22" p-id="2636"></path><path d="M647.939072 345.591808l44.530688-44.530688 24.40192 24.40192-44.531712 44.529664z" fill="#3EBA4A" p-id="2637"></path><path d="M609.8944 333.7216l-61.44 61.44c-7.168 7.168-18.944 7.168-26.112 0l24.3712 24.3712c7.168 7.168 18.944 7.168 26.112 0l61.44-61.44c7.168-7.168 7.168-18.944 0-26.112l-24.3712-24.3712c7.2704 7.168 7.2704 18.944 0 26.112zM705.024 287.4368l61.44-61.5424c7.168-7.168 7.168-18.8416 0-26.112l-24.3712-24.3712c7.168 7.168 7.168 18.8416 0 26.112l-61.44 61.44c-7.168 7.168-18.944 7.168-26.112 0l24.3712 24.3712c7.168 7.3728 18.8416 7.3728 26.112 0.1024z" fill="#E01E22" p-id="2638"></path><path d="M416.256 527.36l61.44-61.44c7.168-7.168 7.168-18.944 0-26.112l-58.6752-58.6752c-7.168-7.168-18.944-7.168-26.112 0l-61.44 61.44c-7.168 7.168-7.168 18.944 0 26.112L390.144 527.36c7.2704 7.168 18.944 7.168 26.112 0zM477.7984 439.808l-83.1488-83.1488 24.3712 24.3712z" fill="#EA5520" p-id="2639"></path><path d="M595.7632 204.3904L571.392 179.9168l-13.6192-13.6192L692.5312 301.056 678.912 287.4368l-24.3712-24.3712z" fill="#68E077" p-id="2640"></path><path d="M513.2288 210.8416l13.6192 13.6192 24.3712 24.4736 58.6752 58.6752 24.4736 24.3712 13.6192 13.6192 44.544-44.544-134.7584-134.7584z" fill="#68E077" p-id="2641"></path><path d="M522.3424 395.1616l-58.6752-58.6752-24.4736-24.3712z" fill="#EA5520" p-id="2642"></path><path d="M525.1072 248.9344l-61.44 61.44c-7.168 7.168-7.168 18.944 0 26.112l58.6752 58.6752c7.168 7.168 18.8416 7.168 26.112 0l61.44-61.44c7.168-7.168 7.168-18.944 0-26.112l-58.6752-58.6752c-7.168-7.2704-18.944-7.2704-26.112 0zM657.2032 116.736l-61.44 61.44c-7.168 7.168-7.168 18.8416 0 26.112l58.6752 58.6752c7.168 7.168 18.944 7.168 26.112 0l61.44-61.5424c7.168-7.168 7.168-18.8416 0-26.112L683.3152 116.736c-7.168-7.168-18.8416-7.168-26.112 0z" fill="#EA5520" p-id="2643"></path><path d="M847.9744 278.4256c8.8064 14.4384 13.9264 31.3344 13.9264 49.5616 0 52.5312-42.5984 95.1296-95.1296 95.1296-6.0416 0-11.9808-0.6144-17.8176-1.6384l31.744 31.744c5.7344 1.1264 11.6736 1.6384 17.8176 1.6384 52.5312 0 95.1296-42.5984 95.1296-95.1296 0-34.5088-18.3296-64.6144-45.6704-81.3056z" fill="#E01E22" p-id="2644"></path><path d="M861.9008 327.9872c0-18.1248-5.12-35.1232-13.9264-49.5616-14.4384-8.8064-31.4368-13.9264-49.5616-13.9264-52.5312 0-95.1296 42.5984-95.1296 95.1296 0 6.0416 0.6144 11.9808 1.6384 17.8176l44.032 44.032c5.7344 1.1264 11.6736 1.6384 17.8176 1.6384 52.5312 0 95.1296-42.5984 95.1296-95.1296z" fill="#EA5520" p-id="2645"></path><path d="M736.768 389.632c8.8064 14.4384 13.9264 31.3344 13.9264 49.5616 0 52.5312-42.5984 95.1296-95.1296 95.1296-6.0416 0-11.9808-0.6144-17.8176-1.6384l-44.032-44.032 75.6736 75.6736c5.7344 1.1264 11.6736 1.6384 17.8176 1.6384 52.5312 0 95.1296-42.5984 95.1296-95.1296 0-34.304-18.2272-64.4096-45.568-81.2032z" fill="#FFA43E" p-id="2646"></path><path d="M655.5648 534.3232c52.5312 0 95.1296-42.5984 95.1296-95.1296 0-18.1248-5.12-35.1232-13.9264-49.5616-14.4384-8.8064-31.4368-13.9264-49.5616-13.9264-52.5312 0-95.1296 42.5984-95.1296 95.1296 0 6.0416 0.6144 11.9808 1.6384 17.8176l44.032 44.032c5.7344 1.1264 11.6736 1.6384 17.8176 1.6384z" fill="#FFD14F" p-id="2647"></path><path d="M625.4592 500.9408c8.8064 14.4384 13.9264 31.4368 13.9264 49.5616 0 52.5312-42.5984 95.1296-95.1296 95.1296-18.1248 0-35.1232-5.12-49.5616-13.9264 16.6912 27.3408 46.7968 45.568 81.2032 45.568 52.5312 0 95.1296-42.5984 95.1296-95.1296 0.1024-34.4064-18.2272-64.512-45.568-81.2032z" fill="#7C4115" p-id="2648"></path><path d="M639.3856 550.5024c0-18.1248-5.12-35.1232-13.9264-49.5616-14.4384-8.8064-31.4368-13.9264-49.5616-13.9264-52.5312 0-95.1296 42.5984-95.1296 95.1296 0 18.1248 5.12 35.1232 13.9264 49.5616 14.4384 8.8064 31.3344 13.9264 49.5616 13.9264 52.5312 0 95.1296-42.5984 95.1296-95.1296z" fill="#8B5526" p-id="2649"></path><path d="M515.795968 477.807616l44.530688-44.530688 24.40192 24.40192-44.530688 44.529664z" fill="#3EBA4A" p-id="2650"></path><path d="M381.0304 343.04l13.6192 13.6192 24.3712 24.3712 58.7776 58.7776 24.3712 24.3712 13.6192 13.6192 44.544-44.544-134.7584-134.7584z" fill="#68E077" p-id="2651"></path><path d="M354.7136 806.7072l156.7744-156.8768-16.384-17.6128-235.7248 235.7248 25.4976 25.3952 69.8368-69.8368z" fill="#FFD14F" p-id="2652"></path><path d="M511.488 649.8304L354.7136 806.7072v16.7936l-69.8368 69.8368 19.2512 19.3536 78.5408-78.5408v-31.744l140.288-140.288z" fill="#FFA43E" p-id="2653"></path><path d="M218.4192 670.5152l156.8768-156.8768-16.4864-17.6128-235.6224 235.6224 25.3952 25.4976 69.8368-69.8368z" fill="#FFD14F" p-id="2654"></path><path d="M375.296 513.6384L218.4192 670.5152v16.7936l-69.8368 69.8368 19.3536 19.2512 78.5408-78.5408v-31.6416l140.288-140.288zM739.328 172.7488l25.2928-25.1904-0.9216-22.2208-35.84 35.84z" fill="#FFA43E" p-id="2655"></path><path d="M735.744 118.5792l-25.2928 25.2928 17.408 17.3056 35.84-35.84-0.2048-5.632zM899.9936 256.2048l-27.7504-1.1264-23.6544 23.6544 16.9984 16.5888 34.5088-34.6112z" fill="#FFD14F" p-id="2656"></path><path d="M865.5872 295.3216l12.288 11.8784 23.2448-23.1424-1.024-23.3472z" fill="#FFA43E" p-id="2657"></path><path d="M304.128 922.9312z m604.16-631.7056l-17.6128 17.6128c8.2944 15.0528 13.1072 32.3584 13.1072 50.7904 0 58.0608-47.3088 105.3696-105.3696 105.3696-2.048 0-4.096-0.1024-6.0416-0.2048 0.1024 2.048 0.2048 3.9936 0.2048 6.0416 0 58.0608-47.3088 105.3696-105.3696 105.3696-2.048 0-3.9936-0.1024-6.0416-0.2048 0.1024 2.048 0.2048 3.9936 0.2048 6.0416 0 58.0608-47.3088 105.3696-105.3696 105.3696-18.432 0-35.7376-4.7104-50.8928-13.1072L392.9088 806.7072v27.4432c0 2.7648-1.024 5.3248-2.9696 7.2704l-78.5408 78.5408c-1.9456 1.9456-4.5056 2.9696-7.2704 2.9696-2.6624 0-5.3248-1.1264-7.2704-2.9696l-44.7488-44.7488c-3.9936-3.9936-3.9936-10.4448 0-14.4384L482.304 630.4768c-7.4752-14.4384-11.776-30.9248-11.776-48.3328 0-35.7376 17.8176-68.5056 47.2064-87.8592l-3.4816-3.4816c-1.3312 2.4576-2.9696 4.7104-5.0176 6.656l-61.44 61.44c-5.4272 5.4272-12.5952 8.3968-20.2752 8.3968s-14.848-2.9696-20.2752-8.3968l-19.8656-19.8656-131.072 131.072v27.4432c0 2.7648-1.1264 5.3248-2.9696 7.2704L174.8992 783.36c-2.048 2.048-4.608 2.9696-7.2704 2.9696-2.6624 0-5.2224-1.024-7.2704-2.9696l-44.7488-44.7488c-3.9936-3.9936-3.9936-10.4448 0-14.4384L344.064 495.7184l-19.8656-19.8656c-11.1616-11.1616-11.1616-29.3888 0-40.5504l61.44-61.44c2.048-2.048 4.3008-3.6864 6.656-4.9152L373.76 350.208c-1.9456-1.9456-2.9696-4.5056-2.9696-7.2704 0-2.6624 1.024-5.3248 2.9696-7.2704l44.544-44.544c3.9936-3.9936 10.4448-3.9936 14.4384 0l18.5344 18.5344c1.3312-2.4576 2.9696-4.608 5.0176-6.656l61.44-61.44c1.9456-1.9456 4.1984-3.6864 6.656-4.9152l-18.432-18.5344c-3.9936-3.9936-3.9936-10.4448 0-14.4384l44.544-44.544c1.9456-1.9456 4.5056-2.9696 7.2704-2.9696s5.3248 1.1264 7.2704 2.9696l18.5344 18.5344c1.3312-2.4576 2.9696-4.7104 5.0176-6.656l61.44-61.44c5.4272-5.4272 12.5952-8.3968 20.2752-8.3968s14.848 2.9696 20.2752 8.3968l19.8656 19.8656 18.0224-18.0224c2.048-2.048 4.8128-3.072 7.68-2.9696L763.904 109.568c5.3248 0.2048 9.6256 4.5056 9.8304 9.8304l1.1264 27.7504c0.1024 2.8672-0.9216 5.632-2.9696 7.68l-18.0224 18.0224 19.8656 19.8656c11.1616 11.1616 11.1616 29.3888 0 40.5504l-61.44 61.44c-2.048 2.048-4.1984 3.6864-6.656 5.0176l3.7888 3.7888c8.192-13.0048 19.1488-24.064 32.1536-32.4608 16.9984-10.9568 36.6592-16.6912 56.9344-16.6912 17.408 0 33.792 4.1984 48.3328 11.776l18.2272-18.2272c2.048-2.048 4.8128-3.072 7.68-2.9696l27.7504 1.1264c5.3248 0.2048 9.6256 4.5056 9.8304 9.8304l1.1264 27.7504c0 2.7648-1.1264 5.632-3.1744 7.5776zM724.992 143.872l14.4384 14.4384 14.848-14.848-0.6144-13.824-13.824-0.6144-14.848 14.848z m-124.416 47.4112c0 2.1504 0.8192 4.3008 2.3552 5.8368l83.1488 83.1488c1.536 1.536 3.584 2.4576 5.8368 2.4576s4.3008-0.8192 5.8368-2.4576l16.384-16.384-22.1184-22.2208c-1.6384-1.6384-1.6384-4.1984 0-5.8368 1.6384-1.6384 4.1984-1.6384 5.8368 0l22.2208 22.2208 39.3216-39.3216c3.1744-3.1744 3.1744-8.3968 0-11.5712l-27.0336-27.0336-0.1024-0.1024-28.8768-28.8768-0.1024-0.1024-27.0336-27.0336c-1.536-1.536-3.584-2.4576-5.8368-2.4576s-4.3008 0.8192-5.8368 2.4576l-61.44 61.44c-1.6384 1.536-2.56 3.584-2.56 5.8368zM373.0432 524.5952l-14.4384-14.4384-221.184 221.184 30.208 30.3104 24.6784-24.6784-14.7456-14.7456c-1.6384-1.6384-1.6384-4.1984 0-5.8368 1.6384-1.6384 4.1984-1.6384 5.8368 0l14.7456 14.7456 37.7856-37.7856v-27.4432c0-2.7648 1.024-5.3248 2.9696-7.2704l134.144-134.0416zM497.3568 477.184c0-2.1504-0.8192-4.3008-2.3552-5.8368l-83.1488-83.1488c-1.6384-1.6384-3.6864-2.4576-5.8368-2.4576-2.048 0-4.1984 0.8192-5.8368 2.3552l-61.44 61.44c-3.1744 3.1744-3.1744 8.3968 0 11.6736l27.0336 27.0336 0.1024 0.1024 28.8768 28.8768 0.1024 0.1024 27.0336 27.0336c1.536 1.536 3.584 2.3552 5.8368 2.3552s4.3008-0.8192 5.8368-2.3552l45.2608-45.2608-22.2208-22.2208c-1.6384-1.6384-1.6384-4.1984 0-5.8368 1.6384-1.6384 4.1984-1.6384 5.8368 0l22.2208 22.2208 10.4448-10.4448c1.4336-1.3312 2.2528-3.3792 2.2528-5.632z m193.9456-111.5136c0.7168 0 1.3312 0.1024 2.048 0.1024 0-0.7168-0.1024-1.3312-0.1024-2.048l-1.9456 1.9456zM527.6672 210.8416l30.4128 30.4128 0.4096 0.4096 83.1488 83.1488 0.4096 0.4096 30.4128 30.4128 17.8176-17.8176-14.7456-14.7456c-1.6384-1.6384-1.6384-4.1984 0-5.8368s4.1984-1.6384 5.8368 0l14.7456 14.7456 6.4512-6.4512-144.7936-144.6912-30.1056 30.0032z m-59.1872 112.5376c0 2.1504 0.8192 4.3008 2.3552 5.8368l83.1488 83.1488c3.1744 3.1744 8.3968 3.1744 11.5712 0l61.44-61.44c3.1744-3.1744 3.1744-8.192 0.2048-11.3664L543.744 255.8976c-1.536-1.4336-3.4816-2.2528-5.632-2.2528s-4.3008 0.8192-5.8368 2.3552l-61.44 61.44c-1.536 1.7408-2.3552 3.7888-2.3552 5.9392zM573.44 431.8208l11.9808 11.9808c9.4208-35.5328 37.0688-63.6928 72.192-74.0352l-11.0592-11.0592c-1.3312 2.3552-2.9696 4.608-4.9152 6.656l-61.44 61.44c-2.1504 2.048-4.4032 3.6864-6.7584 5.0176z m6.5536 45.056c0.7168 0 1.3312 0.1024 2.048 0.1024 0-0.7168-0.1024-1.3312-0.1024-2.048l-1.9456 1.9456zM395.5712 343.04l30.72 30.72 83.1488 83.1488 30.8224 30.8224 17.5104-17.5104-14.7456-14.7456c-1.6384-1.6384-1.6384-4.1984 0-5.8368 1.6384-1.6384 4.1984-1.6384 5.8368 0l14.7456 14.7456 6.7584-6.7584-30.6176-30.6176-0.2048-0.2048-83.1488-83.1488-0.2048-0.2048-30.6176-30.6176-30.0032 30.208z m112.4352 319.5904c-5.2224-4.4032-9.9328-9.3184-14.2336-14.6432L273.8176 867.9424l30.208 30.3104 24.6784-24.6784-14.7456-14.7456c-1.6384-1.6384-1.6384-4.1984 0-5.8368 1.6384-1.6384 4.1984-1.6384 5.8368 0l14.7456 14.7456 37.7856-37.7856v-27.4432c0-2.7648 1.024-5.3248 2.9696-7.2704l132.7104-132.608z m152.8832-80.4864c0-46.7968-38.0928-84.8896-84.8896-84.8896-6.2464 0-12.3904 0.7168-18.432 2.048l-10.1376 10.1376c-2.048 2.048-4.608 2.9696-7.2704 2.9696s-5.2224-1.024-7.2704-2.9696l-0.3072-0.3072c-25.8048 15.2576-41.5744 42.8032-41.5744 73.0112 0 46.7968 38.0928 84.8896 84.8896 84.8896s84.992-38.0928 84.992-84.8896zM772.096 470.9376c0-46.7968-38.0928-84.8896-84.8896-84.8896s-84.8896 38.0928-84.8896 84.8896c0 3.1744 0.2048 6.2464 0.512 9.3184 36.5568 9.6256 65.3312 38.5024 74.9568 74.9568 3.072 0.3072 6.2464 0.512 9.3184 0.512 46.8992 0.1024 84.992-37.9904 84.992-84.7872z m111.3088-111.3088c0-46.7968-38.0928-84.8896-84.8896-84.8896-30.72 0-59.2896 16.9984-74.1376 43.6224 1.8432 1.9456 2.8672 4.4032 2.8672 7.0656 0 2.7648-1.024 5.3248-2.9696 7.2704l-8.9088 8.9088c0 0.7168 0 1.4336-0.2048 2.1504-1.024 5.2224-1.4336 10.5472-1.4336 15.872 0 3.1744 0.2048 6.2464 0.512 9.3184 36.5568 9.6256 65.3312 38.5024 74.9568 75.0592 3.072 0.3072 6.2464 0.512 9.3184 0.512 46.7968 0.1024 84.8896-37.9904 84.8896-84.8896z m-4.5056-67.8912l11.776-11.776-0.6144-13.824-13.824-0.6144L864.256 277.504c5.3248 4.1984 10.24 9.0112 14.6432 14.2336z m-272.0768 68.9152z m-2.8672-1.1264c0.8192 0.8192 1.8432 1.2288 2.8672 1.2288 1.024 0 2.048-0.4096 2.8672-1.2288 1.6384-1.6384 1.6384-4.1984 0-5.8368l-29.3888-29.3888c-1.6384-1.6384-4.1984-1.6384-5.8368 0-1.6384 1.6384-1.6384 4.1984 0 5.8368l29.4912 29.3888z m-27.9552 151.552c-2.2528 0-4.096 1.8432-4.096 4.096s1.8432 4.096 4.096 4.096c34.7136 0 62.976 28.2624 62.976 62.976 0 2.2528 1.8432 4.096 4.096 4.096s4.096-1.8432 4.096-4.096c0-39.3216-31.9488-71.168-71.168-71.168z m111.2064-111.3088c-2.2528 0-4.096 1.8432-4.096 4.096s1.8432 4.096 4.096 4.096c34.7136 0 62.976 28.2624 62.976 62.976 0 2.2528 1.8432 4.096 4.096 4.096s4.096-1.8432 4.096-4.096c0-39.2192-31.9488-71.168-71.168-71.168z m110.7968-110.6944c-2.2528 0-4.096 1.8432-4.096 4.096s1.8432 4.096 4.096 4.096c34.7136 0 62.976 28.2624 62.976 62.976 0 2.2528 1.8432 4.096 4.096 4.096s4.096-1.8432 4.096-4.096c-0.1024-39.3216-31.9488-71.168-71.168-71.168z" p-id="2658"></path></svg>