<?xml version="1.0" standalone="no"?><!DOCTYPE svg PUBLIC "-//W3C//DTD SVG 1.1//EN" "http://www.w3.org/Graphics/SVG/1.1/DTD/svg11.dtd"><svg t="1692877461421" class="icon" viewBox="0 0 1024 1024" version="1.1" xmlns="http://www.w3.org/2000/svg" p-id="2819" xmlns:xlink="http://www.w3.org/1999/xlink" width="200" height="200"><path d="M533.7088 266.9568c0.512-8.4992-6.0416-15.7696-14.5408-15.9744l-37.5808-1.1264c-1.8432-0.1024-3.6864 0.2048-5.3248 0.8192l9.6256 0.3072c8.4992 0.2048 15.1552 7.4752 14.5408 15.9744l-14.9504 234.5984 12.9024 0.3072 28.4672-128 6.8608-106.9056z" fill="#FFA43E" p-id="2820"></path><path d="M240.0256 379.904l0.6144-35.0208-12.6976 5.12v0.1024l12.0832 29.7984z" fill="#FFD14F" p-id="2821"></path><path d="M662.528 458.9568l15.0528-102.1952c1.2288-8.2944-4.5056-15.872-12.8-17.1008l-29.696-4.1984L668.672 197.0176c1.9456-8.0896-2.9696-16.1792-11.0592-18.2272l-36.2496-8.8064c-5.5296-1.3312-11.0592 0.6144-14.6432 4.5056l17.6128 4.3008c8.0896 1.9456 13.0048 10.1376 11.0592 18.2272l-33.4848 138.3424 29.696 4.1984c8.2944 1.2288 14.0288 8.8064 12.8 17.1008L624.8448 489.472l-69.7344 9.1136-22.9376 1.3312-0.4096 2.048 56.6272-3.3792 69.7344-9.1136 1.024-6.8608-5.8368 1.536 9.216-25.1904z" fill="#FFA43E" p-id="2822"></path><path d="M518.7584 502.4768l0.1024-1.536-17.7152 1.024z" fill="#FFD14F" p-id="2823"></path><path d="M818.176 283.5456l-34.5088-15.5648c-7.168-3.2768-15.5648-0.3072-19.2512 6.3488l20.48 9.216c7.0656 3.1744 10.5472 11.264 7.9872 18.6368L737.28 462.7456l-47.3088 12.0832-3.4816 9.4208 84.0704-21.504 55.6032-160.5632c2.56-7.2704-0.9216-15.36-7.9872-18.6368z" fill="#FFA43E" p-id="2824"></path><path d="M361.8816 411.2384l0.1024-0.2048-0.2048-2.56-13.0048-1.024c-2.6624-0.2048-5.2224 0.512-7.3728 1.9456l18.3296 1.4336c0.7168 0.1024 1.536 0.3072 2.1504 0.4096zM362.0864 490.1888l0.6144 2.3552 0.8192-2.1504zM341.4016 409.4976h-0.2048v0.1024c0.1024 0 0.1024-0.1024 0.2048-0.1024zM498.3808 502.1696l2.7648-0.2048h-2.6624zM459.4688 368.128l6.656-104.1408c0.4096-6.2464 4.5056-11.3664 10.1376-13.312l-27.2384-0.8192 10.4448 118.272zM653.2096 484.2496l5.8368-1.4336 3.4816-23.8592zM792.8832 302.1824c2.56-7.3728-0.9216-15.4624-7.9872-18.6368l-20.48-9.216c-0.4096 0.7168-0.7168 1.4336-1.024 2.1504l-73.3184 198.3488 47.3088-12.0832 55.5008-160.5632z" fill="#FFD14F" p-id="2825"></path><path d="M485.888 250.9824l-9.6256-0.3072c-5.632 1.9456-9.728 7.0656-10.1376 13.312l-6.656 104.1408-23.2448-2.3552L406.528 145.408c-0.4096-4.9152-3.2768-9.1136-7.168-11.4688l-13.312 1.2288c-8.2944 0.7168-14.4384 8.0896-13.6192 16.2816L395.264 411.0336l-0.1024 0.2048c-0.7168-0.2048-1.4336-0.3072-2.2528-0.4096l-31.232-2.3552 0.2048 2.56-0.1024 0.2048c-0.7168-0.2048-1.4336-0.3072-2.2528-0.4096l-18.3296-1.4336s-0.1024 0-0.1024 0.1024v-0.1024l-25.8048-1.9456c-2.7648-0.2048-5.4272 0.6144-7.4752 2.048l-0.7168-2.6624 3.3792-183.1936c0.1024-8.2944-6.4512-15.1552-14.7456-15.36l-8.4992-0.1024c-6.2464 1.7408-10.9568 7.3728-11.1616 14.2336L273.3056 379.904l-11.9808-29.9008c-2.56-6.3488-9.8304-9.5232-16.1792-6.9632l-4.5056 1.8432-0.6144 35.0208-11.9808-29.9008v-0.1024l-22.6304 9.1136c-6.3488 2.56-9.5232 9.8304-6.9632 16.1792l33.792 84.3776 81.8176 22.1184-0.4096-1.1264 17.6128 4.3008v0.4096l4.9152 0.8192 26.624 6.5536-0.6144-2.3552 1.4336 0.2048-0.8192 2.1504 28.4672 2.3552 7.0656 1.1264v-0.512l52.736 4.3008-0.1024 1.1264 19.1488 0.512 11.264 0.9216-0.1024-0.6144 4.1984 0.1024 14.9504-234.5984c0.6144-8.8064-6.0416-16.0768-14.5408-16.384zM624.7424 489.6768l19.5584-132.8128c1.2288-8.2944-4.5056-15.872-12.8-17.1008l-29.696-4.1984 33.4848-138.3424c1.9456-8.0896-2.9696-16.1792-11.0592-18.2272l-17.6128-4.3008c-1.7408 1.8432-2.9696 4.1984-3.584 6.8608l-70.9632 318.6688 22.9376-1.3312 69.7344-9.216zM498.4832 501.9648h2.6624l17.7152-1.024 8.0896-126.976z" fill="#FFD14F" p-id="2826"></path><path d="M464.2816 501.5552c-90.624-4.3008-180.8384-22.3232-267.264-54.1696l7.4752 28.2624c85.0944 21.4016 172.6464 30.0032 259.7888 25.9072z" fill="#F06661" p-id="2827"></path><path d="M464.2816 501.5552c-87.04 4.096-174.592-4.5056-259.7888-25.8048l110.08 416.5632h299.6224l110.08-416.5632c-85.1968 21.2992-172.8512 29.9008-259.9936 25.8048z" fill="#F06661" p-id="2828"></path><path d="M406.528 145.5104l33.28 353.28 22.8352-145.8176L439.808 145.408c-0.7168-8.2944-8.0896-14.4384-16.384-13.7216l-24.1664 2.1504c3.9936 2.4576 6.7584 6.656 7.2704 11.6736zM375.9104 411.8528l-6.3488 78.336 21.7088 2.3552 8.0896-79.1552zM310.5792 223.744L307.2 406.9376l-0.8192 53.1456 19.456 20.5824 15.36-71.168-0.6144-2.56 3.3792-183.1936c0.1024-8.2944-6.4512-15.1552-14.7456-15.36l-37.5808-0.7168c-1.4336 0-2.8672 0.2048-4.1984 0.512l8.4992 0.1024c8.192 0.3072 14.848 7.168 14.6432 15.4624zM255.7952 347.8528l-17.92 7.0656 42.3936 115.3024 24.576 5.4272z" fill="#FFA43E" p-id="2829"></path><path d="M816.2304 447.3856l-5.632 2.048c-28.4672 10.24-57.2416 18.944-86.3232 26.3168l-79.2576 299.8272c-10.3424 39.1168-45.7728 66.3552-86.2208 66.3552H301.3632l13.312 50.3808h384l13.312-50.3808 104.2432-394.5472z" fill="#E01E22" p-id="2830"></path><path d="M512 684.032m-88.3712 0a88.3712 88.3712 0 1 0 176.7424 0 88.3712 88.3712 0 1 0-176.7424 0Z" fill="#FFD14F" p-id="2831"></path><path d="M512 684.032m-43.8272 0a43.8272 43.8272 0 1 0 87.6544 0 43.8272 43.8272 0 1 0-87.6544 0Z" fill="#FFFFFF" p-id="2832"></path><path d="M822.3744 274.2272l-34.5088-15.5648c-6.3488-2.8672-13.7216-2.9696-20.1728-0.3072-6.4512 2.6624-11.5712 7.9872-13.9264 14.5408L678.912 475.3408c-2.8672 0.6144-5.7344 1.1264-8.6016 1.6384l17.5104-118.6816c1.024-6.656-0.7168-13.4144-4.7104-18.8416s-9.9328-8.9088-16.6912-9.9328l-18.5344-2.6624 30.8224-127.3856c1.536-6.5536 0.512-13.312-2.9696-19.1488s-9.1136-9.8304-15.6672-11.3664l-36.2496-8.8064c-6.656-1.6384-13.5168-0.512-19.3536 3.072-5.8368 3.584-9.8304 9.3184-11.264 15.9744l-60.928 273.6128 11.776-185.2416c0.4096-6.9632-1.8432-13.5168-6.5536-18.6368-4.7104-5.12-11.0592-8.0896-17.92-8.2944l-37.5808-1.1264c-9.4208-0.3072-17.8176 4.608-22.4256 12.0832L450.1504 144.384c-0.6144-6.7584-3.7888-12.8-9.0112-17.2032s-11.776-6.3488-18.432-5.8368l-37.4784 3.3792c-13.9264 1.2288-24.1664 13.5168-22.9376 27.4432l21.7088 247.808-33.0752-2.4576 3.1744-173.4656c0.2048-13.9264-10.8544-25.4976-24.7808-25.8048l-37.5808-0.7168c-6.7584-0.1024-13.1072 2.3552-18.0224 7.0656s-7.5776 10.9568-7.68 17.7152l-2.048 114.4832c-1.536-1.2288-3.2768-2.2528-5.12-3.072-5.5296-2.3552-11.776-2.4576-17.408-0.2048L201.728 349.4912c-5.632 2.2528-10.0352 6.5536-12.3904 12.1856-2.3552 5.5296-2.4576 11.776-0.2048 17.408l25.6 63.7952c-4.7104-1.6384-9.3184-3.2768-14.0288-5.0176-3.584-1.3312-7.5776-0.512-10.4448 2.048s-3.9936 6.5536-2.9696 10.24l117.6576 444.928c1.2288 4.5056 5.2224 7.5776 9.9328 7.5776h384c4.608 0 8.704-3.072 9.9328-7.5776l117.6576-444.928c1.024-3.6864-0.2048-7.5776-2.9696-10.1376-2.7648-2.56-6.8608-3.3792-10.4448-2.048l-5.632 2.048c-6.656 2.4576-13.4144 4.7104-20.1728 6.9632l48.9472-141.2096c3.9936-12.5952-1.8432-26.112-13.824-31.5392zM666.624 351.744c0.4096 0.6144 1.1264 1.8432 0.9216 3.584l-18.432 125.44c-16.1792 2.6624-32.3584 4.8128-48.64 6.5536l20.3776-138.6496c0.4096-2.6624 2.8672-4.4032 5.4272-4.096l7.2704 1.024c0.2048 0 0.4096 0.1024 0.6144 0.1024l29.2864 4.1984c1.6384 0.2048 2.6624 1.2288 3.1744 1.8432z m-53.5552-168.0384c0.4096-1.7408 1.536-2.6624 2.1504-3.072s1.9456-1.024 3.6864-0.6144l36.2496 8.8064c2.56 0.6144 4.1984 3.2768 3.584 5.8368l-31.3344 129.4336c-13.1072-1.024-24.9856 8.3968-26.9312 21.504l-21.0944 143.6672c-11.5712 0.9216-23.2448 1.6384-34.816 2.1504l68.5056-307.712zM481.28 260.096l37.5808 1.1264c1.7408 0 2.8672 1.024 3.3792 1.536s1.3312 1.7408 1.2288 3.584l-14.336 225.792c-15.7696 0-31.5392-0.3072-47.2064-1.1264l14.336-226.4064c0.2048-2.56 2.3552-4.608 5.0176-4.5056z m-94.4128-114.7904l37.4784-3.3792c1.7408-0.2048 2.9696 0.6144 3.4816 1.1264 0.6144 0.512 1.536 1.536 1.7408 3.2768l19.5584 221.9008-7.68 121.5488c-10.752-0.8192-21.504-1.7408-32.256-2.9696l4.7104-62.6688c0.4096-5.8368-1.4336-11.4688-5.2224-15.9744-1.1264-1.3312-2.3552-2.4576-3.6864-3.3792l-22.528-254.2592c-0.2048-2.6624 1.8432-4.9152 4.4032-5.2224z m-44.7488 331.5712l4.4032-57.7536c0-0.8192 0.7168-1.3312 1.536-1.3312l44.2368 3.3792c0.512 0 0.8192 0.3072 1.024 0.512s0.4096 0.512 0.3072 1.024l-4.608 61.7472c-15.7696-2.1504-31.4368-4.7104-46.8992-7.5776z m-50.7904-258.8672l37.5808 0.7168c2.6624 0 4.8128 2.2528 4.7104 4.9152l-3.3792 182.5792c-2.3552 3.1744-3.9936 7.168-4.3008 11.4688l-4.1984 55.296c-0.1024 0-0.2048 0-0.3072-0.1024l-37.9904-94.72 2.8672-155.2384c0.1024-2.8672 2.3552-4.9152 5.0176-4.9152z m-83.3536 153.3952c-0.3072-0.7168-0.1024-1.3312 0-1.7408 0.2048-0.4096 0.512-0.9216 1.2288-1.2288l39.7312-15.9744c1.1264-0.512 2.4576 0.1024 2.8672 1.2288l45.4656 113.4592c-19.2512-4.7104-38.2976-9.9328-57.2416-15.9744l-32.0512-79.7696z m482.7136 510.6688H322.4576l-110.592-418.5088c38.2976 13.1072 77.2096 23.6544 116.5312 31.5392 0.4096 0.1024 0.8192 0.2048 1.3312 0.3072 22.016 4.4032 44.1344 7.8848 66.4576 10.6496 0.4096 0.1024 0.9216 0.2048 1.3312 0.2048h0.8192c16.896 2.048 33.8944 3.584 50.8928 4.608 0.4096 0.1024 0.8192 0.1024 1.2288 0.2048h1.2288c22.016 1.3312 44.032 1.8432 66.1504 1.6384h1.024c0.512 0 1.024-0.1024 1.536-0.1024 3.4816-0.1024 6.9632-0.1024 10.4448-0.2048 0.3072 0 0.6144 0.1024 0.9216 0.1024 0.512 0 1.024 0 1.536-0.1024 18.3296-0.512 36.6592-1.6384 54.8864-3.2768h0.2048c0.6144 0 1.3312-0.1024 1.9456-0.2048 22.9376-2.1504 45.8752-5.12 68.608-9.0112 0.6144 0 1.2288-0.1024 1.8432-0.3072 9.1136-1.536 18.1248-3.2768 27.2384-5.12 0.4096-0.1024 0.8192-0.1024 1.2288-0.2048 37.888-7.7824 75.3664-18.0224 112.2304-30.6176L690.688 882.0736z m125.8496-583.168l-53.8624 155.648c-19.8656 5.9392-39.8336 11.264-60.0064 15.7696l70.3488-190.2592c0.6144-1.7408 1.9456-2.4576 2.6624-2.7648 0.7168-0.3072 2.1504-0.7168 3.8912 0L814.08 292.864c2.1504 1.024 3.2768 3.584 2.4576 6.0416zM512 585.3184c-54.3744 0-98.6112 44.2368-98.6112 98.6112s44.2368 98.6112 98.6112 98.6112 98.6112-44.2368 98.6112-98.6112-44.2368-98.6112-98.6112-98.6112z m0 176.8448c-43.1104 0-78.1312-35.0208-78.1312-78.1312s35.0208-78.1312 78.1312-78.1312 78.1312 35.0208 78.1312 78.1312-35.0208 78.1312-78.1312 78.1312z m0-132.1984c-29.7984 0-54.0672 24.2688-54.0672 54.0672s24.2688 54.0672 54.0672 54.0672c29.7984 0 54.0672-24.2688 54.0672-54.0672s-24.2688-54.0672-54.0672-54.0672z m0 87.552c-18.5344 0-33.5872-15.0528-33.5872-33.5872s15.0528-33.5872 33.5872-33.5872c18.5344 0 33.5872 15.0528 33.5872 33.5872s-15.0528 33.5872-33.5872 33.5872z" p-id="2833"></path></svg>