<?xml version="1.0" standalone="no"?><!DOCTYPE svg PUBLIC "-//W3C//DTD SVG 1.1//EN" "http://www.w3.org/Graphics/SVG/1.1/DTD/svg11.dtd"><svg t="1692877441280" class="icon" viewBox="0 0 1024 1024" version="1.1" xmlns="http://www.w3.org/2000/svg" p-id="2273" xmlns:xlink="http://www.w3.org/1999/xlink" width="200" height="200"><path d="M522.24 487.8336l258.7648-98.2016c-9.0112-19.5584-20.0704-37.9904-32.8704-54.9888l-215.04 81.6128-10.8544 71.5776zM386.6624 539.648c6.5536 5.3248 14.7456 8.192 23.1424 8.192 4.5056 0 8.9088-0.8192 13.1072-2.3552l0.8192-0.3072 49.5616-325.5296c-20.1728 2.6624-39.7312 7.3728-58.4704 13.824l-41.3696 271.9744c-2.048 12.9024 3.072 26.0096 13.2096 34.2016zM804.4544 468.1728l-46.2848 17.6128C747.1104 638.976 619.2128 759.9104 463.0528 759.9104c-69.2224 0-132.9152-23.7568-183.296-63.5904C333.9264 764.8256 417.792 808.8576 512 808.8576c163.4304 0 295.8336-132.5056 295.8336-295.8336 0-15.2576-1.1264-30.208-3.3792-44.8512z" fill="#FFA43E" p-id="2274"></path><path d="M562.7904 221.4912l-29.696 194.8672 215.04-81.6128c-44.3392-58.6752-109.8752-100.2496-185.344-113.2544z" fill="#FFD14F" p-id="2275"></path><path d="M758.1696 485.6832L471.8592 594.3296c-4.1984 1.536-8.6016 2.3552-13.1072 2.3552-8.3968 0-16.5888-2.8672-23.1424-8.192-10.1376-8.192-15.2576-21.2992-13.312-34.2016l1.4336-9.216-0.8192 0.3072c-4.1984 1.536-8.6016 2.3552-13.1072 2.3552-8.3968 0-16.5888-2.8672-23.1424-8.192-10.1376-8.192-15.2576-21.2992-13.312-34.2016L414.8224 233.472c-115.6096 40.2432-198.656 150.1184-198.656 279.552 0 69.2224 23.7568 132.9152 63.5904 183.296 50.3808 39.8336 114.0736 63.5904 183.296 63.5904 156.16 0 284.0576-120.9344 295.1168-274.2272z" fill="#FFD14F" p-id="2276"></path><path d="M828.416 340.48l-61.0304 23.1424c5.4272 9.3184 10.4448 19.0464 14.848 28.9792 3.6864 8.2944 13.1072 12.1856 21.6064 9.0112l62.0544-23.552c9.1136-3.4816 13.5168-13.824 9.5232-22.8352-23.552-54.272-58.9824-102.1952-102.912-140.5952 26.7264 30.6176 48.9472 65.3312 65.3312 103.1168 4.096 8.8064-0.3072 19.2512-9.4208 22.7328z" fill="#FF8C1A" p-id="2277"></path><path d="M541.3888 187.1872l-2.1504 14.4384c-1.3312 8.8064 4.8128 17.1008 13.7216 18.3296 56.1152 7.7824 107.2128 31.232 148.6848 65.8432-40.6528-48.5376-96.5632-83.8656-160.256-98.6112z" fill="#FFA43E" p-id="2278"></path><path d="M901.632 440.6272c-1.9456-10.4448-12.9024-16.4864-22.8352-12.6976l-10.5472 3.9936c1.536 14.336 2.3552 28.7744 2.3552 43.52 0 217.7024-175.5136 394.3424-392.8064 396.1856-100.9664 0.8192-193.536-36.352-264.0896-98.0992 73.4208 83.968 181.5552 136.704 301.6704 135.68 217.1904-1.8432 392.8064-178.4832 392.8064-396.1856 0-24.7808-2.2528-48.9472-6.5536-72.3968zM435.3024 182.1696c-144.896 19.1488-256.7168 143.1552-256.7168 293.2736 0 90.7264 41.5744 172.3392 106.7008 226.816-43.1104-51.5072-69.2224-117.5552-69.12-189.3376 0-150.1184 111.8208-274.1248 256.7168-293.2736 7.0656-0.9216 12.8-6.4512 13.824-13.5168l10.6496-69.7344c1.536-10.24-6.8608-19.2512-17.2032-18.432-7.9872 0.6144-15.872 1.536-23.6544 2.56l-7.2704 47.9232c-1.2288 7.2704-6.8608 12.6976-13.9264 13.7216z" fill="#FF8C1A" p-id="2279"></path><path d="M701.5424 285.7984c17.408 20.7872 32.0512 44.1344 43.2128 69.2224 3.6864 8.2944 13.1072 12.1856 21.6064 9.0112l1.024-0.4096c-17.3056-29.696-39.6288-56.0128-65.8432-77.824z" fill="#FFA43E" p-id="2280"></path><path d="M549.4784 134.144l-8.0896 53.0432c63.6928 14.7456 119.6032 50.0736 160.1536 98.6112 26.2144 21.9136 48.5376 48.2304 65.8432 77.824l61.0304-23.1424c9.1136-3.4816 13.5168-13.824 9.5232-22.8352-16.384-37.7856-38.6048-72.4992-65.3312-103.0144-56.5248-49.3568-127.1808-83.0464-205.1072-94.0032-8.6016-1.2288-16.7936 4.8128-18.0224 13.5168z" fill="#FFA43E" p-id="2281"></path><path d="M477.9008 871.6288c217.1904-1.8432 392.8064-178.4832 392.8064-396.1856 0-14.7456-0.8192-29.184-2.3552-43.52l-52.6336 19.968a17.0496 17.0496 0 0 0-10.752 18.5344c2.048 13.9264 3.072 28.16 3.072 42.5984 0 163.4304-132.5056 295.8336-295.8336 295.8336-90.7264 0-172.3392-41.6768-226.816-106.7008-65.2288-54.4768-106.8032-136.0896-106.8032-226.816 0-150.1184 111.8208-274.1248 256.7168-293.2736 7.0656-0.9216 12.8-6.4512 13.824-13.5168l7.2704-47.9232c-192.512 27.0336-340.5824 192.4096-340.5824 392.2944 0 99.7376 37.0688 190.8736 97.9968 260.5056 70.5536 61.8496 163.1232 99.0208 264.0896 98.2016z" fill="#FFA43E" p-id="2282"></path><path d="M391.179264 730.0096l19.26144-19.259392 19.259392 19.260416-19.260416 19.260416zM379.47904 477.488128l8.150016-25.990144 25.991168 8.148992-8.15104 25.991168zM277.13536 410.944512l8.148992-25.990144 25.991168 8.148992-8.15104 25.991168zM609.677312 748.548096l8.148992-25.991168 25.991168 8.15104-8.150016 25.98912zM519.638016 640.77312l8.150016-25.990144 25.990144 8.148992-8.148992 25.991168zM277.147648 594.853888l8.150016-25.991168 25.990144 8.15104-8.148992 25.98912z" fill="#8B5526" p-id="2283"></path><path d="M619.6224 601.4976v37.0688c0 8.8064 7.168 16.0768 16.0768 16.0768 8.8064 0 16.0768-7.168 16.0768-16.0768v-11.6736c0-7.8848 6.3488-14.336 14.336-14.336 7.8848 0 14.336 6.3488 14.336 14.336V669.696c0 7.8848 6.3488 14.336 14.336 14.336h0.7168c7.8848 0 14.336-6.3488 14.336-14.336v-36.4544M345.2928 313.4464v37.0688c0 8.8064 7.168 15.9744 15.9744 15.9744s15.9744-7.168 15.9744-15.9744v-11.6736c0-7.8848 6.3488-14.336 14.336-14.336 7.8848 0 14.336 6.3488 14.336 14.336v42.8032c0 7.8848 6.3488 14.336 14.336 14.336h0.7168c7.8848 0 14.336-6.3488 14.336-14.336l10.3424-7.4752L468.992 221.2864s-74.6496 11.0592-101.9904 32.768c-27.3408 21.7088-20.8896 60.8256-20.8896 60.8256" fill="#FFD14F" p-id="2284"></path><path d="M542.9248 692.224c3.3792 6.144 5.3248 13.2096 5.3248 20.6848 0 23.7568-19.2512 43.008-43.008 43.008-7.4752 0-14.5408-1.9456-20.6848-5.3248 7.2704 13.312 21.504 22.3232 37.6832 22.3232 23.7568 0 43.008-19.2512 43.008-43.008 0-16.1792-9.0112-30.3104-22.3232-37.6832zM478.208 591.872l-10.4448 3.2768c-4.1984 1.3312-8.4992 1.8432-12.5952 1.536-7.7824 13.1072-22.2208 21.7088-38.7072 21.0944-6.8608-0.2048-13.312-2.1504-18.944-5.3248 7.0656 12.8 20.5824 21.7088 36.0448 22.3232 24.4736 0.9216 44.6464-18.6368 44.6464-42.9056z" fill="#E01E22" p-id="2285"></path><path d="M425.8816 576.512c-2.048-4.5056-3.1744-9.5232-3.072-14.848l0.1024-11.0592c-5.3248 1.6384-10.3424 4.1984-14.5408 7.68 3.3792 8.0896 9.728 14.6432 17.5104 18.2272z" fill="#F06661" p-id="2286"></path><path d="M302.3872 470.8352c3.3792 6.144 5.3248 13.2096 5.3248 20.6848 0 23.7568-19.2512 43.008-43.008 43.008-7.4752 0-14.5408-1.9456-20.6848-5.3248 7.2704 13.312 21.504 22.3232 37.6832 22.3232 23.7568 0 43.008-19.2512 43.008-43.008 0-16.1792-9.0112-30.3104-22.3232-37.6832z" fill="#E01E22" p-id="2287"></path><path d="M345.2928 349.4912c0-9.1136-0.7168-18.3296-0.7168-18.3296-4.096 4.8128-7.168 10.4448-8.8064 16.7936 2.2528 1.024 5.0176 1.6384 8.4992 1.6384 0.3072-0.1024 0.7168-0.1024 1.024-0.1024z" fill="#F06661" p-id="2288"></path><path d="M377.344 402.0224c11.776 0 22.4256-4.7104 30.208-12.3904l-1.9456-55.7056s-3.1744-9.4208-13.9264-9.4208c-1.024 0-1.9456 0.1024-2.8672 0.2048l1.6384 47.9232c-7.7824 7.68-18.432 12.3904-30.208 12.3904-7.4752 0-14.5408-1.9456-20.6848-5.3248 7.3728 13.312 21.504 22.3232 37.7856 22.3232zM664.4736 321.3312c3.3792 6.144 5.3248 13.2096 5.3248 20.6848 0 23.7568-19.2512 43.008-43.008 43.008-7.4752 0-14.5408-1.9456-20.6848-5.3248 7.2704 13.312 21.504 22.3232 37.6832 22.3232 23.7568 0 43.008-19.2512 43.008-43.008 0-16.2816-9.0112-30.4128-22.3232-37.6832zM562.3808 444.6208c0.7168 1.2288 1.3312 2.56 1.9456 3.8912l-38.1952 14.4384-3.7888 24.8832 59.0848-22.2208c-3.8912-8.9088-10.6496-16.384-19.0464-20.992z" fill="#E01E22" p-id="2289"></path><path d="M548.2496 712.9088c0-7.4752-1.9456-14.5408-5.3248-20.6848-6.144-3.3792-13.2096-5.3248-20.6848-5.3248-23.7568 0-43.008 19.2512-43.008 43.008 0 7.4752 1.9456 14.5408 5.3248 20.6848 6.144 3.3792 13.2096 5.3248 20.6848 5.3248 23.7568 0 43.008-19.2512 43.008-43.008zM455.168 596.6848c-12.6976-0.8192-24.064-8.704-29.2864-20.1728-7.7824-3.584-14.2336-10.0352-17.5104-18.2272-10.24 8.192-16.6912 20.992-16.0768 35.328 0.3072 6.8608 2.1504 13.2096 5.3248 18.944 5.632 3.1744 12.0832 5.0176 18.944 5.3248 16.384 0.512 30.8224-8.0896 38.6048-21.1968zM307.712 491.52c0-7.4752-1.9456-14.5408-5.3248-20.6848-6.144-3.3792-13.2096-5.3248-20.6848-5.3248-23.7568 0-43.008 19.2512-43.008 43.008 0 7.4752 1.9456 14.5408 5.3248 20.6848 6.144 3.3792 13.2096 5.3248 20.6848 5.3248 23.7568 0 43.008-19.2512 43.008-43.008zM405.9136 363.6224l-1.7408-34.5088-15.4624-4.3008c-8.3968 1.2288-11.3664 7.68-11.3664 14.1312v15.872s-4.4032 11.8784-15.9744 11.8784-15.9744-6.656-15.9744-15.9744v-1.024h-1.024c-3.4816 0-6.2464-0.6144-8.4992-1.6384-0.9216 3.584-1.4336 7.2704-1.4336 11.1616 0 7.4752 1.9456 14.5408 5.3248 20.6848 6.144 3.3792 13.2096 5.3248 20.6848 5.3248 11.5712-0.2048 34.816-8.2944 45.4656-21.6064zM669.7984 342.016c0-7.4752-1.9456-14.5408-5.3248-20.6848-6.144-3.3792-13.2096-5.3248-20.6848-5.3248-23.7568 0-43.008 19.2512-43.008 43.008 0 7.4752 1.9456 14.5408 5.3248 20.6848 6.144 3.3792 13.2096 5.3248 20.6848 5.3248 23.7568-0.1024 43.008-19.3536 43.008-43.008zM562.3808 444.6208c-6.144-3.3792-13.2096-5.3248-20.6848-5.3248-4.3008 0-8.3968 0.6144-12.288 1.7408l-3.2768 21.8112s11.0592 3.584 25.9072-4.096 11.0592-12.9024 10.3424-14.1312z" fill="#F06661" p-id="2290"></path><path d="M609.748992 289.024l8.150016-25.991168 25.990144 8.148992-8.148992 25.991168zM746.88 550.495232l8.15104-25.990144 25.98912 8.148992-8.148992 25.991168z" fill="#8B5526" p-id="2291"></path><path d="M515.7888 495.8208c1.8432 1.536 4.096 2.2528 6.4512 2.2528 1.2288 0 2.4576-0.2048 3.584-0.7168L776.3968 402.432c5.2224 6.656 13.2096 10.5472 21.504 10.5472 3.1744 0 6.4512-0.512 9.6256-1.7408l62.0544-23.552c7.0656-2.6624 12.4928-7.9872 15.4624-14.848 2.8672-6.8608 2.8672-14.7456-0.1024-21.504-27.3408-62.976-70.7584-118.5792-125.44-160.5632-55.5008-42.7008-121.344-70.3488-190.5664-80.0768-14.2336-2.048-27.5456 7.8848-29.696 22.1184l-10.24 67.4816c-1.024 7.0656 0.7168 14.0288 4.9152 19.6608s10.24 9.216 17.1008 10.24L512 486.5024c-0.4096 3.3792 1.024 7.0656 3.7888 9.3184zM764.8256 379.904c0.2048 0.3072 0.3072 0.7168 0.512 1.024 0.512 1.024 1.1264 2.048 1.6384 3.1744l-186.88 70.9632c-8.704-12.1856-22.9376-19.7632-38.4-19.7632h-1.024l30.72-201.728c82.2272 17.5104 153.9072 71.68 193.4336 146.3296z m-225.4848 63.5904c0.7168 0 1.536-0.1024 2.3552-0.1024 11.9808 0 23.1424 5.5296 30.3104 14.5408L535.04 472.064l4.3008-28.5696z m9.9328-240.3328l10.24-67.4816c0.4096-2.8672 2.9696-4.9152 5.8368-4.9152 0.3072 0 0.512 0 0.8192 0.1024 131.8912 18.5344 246.784 106.0864 300.032 228.5568 0.7168 1.7408 0.8192 3.6864 0 5.4272-0.7168 1.7408-2.048 3.072-3.8912 3.6864l-62.0544 23.552c-3.3792 1.2288-7.168-0.3072-8.6016-3.584-0.4096-0.9216-0.8192-1.7408-1.2288-2.6624 0-0.1024-0.1024-0.2048-0.1024-0.4096-42.1888-91.8528-126.5664-156.8768-225.792-174.08h-0.2048c-3.3792-0.6144-6.7584-1.1264-10.1376-1.536-1.536-0.2048-2.9696-1.024-3.8912-2.2528-0.8192-1.3312-1.2288-2.8672-1.024-4.4032z m362.3936 235.6224c-1.4336-7.8848-6.3488-14.7456-13.4144-18.7392-7.0656-3.9936-15.5648-4.608-23.1424-1.7408l-63.1808 23.9616c-8.3968 3.1744-14.4384 10.1376-16.6912 18.3296L468.1728 584.8064c-3.072 1.1264-6.2464 1.7408-9.4208 1.7408-6.0416 0-11.9808-2.1504-16.6912-5.9392-7.3728-5.9392-10.9568-15.36-9.6256-24.6784L482.4064 227.328c7.5776-3.7888 13.1072-11.0592 14.4384-19.6608l10.5472-69.632c1.2288-7.9872-1.2288-15.9744-6.7584-21.9136-5.5296-5.9392-13.312-9.0112-21.4016-8.2944-101.5808 8.0896-195.7888 53.8624-265.3184 128.8192C143.9744 312.0128 105.472 410.112 105.472 513.024c0 55.0912 10.8544 108.544 32.3584 158.9248 20.6848 48.64 50.3808 92.16 88.064 129.536s81.6128 66.6624 130.3552 87.04c49.4592 20.5824 101.7856 31.0272 155.648 31.0272h3.584c54.4768-0.512 107.3152-11.5712 156.9792-32.8704 48.0256-20.6848 91.136-49.9712 128.1024-87.2448 36.9664-37.2736 66.048-80.5888 86.2208-128.8192 20.992-49.8688 31.6416-102.912 31.6416-157.4912 0-25.088-2.2528-50.0736-6.7584-74.3424zM458.752 607.0272c4.4032 0 8.704-0.6144 13.0048-1.8432-5.4272 14.848-19.7632 25.6-36.5568 25.6-21.504 0-38.912-17.408-38.912-38.912 0-12.288 5.9392-23.7568 15.4624-31.0272 0.3072 13.7216 6.5536 26.9312 17.5104 35.7376 8.2944 6.656 18.7392 10.4448 29.4912 10.4448z m-46.1824-56.5248c-14.7456 8.192-24.4736 23.9616-24.4736 41.2672 0 26.0096 21.0944 47.104 47.104 47.104 22.528 0 41.472-15.9744 46.08-37.1712L795.9552 482.304c1.1264 10.1376 1.6384 20.3776 1.6384 30.6176 0 157.4912-128.1024 285.5936-285.5936 285.5936-75.776 0-147.456-29.9008-201.6256-84.0704-42.2912-42.2912-69.7344-95.232-79.7696-152.4736 0-0.3072-0.1024-0.512-0.1024-0.8192-0.3072-1.9456-0.6144-3.8912-0.9216-5.9392l-0.3072-2.1504c-0.2048-1.536-0.4096-3.072-0.6144-4.7104-0.1024-1.2288-0.3072-2.3552-0.4096-3.584-0.1024-1.1264-0.3072-2.2528-0.4096-3.3792-0.2048-1.7408-0.3072-3.4816-0.512-5.2224 0-0.6144-0.1024-1.1264-0.1024-1.7408-0.512-7.168-0.8192-14.4384-0.8192-21.8112 0-8.6016 0.4096-17.1008 1.1264-25.4976v-0.2048c0.2048-1.8432 0.3072-3.6864 0.512-5.4272 0-0.3072 0.1024-0.7168 0.1024-1.024 0.2048-1.6384 0.4096-3.2768 0.6144-4.8128 0.1024-0.512 0.1024-1.024 0.2048-1.6384 0.2048-1.4336 0.4096-2.8672 0.6144-4.4032 0.1024-0.7168 0.2048-1.3312 0.3072-2.048 0.2048-1.3312 0.4096-2.6624 0.7168-3.9936 0.1024-0.8192 0.3072-1.6384 0.4096-2.3552 0.2048-1.2288 0.512-2.4576 0.7168-3.6864 0.2048-0.9216 0.3072-1.8432 0.512-2.6624 0.2048-1.1264 0.512-2.2528 0.7168-3.3792 0.2048-1.024 0.4096-1.9456 0.6144-2.9696 0.2048-1.024 0.512-2.048 0.7168-3.072 0.3072-1.024 0.512-2.1504 0.8192-3.1744 0.2048-0.9216 0.512-1.8432 0.7168-2.7648 0.3072-1.1264 0.6144-2.2528 0.9216-3.4816 0.2048-0.8192 0.512-1.6384 0.7168-2.56 0.3072-1.2288 0.7168-2.4576 1.1264-3.6864 0.2048-0.7168 0.512-1.536 0.7168-2.2528 0.4096-1.3312 0.8192-2.56 1.2288-3.8912 0.2048-0.7168 0.4096-1.3312 0.7168-2.048 0.512-1.3312 0.9216-2.7648 1.4336-4.096 0.2048-0.6144 0.4096-1.2288 0.6144-1.7408 0.512-1.4336 1.024-2.8672 1.6384-4.3008l0.6144-1.536c0.6144-1.536 1.2288-2.9696 1.8432-4.5056 0.2048-0.4096 0.3072-0.8192 0.512-1.2288 0.6144-1.6384 1.3312-3.1744 2.048-4.7104 0.1024-0.3072 0.3072-0.6144 0.4096-0.9216 0.7168-1.6384 1.4336-3.3792 2.2528-5.0176 0.1024-0.2048 0.2048-0.4096 0.3072-0.7168l2.4576-5.2224c0.1024-0.1024 0.1024-0.2048 0.2048-0.4096l2.7648-5.5296c23.3472-45.056 58.2656-83.2512 101.1712-110.4896 0 0 0.1024 0 0.1024-0.1024 1.7408-1.1264 3.4816-2.1504 5.2224-3.1744 0.1024-0.1024 0.2048-0.1024 0.3072-0.2048 1.6384-1.024 3.3792-2.048 5.12-2.9696 0.2048-0.1024 0.3072-0.2048 0.512-0.3072 1.6384-0.9216 3.2768-1.8432 5.0176-2.7648l0.6144-0.3072c1.6384-0.9216 3.2768-1.7408 4.9152-2.56 0.3072-0.1024 0.512-0.3072 0.8192-0.4096 1.536-0.8192 3.1744-1.6384 4.8128-2.3552 0.3072-0.2048 0.6144-0.3072 1.024-0.512 1.536-0.7168 3.072-1.536 4.7104-2.2528 0.4096-0.2048 0.7168-0.3072 1.1264-0.512 1.536-0.7168 3.072-1.3312 4.608-2.048 0.4096-0.2048 0.8192-0.4096 1.3312-0.6144 1.536-0.6144 2.9696-1.2288 4.5056-1.8432 0.512-0.2048 0.9216-0.4096 1.4336-0.6144 1.4336-0.6144 2.8672-1.1264 4.4032-1.7408 0.512-0.2048 1.1264-0.4096 1.6384-0.6144l4.3008-1.536c0.6144-0.2048 1.2288-0.4096 1.7408-0.6144 1.3312-0.512 2.7648-0.9216 4.096-1.4336 0.6144-0.2048 1.3312-0.4096 1.9456-0.6144l3.9936-1.2288c0.7168-0.2048 1.4336-0.4096 2.1504-0.7168 1.2288-0.4096 2.56-0.7168 3.8912-1.1264 0.8192-0.2048 1.536-0.4096 2.3552-0.7168l3.6864-0.9216c0.9216-0.2048 1.7408-0.512 2.6624-0.7168 1.1264-0.3072 2.2528-0.512 3.3792-0.8192 1.024-0.2048 1.9456-0.512 2.9696-0.7168l2.7648-0.6144c3.2768-0.7168 6.5536-1.4336 9.9328-1.9456L439.296 374.784v-29.696c0-2.2528-1.8432-4.096-4.096-4.096s-4.096 1.8432-4.096 4.096v36.4544c0 5.632-4.608 10.24-10.24 10.24h-0.7168c-5.632 0-10.24-4.608-10.24-10.24v-42.8032c0-10.1376-8.2944-18.432-18.432-18.432s-18.432 8.2944-18.432 18.432v11.6736c0 6.5536-5.3248 11.9808-11.9808 11.9808s-11.8784-5.3248-11.8784-11.9808V313.344c0-2.2528-1.8432-4.096-4.096-4.096s-4.096 1.8432-4.096 4.096v15.36c-7.0656 8.4992-10.9568 19.1488-10.9568 30.208 0 26.0096 21.0944 47.104 47.104 47.104 11.264 0 21.9136-3.8912 30.4128-11.1616 3.2768 3.072 7.68 4.9152 12.4928 4.9152h0.7168c6.8608 0 12.8-3.7888 15.9744-9.3184l-24.1664 160.0512z m-51.2-179.8144c11.0592 0 20.1728-9.0112 20.1728-20.1728v-11.6736c0-5.632 4.608-10.24 10.24-10.24s10.24 4.608 10.24 10.24v42.8032c0 2.3552 0.4096 4.5056 1.2288 6.5536-7.0656 6.3488-16.1792 9.728-25.8048 9.728-21.4016 0-38.912-17.408-38.912-38.912 0-5.0176 0.9216-9.8304 2.7648-14.4384v5.9392c-0.1024 11.0592 8.9088 20.1728 20.0704 20.1728z m154.0096 528.2816c-103.5264 0.9216-201.216-38.912-274.944-112.0256C166.6048 713.728 126.0544 616.448 126.0544 512.9216c0-199.8848 155.8528-368.8448 354.816-384.7168h0.512c2.1504 0 3.584 1.1264 4.3008 1.8432 0.7168 0.8192 1.8432 2.4576 1.536 4.8128l-10.5472 69.632c-0.3072 2.3552-2.2528 4.3008-4.608 4.8128-73.0112 9.5232-140.288 45.3632-189.3376 100.864-40.2432 45.4656-65.7408 101.4784-73.8304 161.0752l-0.3072 2.1504c-0.2048 1.536-0.4096 3.1744-0.6144 4.7104-0.2048 1.536-0.3072 3.072-0.512 4.608-0.1024 0.7168-0.2048 1.536-0.2048 2.2528-0.8192 9.216-1.2288 18.5344-1.2288 27.8528 0 2.56 0 5.12 0.1024 7.68v0.8192c2.1504 78.6432 33.6896 152.1664 89.4976 207.9744 57.856 57.856 134.656 89.7024 216.4736 89.7024s158.6176-31.8464 216.4736-89.7024c57.856-57.856 89.7024-134.656 89.7024-216.4736 0-14.7456-1.024-29.4912-3.1744-44.032-0.4096-3.2768 1.3312-6.3488 4.3008-7.4752l63.1808-23.9616c2.56-1.024 4.7104-0.1024 5.8368 0.4096 1.024 0.6144 2.7648 1.9456 3.2768 4.608 4.3008 23.04 6.4512 46.7968 6.4512 70.4512-0.2048 211.1488-171.8272 384.3072-382.7712 386.1504z m225.3824-106.7008c1.4336 1.7408 1.1264 4.3008-0.6144 5.7344-28.7744 23.04-60.7232 41.472-94.8224 54.784-0.512 0.2048-1.024 0.3072-1.536 0.3072-1.6384 0-3.1744-1.024-3.7888-2.56-0.8192-2.1504 0.2048-4.5056 2.3552-5.3248 33.3824-13.1072 64.6144-31.1296 92.672-53.5552 1.7408-1.4336 4.3008-1.2288 5.7344 0.6144zM617.5744 858.112c0.6144 2.1504-0.6144 4.4032-2.7648 5.12-10.8544 3.1744-22.016 5.9392-33.1776 7.9872-0.3072 0-0.512 0.1024-0.8192 0.1024-1.9456 0-3.584-1.3312-3.9936-3.2768-0.4096-2.2528 1.024-4.4032 3.2768-4.8128 10.9568-2.048 21.8112-4.7104 32.4608-7.8848 2.048-0.6144 4.4032 0.6144 5.0176 2.7648z m-53.1456 11.8784c0.3072 2.2528-1.2288 4.3008-3.4816 4.608-8.704 1.1264-17.5104 2.048-26.3168 2.56h-0.2048c-2.1504 0-3.9936-1.6384-4.096-3.8912-0.1024-2.2528 1.536-4.1984 3.8912-4.3008 8.6016-0.512 17.2032-1.3312 25.7024-2.4576 2.1504-0.3072 4.3008 1.2288 4.5056 3.4816zM522.24 777.1136c26.0096 0 47.104-21.0944 47.104-47.104s-21.0944-47.104-47.104-47.104-47.104 21.0944-47.104 47.104 21.1968 47.104 47.104 47.104z m0-86.016c21.504 0 38.912 17.408 38.912 38.912s-17.408 38.912-38.912 38.912-38.912-17.408-38.912-38.912 17.5104-38.912 38.912-38.912zM281.7024 461.5168c-26.0096 0-47.104 21.0944-47.104 47.104s21.0944 47.104 47.104 47.104 47.104-21.0944 47.104-47.104-21.0944-47.104-47.104-47.104z m0 85.9136c-21.504 0-38.912-17.408-38.912-38.912s17.408-38.912 38.912-38.912 38.912 17.408 38.912 38.912-17.408 38.912-38.912 38.912z m362.0864-141.312c26.0096 0 47.104-21.0944 47.104-47.104s-21.0944-47.104-47.104-47.104-47.104 21.0944-47.104 47.104 21.1968 47.104 47.104 47.104z m0-86.016c21.504 0 38.912 17.408 38.912 38.912s-17.408 38.912-38.912 38.912-38.912-17.408-38.912-38.912c0-21.4016 17.5104-38.912 38.912-38.912zM388.3008 732.8768l19.2512 19.2512c0.8192 0.8192 1.8432 1.2288 2.8672 1.2288 1.024 0 2.048-0.4096 2.8672-1.2288l19.2512-19.2512c0.8192-0.8192 1.2288-1.8432 1.2288-2.8672s-0.4096-2.1504-1.2288-2.8672l-19.2512-19.2512c-0.8192-0.8192-1.8432-1.2288-2.8672-1.2288s-2.1504 0.4096-2.8672 1.2288l-19.2512 19.2512c-1.6384 1.536-1.6384 4.1984 0 5.7344z m22.1184-16.384l13.4144 13.4144-13.4144 13.5168-13.4144-13.4144 13.4144-13.5168zM405.504 489.7792z m9.3184-33.9968l-26.0096-8.192c-1.024-0.3072-2.1504-0.2048-3.072 0.3072-0.9216 0.512-1.6384 1.3312-2.048 2.4576l-8.192 26.0096c-0.7168 2.1504 0.512 4.5056 2.6624 5.12l26.0096 8.192c0.4096 0.1024 0.8192 0.2048 1.2288 0.2048 1.7408 0 3.3792-1.1264 3.8912-2.8672l8.192-26.0096c0.7168-2.2528-0.512-4.5056-2.6624-5.2224z m-11.9808 24.7808l-18.1248-5.7344 5.7344-18.1248 18.1248 5.7344-5.7344 18.1248z m-126.8736-65.7408l26.0096 8.192c0.4096 0.1024 0.8192 0.2048 1.2288 0.2048 0.6144 0 1.3312-0.2048 1.9456-0.512 0.9216-0.512 1.6384-1.3312 2.048-2.3552l8.192-26.0096c0.3072-1.024 0.2048-2.1504-0.3072-3.072-0.512-0.9216-1.3312-1.6384-2.4576-2.048l-26.0096-8.192c-2.1504-0.7168-4.4032 0.512-5.12 2.6624l-8.192 26.0096c-0.7168 2.1504 0.4096 4.5056 2.6624 5.12z m11.9808-24.6784l18.1248 5.7344-5.7344 18.1248-18.1248-5.7344 5.7344-18.1248z m320.512 362.3936l26.0096 8.192c0.4096 0.1024 0.8192 0.2048 1.2288 0.2048 0.6144 0 1.3312-0.2048 1.8432-0.512 0.9216-0.512 1.6384-1.3312 2.048-2.3552l8.192-26.0096c0.7168-2.1504-0.512-4.5056-2.6624-5.12l-26.0096-8.192c-1.024-0.3072-2.1504-0.2048-3.072 0.3072s-1.6384 1.3312-2.048 2.3552l-8.192 26.0096c-0.7168 2.1504 0.512 4.4032 2.6624 5.12z m12.0832-24.7808l18.1248 5.7344-5.7344 18.1248-18.1248-5.7344 5.7344-18.1248z m-12.0832-434.7904l26.0096 8.192c0.4096 0.1024 0.8192 0.2048 1.2288 0.2048 1.7408 0 3.3792-1.1264 3.8912-2.8672l8.192-26.0096c0.7168-2.1504-0.512-4.5056-2.6624-5.12l-26.0096-8.192c-2.1504-0.7168-4.5056 0.512-5.12 2.6624l-8.192 26.0096c-0.7168 2.1504 0.512 4.4032 2.6624 5.12z m12.0832-24.7808l18.1248 5.7344-5.7344 18.1248-18.1248-5.7344 5.7344-18.1248z m15.1552 33.0752zM518.3488 644.7104l26.0096 8.192c0.4096 0.1024 0.8192 0.2048 1.2288 0.2048 0.6144 0 1.3312-0.2048 1.8432-0.512 0.9216-0.512 1.6384-1.3312 2.048-2.3552l8.192-26.0096c0.3072-1.024 0.2048-2.1504-0.3072-3.072s-1.3312-1.6384-2.3552-2.048l-26.0096-8.192c-2.1504-0.7168-4.5056 0.512-5.12 2.6624l-8.192 26.0096c-0.7168 2.1504 0.512 4.4032 2.6624 5.12z m12.0832-24.7808l18.1248 5.7344-5.7344 18.1248-18.1248-5.7344 5.7344-18.1248z m-227.328-12.9024z m9.4208-33.8944l-26.0096-8.192c-2.1504-0.7168-4.4032 0.512-5.12 2.6624l-8.192 26.0096c-0.3072 1.024-0.2048 2.1504 0.3072 3.072s1.3312 1.6384 2.3552 2.048l26.0096 8.192c0.4096 0.1024 0.8192 0.2048 1.2288 0.2048 1.7408 0 3.3792-1.1264 3.8912-2.8672l8.192-26.0096c0.3072-1.024 0.2048-2.1504-0.3072-3.072-0.512-1.024-1.3312-1.7408-2.3552-2.048z m-12.0832 24.6784l-18.1248-5.7344 5.7344-18.1248 18.1248 5.7344-5.7344 18.1248z m445.2352-43.3152l26.0096 8.192c0.4096 0.1024 0.8192 0.2048 1.2288 0.2048 1.7408 0 3.3792-1.1264 3.8912-2.8672l8.192-26.0096c0.7168-2.1504-0.512-4.5056-2.6624-5.12l-26.0096-8.192c-2.1504-0.7168-4.5056 0.512-5.12 2.6624l-8.192 26.0096c-0.3072 1.024-0.2048 2.1504 0.3072 3.072s1.3312 1.6384 2.3552 2.048z m12.0832-24.7808l18.1248 5.7344-5.7344 18.1248-18.1248-5.7344 5.7344-18.1248z m15.1552 33.0752z m-157.3888 75.776v-37.0688c0-2.2528 1.8432-4.096 4.096-4.096s4.096 1.8432 4.096 4.096v37.0688c0 6.5536 5.3248 11.9808 11.9808 11.9808s11.9808-5.3248 11.9808-11.9808v-11.6736c0-10.1376 8.2944-18.432 18.432-18.432s18.432 8.2944 18.432 18.432V669.696c0 5.632 4.608 10.24 10.24 10.24h0.7168c5.632 0 10.24-4.608 10.24-10.24v-36.4544c0-2.2528 1.8432-4.096 4.096-4.096s4.096 1.8432 4.096 4.096V669.696c0 10.1376-8.2944 18.432-18.432 18.432h-0.7168c-10.1376 0-18.432-8.2944-18.432-18.432v-42.8032c0-5.632-4.608-10.24-10.24-10.24s-10.24 4.608-10.24 10.24v11.6736c0 11.0592-9.0112 20.1728-20.1728 20.1728s-20.1728-9.0112-20.1728-20.1728z" p-id="2292"></path></svg>