<?xml version="1.0" standalone="no"?><!DOCTYPE svg PUBLIC "-//W3C//DTD SVG 1.1//EN" "http://www.w3.org/Graphics/SVG/1.1/DTD/svg11.dtd"><svg t="1697972575659" class="icon" viewBox="0 0 1024 1024" version="1.1" xmlns="http://www.w3.org/2000/svg" p-id="4303" xmlns:xlink="http://www.w3.org/1999/xlink" width="200" height="200"><path d="M0 0h1024v1024H0z" fill="#F7DF1E" p-id="4304"></path><path d="M271.99488 854.8352l74.01472-48.06656c14.27456 27.15648 27.25888 50.15552 58.42944 50.15552 29.85984 0 48.68096-12.53376 48.68096-61.29664V463.99488h90.89024v333.0048c0 101.02784-55.1936 147.00544-135.68 147.00544-72.704 0-114.8928-40.40704-136.33536-89.16992M608.01024 832.79872l78.6432-43.9296c20.6848 32.62464 47.616 56.58624 95.21152 56.58624 40.01792 0 65.536-19.31264 65.536-45.93664 0-31.9488-26.2144-43.27424-70.36928-61.91104l-24.14592-9.99424c-69.69344-28.61056-115.9168-64.55296-115.9168-140.45184 0-69.89824 55.1936-123.16672 141.45536-123.16672 61.39904 0 105.55392 20.64384 137.27744 74.56768l-75.20256 46.592c-16.54784-28.61056-34.48832-39.936-62.07488-39.936-28.30336 0-46.24384 17.3056-46.24384 39.936 0 27.97568 17.94048 39.28064 59.33056 56.58624l24.1664 9.99424c82.10432 33.95584 128.32768 68.56704 128.32768 146.432 0 83.90656-68.3008 129.8432-160.07168 129.8432-89.7024 0-147.6608-41.28768-175.9232-95.21152" fill="#000000" p-id="4305"></path></svg>