<?xml version="1.0" standalone="no"?><!DOCTYPE svg PUBLIC "-//W3C//DTD SVG 1.1//EN" "http://www.w3.org/Graphics/SVG/1.1/DTD/svg11.dtd"><svg t="1698630606375" class="icon" viewBox="0 0 1214 1024" version="1.1" xmlns="http://www.w3.org/2000/svg" p-id="5837" xmlns:xlink="http://www.w3.org/1999/xlink" width="151.75" height="128"><path d="M576.480061 934.030957c1.525381-52.93692 30.377343-32.108733 72.203371-46.564252 9.65519-3.337054 22.285403-8.628171 30.533365-2.603902 11.145731 8.140413 4.647337 32.223856 17.363891 37.589197 0.660443 0.278719 61.354537-20.849394 70.094802 5.225982 28.314216 84.473067-72.903199 53.289863-29.365471 88.967411 6.409022 5.253247 68.766342 18.15915 74.711843-11.445657 6.098493-30.36068-51.653904-30.971135-9.730929-69.691871 13.470914-12.440865 125.279651-37.427116 142.432988-43.910362 19.934468-7.532987 34.147623-49.548363 46.821765-58.980882 11.875854-8.83721 35.848718-20.405564 43.704353-7.860179 4.763974 7.610241-4.461019 77.333922 4.441326 89.564234 2.722055 3.7415 18.457561 13.523931 22.441425 0 3.759677-12.757454 14.65244-29.229142 19.889025-64.517392 2.032831-13.705704-2.291858-35.185246 0-53.018718 0.560468-4.361044-7.060377-8.679674-11.145731-7.054318-5.118432 2.035861-11.315386 8.66907-16.912487 11.987947-19.907202 11.803144-38.841918 19.34825-33.412957-35.90022 5.545599-56.428482 67.6242-42.890917 45.925017-109.213924-10.145978-31.01052-28.964056-58.988455-49.013647-84.73058-20.522202-26.351065-66.760777-12.328772-21.42198-65.168746 8.725117-10.1687 27.226606-5.810685 37.546783-14.357059 7.07401-5.859158 18.525726-20.934221 10.535276-25.463405-0.554408-0.313559-89.602103-28.403588-71.024875-52.646083 7.652655-9.986926-8.759957-32.572255 73.577275-31.392243 0.486243 0.006059 13.042232 37.154456 26.122333 15.235629 10.582234-17.733497 3.005318-44.498096 17.16697-59.527716 21.943063-23.28667 60.856175-24.728738 83.514214-47.320126 14.337367-14.294953 20.53735-36.725774 21.081155-56.966227 0.428682-15.903646-20.916044-28.350571-18.36516-44.054267 1.635959-10.071754 20.175318-6.18635 27.652259-13.128574 4.75943-4.42012 6.346917-11.9319 6.331769-18.427265-0.060591-24.698443 13.476973-59.36412-6.558986-73.802976-15.864262-11.433539-27.664377 31.467982-46.833882 35.324605-8.920523 1.796526-6.707434-18.804445-14.822096-22.91858-15.685518-7.95561-37.781574 0.033325-51.647844-10.785214-63.16924-49.286307-59.891262-109.794084-154.370948-77.283934-29.582085 10.179303-4.009615 46.084068-11.642578 62.781457-13.543623 29.629043-62.222505 44.852554-59.754933 77.335437 1.688977 22.235415 81.308698-7.620844 66.30483 8.873565l10.411063 20.63884c-29.2761 32.184472-226.778815 163.006693-267.509659 170.763867-33.314496 6.345402-133.697268-21.172041-158.64868-38.672263-112.207124-78.700251-85.733362-63.962984-79.392504-66.63505 2.400922-1.013386 28.633834 11.126039-8.210093-10.009648-8.120721-4.65794 4.401943 5.534996 0-2.726599-11.242677-21.088729-12.937712-90.582164-40.636929-105.958668-87.708632-48.692514-53.361058-3.388557-88.987103 25.811804-22.211179 18.207622-55.281795 19.331587-77.635363 37.361981-21.259899 17.150308-24.949896 53.423164-49.571085 65.252059-29.765373 14.299497-67.150075-3.068939-98.883143 6.074256-15.861232 4.568568-22.327816 25.25891-36.884826 33.041836-9.637013 5.153272-28.608083-6.128789-32.528326 4.070207-18.151576 47.224695 74.008986 131.391777 87.023952 180.702321 10.058121 38.101192-12.228797 32.192046-28.094574 71.447497-1.710183 4.229258 2.252474 9.462813 5.710711 12.436322l50.687476 21.774922c6.446892 5.541055-1.199704 18.434839 3.956598 25.193775l37.960317 16.112686c11.259339 14.75696 0.048473 42.853048 15.205334 53.568582 45.402418 32.101159 121.276095 13.543623 194.894269 79.598514 36.497043 32.746454 48.130532-116.422749 109.624428-51.491822 91.32289 96.42466-87.678336 75.076904-15.668855 151.924583 16.92915 18.066748 52.532475 4.264098 71.479308 20.204098 8.210093 6.907384-7.946521 19.934468-11.921297 29.901703l53.248964 25.463405z" fill="#DE2D28" p-id="5838"></path></svg>