<?xml version="1.0" standalone="no"?><!DOCTYPE svg PUBLIC "-//W3C//DTD SVG 1.1//EN" "http://www.w3.org/Graphics/SVG/1.1/DTD/svg11.dtd"><svg t="1698632916338" class="icon" viewBox="0 0 1024 1024" version="1.1" xmlns="http://www.w3.org/2000/svg" p-id="33078" xmlns:xlink="http://www.w3.org/1999/xlink" width="128" height="128"><path d="M512 512m-512 0a512 512 0 1 0 1024 0 512 512 0 1 0-1024 0Z" fill="#1D8FF1" p-id="33079"></path><path d="M120.832 61.44h772.096v946.176H120.832z" fill="#E8F3FF" p-id="33080"></path><path d="M184.32 124.928h643.072V942.08H184.32zM722.944 108.544H301.056c0-51.2 40.96-92.16 92.16-92.16h235.52c53.248 0 94.208 40.96 94.208 92.16z" fill="#FFFFFF" p-id="33081"></path><path d="M307.2 45.056C327.68 18.432 358.4 0 395.264 0h235.52c36.864 0 67.584 18.432 88.064 45.056h174.08c10.24 0 16.384 6.144 16.384 16.384v946.176c-2.048 10.24-8.192 16.384-18.432 16.384H120.832c-10.24 0-16.384-6.144-16.384-16.384V61.44c0-10.24 6.144-16.384 16.384-16.384H307.2z m-16.384 30.72H137.216v913.408h739.328V75.776h-141.312c2.048 8.192 4.096 18.432 4.096 28.672v4.096c0 8.192-6.144 16.384-16.384 16.384H301.056c-10.24 0-16.384-6.144-16.384-16.384 2.048-10.24 2.048-22.528 6.144-32.768z m28.672 16.384h387.072c-8.192-34.816-38.912-61.44-75.776-61.44H393.216c-34.816 2.048-67.584 26.624-73.728 61.44z" fill="#213548" p-id="33082"></path><path d="M417.792 231.424h178.176v98.304h-178.176zM417.792 403.456h178.176v98.304h-178.176zM417.792 571.392h178.176v98.304h-178.176zM417.792 743.424h178.176v98.304h-178.176z" fill="#FBBD5E" p-id="33083"></path><path d="M401.408 466.944h-153.6v139.264h124.928c10.24 0 16.384 6.144 16.384 16.384s-8.192 16.384-18.432 16.384h-139.264c-10.24 0-16.384-6.144-16.384-16.384V450.56c0-10.24 6.144-16.384 16.384-16.384h169.984v-32.768c0-10.24 6.144-16.384 16.384-16.384h178.176c10.24 0 16.384 6.144 16.384 16.384v98.304c0 10.24-8.192 16.384-16.384 16.384h-178.176c-10.24 0-16.384-6.144-16.384-16.384v-32.768z m210.944 139.264h184.32c10.24 0 16.384 6.144 16.384 16.384v169.984c0 8.192-6.144 16.384-16.384 16.384H655.36c-10.24 0-16.384-6.144-16.384-16.384s6.144-16.384 16.384-16.384h124.928v-139.264h-169.984v32.768c0 8.192-8.192 16.384-16.384 16.384h-178.176c-10.24 0-16.384-6.144-16.384-16.384V573.44c0-10.24 6.144-16.384 16.384-16.384H593.92c10.24 0 16.384 6.144 16.384 16.384v32.768z m-32.768 14.336v-30.72h-147.456V655.36h147.456v-34.816z m32.768-356.352h184.32c10.24 0 16.384 6.144 16.384 16.384V450.56c0 10.24-6.144 16.384-16.384 16.384H655.36c-10.24 0-16.384-6.144-16.384-16.384s6.144-16.384 16.384-16.384h124.928v-139.264h-169.984V327.68c0 10.24-8.192 16.384-16.384 16.384h-178.176c-10.24 0-16.384-6.144-16.384-16.384v-98.304c0-10.24 6.144-16.384 16.384-16.384H593.92c10.24 0 16.384 6.144 16.384 16.384v34.816z m-32.768 14.336v-30.72h-147.456v65.536h147.456v-34.816c0 2.048 0 2.048 0 0z m-147.456 204.8h147.456v-65.536h-147.456v65.536z m163.84 372.736h-178.176c-10.24 0-16.384-6.144-16.384-16.384v-98.304c0-10.24 6.144-16.384 16.384-16.384h178.176c10.24 0 16.384 6.144 16.384 16.384V839.68c0 10.24-8.192 16.384-16.384 16.384z m-163.84-32.768h147.456V757.76h-147.456v65.536zM247.808 178.176h32.768v32.768h-32.768V178.176z m0 71.68h32.768v32.768h-32.768v-32.768z m0 73.728h32.768v32.768h-32.768v-32.768z m0 378.88h32.768v32.768h-32.768v-32.768z m0 73.728h32.768v32.768h-32.768v-32.768z m0 71.68h32.768V880.64h-32.768v-32.768z" fill="#213548" p-id="33084"></path></svg>