<svg t="1700465608904" class="icon" viewBox="0 0 1024 1024" version="1.1" xmlns="http://www.w3.org/2000/svg" p-id="6334" width="128" height="128"><path d="M508.988235 512m-466.823529 0a466.823529 466.823529 0 1 0 933.647059 0 466.823529 466.823529 0 1 0-933.647059 0Z" fill="#F3F9FF" p-id="6335"></path><path d="M764.988235 935.152941l-590.305882-124.988235c-16.564706-3.011765-27.105882-19.576471-22.588235-36.141177L299.670588 75.294118c3.011765-16.564706 19.576471-27.105882 36.141177-22.588236l590.305882 124.988236c16.564706 3.011765 27.105882 19.576471 22.588235 36.141176l-147.57647 698.729412c-4.517647 16.564706-19.576471 27.105882-36.141177 22.588235z" fill="#CBE1FF" p-id="6336"></path><path d="M771.011765 951.717647c-3.011765 0-6.023529 0-9.035294-1.505882l-590.305883-124.988236c-12.047059-3.011765-22.588235-9.035294-28.611764-19.57647-6.023529-10.541176-9.035294-22.588235-6.02353-34.635294l147.576471-698.729412c1.505882-9.035294 9.035294-19.576471 18.070588-27.105882 10.541176-6.023529 22.588235-9.035294 34.635294-6.02353l590.305882 124.988235c24.094118 4.517647 40.658824 28.611765 34.635295 54.211765l-147.576471 698.729412c-3.011765 12.047059-9.035294 22.588235-19.576471 28.611765-7.529412 3.011765-15.058824 6.023529-24.094117 6.023529zM328.282353 69.270588c-7.529412 0-13.552941 4.517647-15.058824 12.047059L165.647059 778.541176c-1.505882 4.517647 0 7.529412 1.505882 12.047059 1.505882 3.011765 6.023529 6.023529 9.035294 6.02353L768 921.6c4.517647 1.505882 7.529412 0 10.541176-1.505882 3.011765-1.505882 6.023529-6.023529 6.02353-9.035294L933.647059 210.823529c1.505882-7.529412-3.011765-16.564706-12.047059-18.070588L331.294118 69.270588h-3.011765z" fill="#6FAEFF" p-id="6337"></path><path d="M700.235294 933.647059h-602.352941c-16.564706 0-30.117647-13.552941-30.117647-30.117647V150.588235c0-16.564706 13.552941-30.117647 30.117647-30.117647h602.352941c16.564706 0 30.117647 13.552941 30.117647 30.117647v752.941177c0 16.564706-13.552941 30.117647-30.117647 30.117647z" fill="#FFFFFF" p-id="6338"></path><path d="M700.235294 948.705882h-602.352941c-25.6 0-45.176471-19.576471-45.176471-45.17647V150.588235c0-25.6 19.576471-45.176471 45.176471-45.17647h602.352941c25.6 0 45.176471 19.576471 45.176471 45.17647v752.941177c0 25.6-19.576471 45.176471-45.176471 45.17647zM97.882353 135.529412c-7.529412 0-15.058824 6.023529-15.058824 15.058823v752.941177c0 7.529412 6.023529 15.058824 15.058824 15.058823h602.352941c7.529412 0 15.058824-6.023529 15.058824-15.058823V150.588235c0-7.529412-6.023529-15.058824-15.058824-15.058823h-602.352941z" fill="#6FAEFF" p-id="6339"></path><path d="M768 768m-135.529412 0a135.529412 135.529412 0 1 0 271.058824 0 135.529412 135.529412 0 1 0-271.058824 0Z" fill="#FFFFFF" p-id="6340"></path><path d="M969.788235 811.670588l-34.635294-34.635294c0-6.023529 1.505882-10.541176 1.505883-16.564706 0-6.023529 0-10.541176-1.505883-16.564706l34.635294-34.635294c10.541176-6.023529 13.552941-19.576471 7.529412-30.117647l-33.129412-57.223529c-6.023529-10.541176-19.576471-13.552941-30.117647-7.529412l-48.188235 12.047059c-9.035294-6.023529-18.070588-12.047059-27.105882-16.564706l-13.552942-46.682353c0-12.047059-9.035294-22.588235-22.588235-22.588235H737.882353c-12.047059 0-22.588235 10.541176-22.588235 22.588235l-13.552942 46.682353c-9.035294 4.517647-19.576471 9.035294-27.105882 16.564706l-48.188235-12.047059c-10.541176-6.023529-24.094118-3.011765-30.117647 7.529412l-33.129412 57.223529c-6.023529 10.541176-3.011765 24.094118 7.529412 30.117647l34.635294 34.635294c0 6.023529-1.505882 10.541176-1.505882 16.564706 0 6.023529 0 10.541176 1.505882 16.564706l-34.635294 34.635294c-10.541176 6.023529-13.552941 19.576471-7.529412 30.117647l33.129412 57.22353c6.023529 10.541176 19.576471 13.552941 30.117647 7.529411l48.188235-12.047058c9.035294 6.023529 18.070588 12.047059 27.105882 16.564706l13.552942 46.682352c0 12.047059 10.541176 22.588235 22.588235 22.588236h64.752941c12.047059 0 22.588235-9.035294 22.588235-22.588236l13.552942-46.682352c9.035294-4.517647 19.576471-9.035294 27.105882-16.564706l48.188235 12.047058c10.541176 6.023529 24.094118 3.011765 30.117647-7.529411l33.129412-57.22353c6.023529-10.541176 3.011765-24.094118-7.529412-30.117647z m-197.270588 25.6c-42.164706 0-76.8-34.635294-76.8-76.8s34.635294-76.8 76.8-76.8 76.8 34.635294 76.8 76.8-34.635294 76.8-76.8 76.8z m0 0" fill="#6FAEFF" p-id="6341"></path><path d="M805.647059 993.882353h-64.752941c-19.576471 0-36.141176-15.058824-36.141177-34.635294l-12.047059-39.152941c-6.023529-3.011765-12.047059-6.023529-18.070588-10.541177l-39.152941 10.541177c-16.564706 9.035294-39.152941 3.011765-48.188235-15.058824l-33.129412-57.223529c-4.517647-9.035294-6.023529-18.070588-3.011765-28.611765 3.011765-9.035294 7.529412-16.564706 15.058824-21.082353l28.611764-28.611765v-10.541176-10.541177l-28.611764-28.611764c-16.564706-10.541176-21.082353-31.623529-12.047059-49.694118l33.129412-57.223529c10.541176-16.564706 31.623529-22.588235 48.188235-15.058824l39.152941 10.541177c6.023529-3.011765 12.047059-7.529412 18.070588-10.541177l10.541177-39.152941c1.505882-19.576471 16.564706-34.635294 36.141176-34.635294h64.752941c19.576471 0 36.141176 15.058824 36.141177 34.635294l10.541176 39.152941c6.023529 3.011765 12.047059 6.023529 18.070589 10.541177l39.152941-10.541177c7.529412-4.517647 16.564706-4.517647 25.6-3.011765 9.035294 3.011765 18.070588 9.035294 22.588235 16.564706l33.129412 57.22353c9.035294 16.564706 4.517647 39.152941-12.047059 49.694117L948.705882 746.917647V768l28.611765 28.611765c16.564706 10.541176 21.082353 33.129412 12.047059 49.694117L956.235294 903.529412c-10.541176 16.564706-31.623529 22.588235-48.188235 15.058823l-39.152941-10.541176c-6.023529 3.011765-12.047059 7.529412-18.070589 10.541176l-10.541176 39.152941c0 21.082353-15.058824 36.141176-34.635294 36.141177z m-124.988235-115.952941l6.023529 4.517647c7.529412 6.023529 16.564706 10.541176 25.6 15.058823l6.023529 3.011765 15.058824 58.729412c0 3.011765 3.011765 7.529412 7.529412 7.529412h64.752941c3.011765 0 7.529412-3.011765 7.529412-7.529412v-4.517647l15.058823-54.211765 6.02353-3.011765c9.035294-4.517647 16.564706-9.035294 25.6-15.058823l6.023529-4.517647 58.729412 15.058823c3.011765 1.505882 7.529412 0 9.035294-3.011764l33.129412-57.22353c1.505882-3.011765 1.505882-4.517647 0-7.529412H963.764706l-4.517647-4.517647-39.152941-40.658823v-7.529412-15.058823-22.588236l42.164706-42.164706c3.011765-1.505882 4.517647-6.023529 3.011764-9.035294l-33.129412-57.223529c-1.505882-1.505882-3.011765-3.011765-4.517647-3.011765h-4.517647l-4.517647 6.02353-54.211764 13.552941-6.02353-3.011765c-7.529412-6.023529-16.564706-10.541176-25.6-15.058824l-6.023529-3.011764-15.058824-58.729412c0-3.011765-3.011765-7.529412-7.529412-7.529412h-64.752941c-3.011765 0-7.529412 3.011765-7.529411 7.529412v4.517647l-15.058824 54.211765-6.023529 3.011764c-9.035294 4.517647-16.564706 9.035294-25.6 15.058824l-6.02353 4.517647-58.729412-15.058823c-3.011765-1.505882-7.529412 0-9.035294 3.011764l-33.129411 57.22353c-1.505882 3.011765-1.505882 4.517647 0 7.529411h1.505882l43.670588 45.176471v45.176471l-42.164706 42.164705c-1.505882 1.505882-3.011765 3.011765-3.011764 4.517648v4.517647l33.129411 57.223529c1.505882 3.011765 6.023529 4.517647 9.035294 3.011765l3.011765-1.505883 57.22353-19.57647z m91.858823-25.6c-51.2 0-91.858824-40.658824-91.858823-91.858824s40.658824-91.858824 91.858823-91.858823 91.858824 40.658824 91.858824 91.858823c0 49.694118-42.164706 91.858824-91.858824 91.858824z m0-153.6c-33.129412 0-61.741176 27.105882-61.741176 61.741176s27.105882 61.741176 61.741176 61.741177c33.129412 0 61.741176-27.105882 61.741177-61.741177s-28.611765-61.741176-61.741177-61.741176z" fill="#518FDF" p-id="6342"></path><path d="M180.705882 301.176471h421.647059" fill="#6FAEFF" p-id="6343"></path><path d="M602.352941 316.235294H180.705882c-9.035294 0-15.058824-6.023529-15.058823-15.058823s6.023529-15.058824 15.058823-15.058824h421.647059c9.035294 0 15.058824 6.023529 15.058824 15.058824s-6.023529 15.058824-15.058824 15.058823z" fill="#518FDF" p-id="6344"></path><path d="M466.823529 301.176471m-60.235294 0a60.235294 60.235294 0 1 0 120.470589 0 60.235294 60.235294 0 1 0-120.470589 0Z" fill="#6FAEFF" p-id="6345"></path><path d="M180.705882 527.058824h421.647059" fill="#6FAEFF" p-id="6346"></path><path d="M602.352941 542.117647H180.705882c-9.035294 0-15.058824-6.023529-15.058823-15.058823s6.023529-15.058824 15.058823-15.058824h421.647059c9.035294 0 15.058824 6.023529 15.058824 15.058824s-6.023529 15.058824-15.058824 15.058823z" fill="#518FDF" p-id="6347"></path><path d="M286.117647 527.058824m-45.176471 0a45.176471 45.176471 0 1 0 90.352942 0 45.176471 45.176471 0 1 0-90.352942 0Z" fill="#6FAEFF" p-id="6348"></path><path d="M176.188235 752.941176h280.094118" fill="#6FAEFF" p-id="6349"></path><path d="M456.282353 768H176.188235c-6.023529 0-10.541176-6.023529-10.541176-15.058824s4.517647-15.058824 10.541176-15.058823h281.6c6.023529 0 10.541176 6.023529 10.541177 15.058823s-6.023529 15.058824-12.047059 15.058824z" fill="#518FDF" p-id="6350"></path><path d="M316.235294 752.941176m-45.17647 0a45.176471 45.176471 0 1 0 90.352941 0 45.176471 45.176471 0 1 0-90.352941 0Z" fill="#6FAEFF" p-id="6351"></path></svg>