<?xml version="1.0" standalone="no"?><!DOCTYPE svg PUBLIC "-//W3C//DTD SVG 1.1//EN" "http://www.w3.org/Graphics/SVG/1.1/DTD/svg11.dtd"><svg t="1697972738140" class="icon" viewBox="0 0 1024 1024" version="1.1" xmlns="http://www.w3.org/2000/svg" p-id="7374" xmlns:xlink="http://www.w3.org/1999/xlink" width="200" height="200"><path d="M541.767442 337.411969c154.473178 0 282.195349 115.680248 301.167132 265.088992 1.587597 12.613457-13.653333 18.765395-25.322171 24.599814-15.875969 7.937984-22.782016 2.341705-55.565891 15.875969-25.48093 10.525767-47.627907 47.627907-47.627907 87.31783 0 38.403969 49.612403 67.687194 23.813953 95.255814-55.407132 59.169736-118.990388 87.317829-206.387597 87.317829-96.525891 0-172.651163-13.367566-228.280558-83.650481-22.186667-28.029023 28.354481-77.387411 13.51045-110.782511-31.751938-71.44186-78.935318-44.849612-78.935318-77.419163 0-167.562915 136.057054-303.604093 303.627907-303.604093z" fill="#FFCB01" p-id="7375"></path><path d="M507.713488 420.713178c-78.824186 0-142.883721 64.027783-142.883721 142.883721s64.059535 142.883721 142.883721 142.883721 142.883721-64.027783 142.883721-142.883721-64.059535-142.883721-142.883721-142.883721z m0 63.503876c43.817674 0 79.379845 35.570109 79.379845 79.379845s-35.562171 79.379845-79.379845 79.379845-79.379845-35.570109-79.379845-79.379845 35.562171-79.379845 79.379845-79.379845zM508.031008 79.379845c-74.505922 0-134.977488 60.471566-134.977489 134.945736 0 74.482109 60.471566 134.945736 134.977489 134.945737 74.505922 0 134.977488-60.463628 134.977488-134.945737 0-74.474171-60.471566-134.945736-134.977488-134.945736z m0 63.503876c39.420031 0 71.410109 32.013891 71.410108 71.44186s-31.990078 71.44186-71.410108 71.441861-71.410109-32.013891-71.410109-71.441861 31.990078-71.44186 71.410109-71.44186zM203.728372 598.17476c-74.505922 0-134.977488 60.463628-134.977488 134.945736 0 74.474171 60.471566 134.945736 134.977488 134.945737 74.505922 0 134.977488-60.471566 134.977488-134.945737 0-74.482109-60.471566-134.945736-134.977488-134.945736z m0 63.503876c39.420031 0 71.410109 32.013891 71.410109 71.44186 0 39.420031-31.990078 71.44186-71.410109 71.441861s-71.410109-32.021829-71.410108-71.441861c0-39.427969 31.990078-71.44186 71.410108-71.44186zM808.102698 598.17476c-74.505922 0-134.977488 60.463628-134.977489 134.945736 0 74.474171 60.471566 134.945736 134.977489 134.945737 74.505922 0 134.977488-60.471566 134.977488-134.945737 0-74.482109-60.471566-134.945736-134.977488-134.945736z m0 63.503876c39.420031 0 71.410109 32.013891 71.410108 71.44186 0 39.420031-31.990078 71.44186-71.410108 71.441861s-71.410109-32.021829-71.410109-71.441861c0-39.427969 31.990078-71.44186 71.410109-71.44186z" p-id="7376"></path><path d="M603.763101 260.873922C732.096496 301.611659 825.256682 421.816558 825.256682 563.596899c0 20.622884-1.96862 40.793302-5.770915 60.328682l62.416373 12.002233c4.477023-23.424992 6.826667-47.604093 6.826666-72.330915 0-170.134822-111.766822-314.368-265.739907-363.24217l-19.209922 60.519193zM733.231628 786.987659C675.665364 845.093705 595.864806 881.116279 507.713488 881.116279c-88.151318 0-167.991566-36.022574-225.541953-94.12862l-45.119504 44.690853C306.112496 901.413705 401.947783 944.620155 507.721426 944.620155c105.765705 0 201.585116-43.20645 270.685272-112.941643l-45.183008-44.690853zM201.227907 646.834605A317.503504 317.503504 0 0 1 190.194109 563.596899c0-146.360558 99.240682-269.732713 234.075286-306.414139l-16.701519-61.281241C245.79969 239.917643 126.690233 387.961054 126.690233 563.596899c0 34.554047 4.619907 68.028527 13.256434 99.867783l61.28124-16.630077z" p-id="7377"></path></svg>