<?xml version="1.0" standalone="no"?><!DOCTYPE svg PUBLIC "-//W3C//DTD SVG 1.1//EN" "http://www.w3.org/Graphics/SVG/1.1/DTD/svg11.dtd"><svg t="1698632655307" class="icon" viewBox="0 0 1024 1024" version="1.1" xmlns="http://www.w3.org/2000/svg" p-id="10872" xmlns:xlink="http://www.w3.org/1999/xlink" width="128" height="128"><path d="M512 1024C76.96384 1024 0 947.022507 0 512S76.96384 0 512 0 1024 76.96384 1024 512 947.022507 1024 512 1024z m0-998.4C98.7136 25.6 25.6 98.7136 25.6 512S98.7136 998.4 512 998.4 998.4 925.272747 998.4 512 925.272747 25.6 512 25.6z" fill="#EAC1B2" p-id="10873"></path><path d="M279.893333 785.066667c-101.034667 0-177.793707-5.270187-236.05248-21.149014C30.26944 698.69568 25.6 616.174933 25.6 512 25.6 98.7136 98.7136 25.6 512 25.6c31.402667 0 60.648107 0.49152 88.255147 1.447253C671.45728 83.367253 689.493333 187.665067 689.493333 375.466667c0 348.023467-61.576533 409.6-409.6 409.6z" fill="#EAC1B2" opacity=".2" p-id="10874"></path><path d="M560.674133 823.650987L315.26912 681.970347V398.677333l245.405013-141.748906L806.065493 398.677333v283.293014z" fill="#EAC1B2" p-id="10875"></path><path d="M583.256747 457.386667a36.631893 36.631893 0 0 1 38.78912-8.492374 3.85024 3.85024 0 0 0 1.242453 0.477867 8.451413 8.451413 0 0 0 8.383147-2.12992 8.615253 8.615253 0 0 0 0-12.00128L556.76928 360.448l-61.89056 61.863253a8.465067 8.465067 0 0 1-13.653333-9.557333 36.768427 36.768427 0 1 0-22.07744 21.845333 4.396373 4.396373 0 0 1 1.829546-0.723626c0.191147 0 0.273067-0.109227 0.45056-0.109227a8.451413 8.451413 0 0 1 7.673174 14.308693l-60.962134 60.934827 71.857494 71.816533a8.451413 8.451413 0 0 1-8.3968 14.1312 5.625173 5.625173 0 0 1-1.215147-0.477866 36.74112 36.74112 0 1 0 21.845333 22.063786 4.369067 4.369067 0 0 1-0.709973-1.911466c0-0.232107-0.095573-0.232107-0.095573-0.45056a8.465067 8.465067 0 0 1 14.322346-7.673174l47.786667 47.786667 145.408-145.32608 3.222187-3.222187-44.755627-44.72832a8.192 8.192 0 0 0-8.492373-2.034346 7.918933 7.918933 0 0 0-3.508907 2.034346 8.43776 8.43776 0 0 0-2.307413 7.673174c0 0.16384 0.109227 0.273067 0.109226 0.45056a4.778667 4.778667 0 0 0 0.73728 1.8432 36.768427 36.768427 0 1 1-60.675413-13.571414z m169.69728 266.717866a9.91232 9.91232 0 0 1-4.95616-18.459306l38.324906-22.145707a34.73408 34.73408 0 0 0 17.312427-29.914453v-281.258667a34.69312 34.69312 0 0 0-17.28512-29.914453l-243.698347-140.629334a34.65216 34.65216 0 0 0-34.57024 0l-92.16 53.248a9.898667 9.898667 0 1 1-9.898666-17.134933l92.16-53.248a54.613333 54.613333 0 0 1 54.381226 0l243.698347 140.629333a54.613333 54.613333 0 0 1 27.19744 47.076694v281.258666a54.504107 54.504107 0 0 1-27.19744 47.06304l-38.352213 22.1184a9.734827 9.734827 0 0 1-4.95616 1.365334zM378.361173 312.169813a47.3088 47.3088 0 1 1 47.336107-47.295146 47.39072 47.39072 0 0 1-47.336107 47.322453z m0-74.83392a26.99264 26.99264 0 1 0 27.52512 27.538774 27.579733 27.579733 0 0 0-27.52512-27.511467z m146.978134 611.20512a54.326613 54.326613 0 0 1-27.19744-7.263573l-243.712-140.629333a54.490453 54.490453 0 0 1-27.19744-47.06304v-281.258667a54.613333 54.613333 0 0 1 27.19744-47.076693l38.365866-22.145707a9.898667 9.898667 0 1 1 9.91232 17.134933l-38.352213 22.145707a34.679467 34.679467 0 0 0-17.230507 29.969067v281.258666a34.679467 34.679467 0 0 0 17.28512 29.914454l243.698347 140.629333a34.69312 34.69312 0 0 0 34.57024 0l92.173653-53.248a9.898667 9.898667 0 1 1 9.898667 17.16224l-92.16 53.248a54.613333 54.613333 0 0 1-27.19744 7.263573z m0 0l146.978133-40.127146a47.322453 47.322453 0 1 1 47.377067-47.3088 47.377067 47.377067 0 0 1-47.377067 47.3088z m0-74.83392a27.552427 27.552427 0 1 0 26.50112 27.52512 27.552427 27.552427 0 0 0-26.50112-27.52512z m0 0" fill="#9B3A18" p-id="10876"></path></svg>