<?xml version="1.0" standalone="no"?><!DOCTYPE svg PUBLIC "-//W3C//DTD SVG 1.1//EN" "http://www.w3.org/Graphics/SVG/1.1/DTD/svg11.dtd"><svg t="1697972775300" class="icon" viewBox="0 0 1024 1024" version="1.1" xmlns="http://www.w3.org/2000/svg" p-id="9299" xmlns:xlink="http://www.w3.org/1999/xlink" width="200" height="200"><path d="M832.4 355.5L555.3 101.4C543 90.1 527.5 84.5 512 84.5c-15.5 0-31 5.6-43.3 16.8L191.6 355.5c-13.2 12.1-20.7 29.2-20.7 47.2v472c0 35.3 28.7 64 64 64h406c35.3 0 64-28.7 64-64V688.1c0-17.7-14.3-32-32-32s-32 14.3-32 32v186.6h-406v-472L512 148.5l277.1 254.1v504c0 17.7 14.3 32 32 32s32-14.3 32-32V402.7c0-18-7.5-35.1-20.7-47.2z" p-id="9300"></path><path d="M540.5 489.6H341.6c-17.7 0-32-14.3-32-32s14.3-32 32-32h198.9c17.7 0 32 14.3 32 32 0 17.6-14.3 32-32 32zM540.5 628H341.6c-17.7 0-32-14.3-32-32s14.3-32 32-32h198.9c17.7 0 32 14.3 32 32 0 17.6-14.3 32-32 32zM540.5 766.4H341.6c-17.7 0-32-14.3-32-32s14.3-32 32-32h198.9c17.7 0 32 14.3 32 32s-14.3 32-32 32z" fill="#FFCE00" p-id="9301"></path></svg>