<?xml version="1.0" standalone="no"?><!DOCTYPE svg PUBLIC "-//W3C//DTD SVG 1.1//EN" "http://www.w3.org/Graphics/SVG/1.1/DTD/svg11.dtd"><svg t="1699095336681" class="icon" viewBox="0 0 1024 1024" version="1.1" xmlns="http://www.w3.org/2000/svg" p-id="7753" xmlns:xlink="http://www.w3.org/1999/xlink" width="256" height="256"><path d="M947.21 284.11c0 290.64-179.61 539.31-434.03 640.74-254.19-101.43-433.8-350.11-433.8-640.74 0-37.17 2.88-73.62 8.63-109.11 23.5 2.4 47.24 3.6 71.46 3.6 125.89 0 243.63-33.57 345.07-92.56 101.43 58.99 219.18 92.56 344.83 92.56 29.97 0 59.71-1.92 88.72-5.99 6.01 36.2 9.12 73.61 9.12 111.5z" fill="#F7B52C" p-id="7754"></path><path d="M514.18 531.06H416.9l16.86-222.45h196.89z" fill="#FFFFFF" p-id="7755"></path><path d="M479.08 737.73l35.77-222.45h146.41z" fill="#FFFFFF" p-id="7756"></path></svg>