<svg version="1.1" xmlns="http://www.w3.org/2000/svg" viewBox="0 0 1401.140625 256.4453125" width="2802.28125" height="512.890625">
  <!-- svg-source:excalidraw -->
  
  <defs>
    <style class="style-fonts">
      @font-face {
        font-family: "Virgil";
        src: url("https://excalidraw.com/Virgil.woff2");
      }
      @font-face {
        font-family: "Cascadia";
        src: url("https://excalidraw.com/Cascadia.woff2");
      }
    </style>
    
  </defs>
  <g transform="translate(155.00390625 17.54296875) rotate(0 537.5715942382812 17.5)"><text x="0" y="0" font-family="Virgil, Segoe UI Emoji" font-size="28px" fill="#1971c2" text-anchor="start" style="white-space: pre;" direction="ltr" dominant-baseline="text-before-edge">docker buildx build --platform linux/amd64 -t 57878778/node-api-amd64:0.0.2 .</text></g><g stroke-linecap="round" transform="translate(246.53125 11.3984375) rotate(0 44.353515625 23.94140625)"><path d="M11.97 0 M11.97 0 C31.43 -1.27, 54.1 0.57, 76.74 0 M11.97 0 C33.61 -0.35, 53.87 -0.32, 76.74 0 M76.74 0 C84.71 0.62, 87.08 2.4, 88.71 11.97 M76.74 0 C85.23 1.51, 89.87 3.76, 88.71 11.97 M88.71 11.97 C87.56 18.28, 87.04 21.28, 88.71 35.91 M88.71 11.97 C88.47 20.23, 89.28 28.17, 88.71 35.91 M88.71 35.91 C88.41 44.44, 82.75 48.21, 76.74 47.88 M88.71 35.91 C89.03 43.67, 85.84 45.91, 76.74 47.88 M76.74 47.88 C63.02 47.8, 48.43 47.27, 11.97 47.88 M76.74 47.88 C54.43 48.44, 31.95 48.6, 11.97 47.88 M11.97 47.88 C3.35 47.44, 1.37 41.9, 0 35.91 M11.97 47.88 C3.81 47.78, -1.73 42.76, 0 35.91 M0 35.91 C-1.59 29.4, 0.71 23.64, 0 11.97 M0 35.91 C-0.03 30.76, 0.86 24.21, 0 11.97 M0 11.97 C-0.68 4.82, 5.41 -0.25, 11.97 0 M0 11.97 C-1.51 2.02, 3.35 0.19, 11.97 0" stroke="#2f9e44" stroke-width="1" fill="none"></path></g><g stroke-linecap="round"><g transform="translate(284.90625 71.90625) rotate(0 -42.15033605635165 27.824912643171842)"><path d="M-0.79 -1.03 C-14.96 8.18, -70.18 45.81, -84.18 55.09 M1 1.05 C-13.43 10.48, -71.4 47.55, -85.3 56.68" stroke="#f08c00" stroke-width="1" fill="none"></path></g><g transform="translate(284.90625 71.90625) rotate(0 -42.15033605635165 27.824912643171842)"><path d="M-68.92 32.19 C-73.78 39.92, -81.19 50.06, -84.58 58.27 M-67.3 32.42 C-73.19 41.52, -80.21 50.12, -84.68 57.41" stroke="#f08c00" stroke-width="1" fill="none"></path></g><g transform="translate(284.90625 71.90625) rotate(0 -42.15033605635165 27.824912643171842)"><path d="M-57.77 49.43 C-66.75 50.69, -78.29 54.44, -84.58 58.27 M-56.15 49.65 C-65.89 52.86, -76.79 55.47, -84.68 57.41" stroke="#f08c00" stroke-width="1" fill="none"></path></g></g><mask></mask><g transform="translate(10 147.9765625) rotate(0 220.77993774414062 17.5)"><text x="0" y="0" font-family="Virgil, Segoe UI Emoji" font-size="28px" fill="#e03131" text-anchor="start" style="white-space: pre;" direction="ltr" dominant-baseline="text-before-edge">Buildx 使用 BuildKit 引擎 进行构建</text></g><g stroke-linecap="round" transform="translate(408.28515625 10) rotate(0 161.4609375 25.96875)"><path d="M12.98 0 M12.98 0 C88.55 -1.06, 162.07 -0.29, 309.94 0 M12.98 0 C128.06 0.13, 241.91 -0.05, 309.94 0 M309.94 0 C317.12 0.49, 322.6 3.18, 322.92 12.98 M309.94 0 C319.04 -0.99, 322.58 4.43, 322.92 12.98 M322.92 12.98 C323.05 19.3, 323.44 29.05, 322.92 38.95 M322.92 12.98 C323.64 18.66, 322.38 23.66, 322.92 38.95 M322.92 38.95 C322.22 46.3, 319.31 50.28, 309.94 51.94 M322.92 38.95 C322.81 46.84, 318 50.13, 309.94 51.94 M309.94 51.94 C230.77 53.74, 152.39 52.02, 12.98 51.94 M309.94 51.94 C214.58 51.14, 119.58 52.09, 12.98 51.94 M12.98 51.94 C3.13 50.14, 1.95 47.94, 0 38.95 M12.98 51.94 C5.91 51.33, -1.53 49.91, 0 38.95 M0 38.95 C1.1 30.3, -1.14 20.73, 0 12.98 M0 38.95 C-0.86 29.76, 0.16 22.01, 0 12.98 M0 12.98 C-0.79 2.77, 3.91 1.08, 12.98 0 M0 12.98 C-1.38 6.45, 3.07 -1.96, 12.98 0" stroke="#2f9e44" stroke-width="1" fill="none"></path></g><g stroke-linecap="round"><g transform="translate(566.4946461419895 75.18359375) rotate(0 3.815773506112066 34.07722601179033)"><path d="M0.12 0.44 C1.46 12.01, 7.37 57.2, 8.91 68.53 M-1.28 -0.37 C-0.2 10.95, 6.12 55.76, 7.78 66.91" stroke="#f08c00" stroke-width="1" fill="none"></path></g><g transform="translate(566.4946461419895 75.18359375) rotate(0 3.815773506112066 34.07722601179033)"><path d="M-5.65 39.87 C0.24 50.41, 5.3 58.7, 7.16 65.96 M-6.18 40.88 C-1.73 48.32, 1.63 54.75, 8.29 67.59" stroke="#f08c00" stroke-width="1" fill="none"></path></g><g transform="translate(566.4946461419895 75.18359375) rotate(0 3.815773506112066 34.07722601179033)"><path d="M14.66 36.96 C13.04 48.59, 10.6 57.95, 7.16 65.96 M14.14 37.96 C13.03 46.06, 10.84 53.29, 8.29 67.59" stroke="#f08c00" stroke-width="1" fill="none"></path></g></g><mask></mask><g transform="translate(515.953125 155.890625) rotate(0 56 17.5)"><text x="0" y="0" font-family="Virgil, Segoe UI Emoji" font-size="28px" fill="#e03131" text-anchor="start" style="white-space: pre;" direction="ltr" dominant-baseline="text-before-edge">平台选择</text></g><g stroke-linecap="round" transform="translate(734.57421875 10.0625) rotate(0 240.146484375 26.490234375)"><path d="M13.25 0 M13.25 0 C175.36 -1.2, 338.72 -0.42, 467.05 0 M13.25 0 C114.8 -1.93, 216.28 -1.51, 467.05 0 M467.05 0 C474.59 -0.74, 479.6 4.6, 480.29 13.25 M467.05 0 C476.29 -1.92, 478.08 3.2, 480.29 13.25 M480.29 13.25 C479.41 19.85, 480.01 24.54, 480.29 39.74 M480.29 13.25 C480.1 20, 479.21 25.78, 480.29 39.74 M480.29 39.74 C481.13 46.94, 476.74 52.67, 467.05 52.98 M480.29 39.74 C482.06 49.59, 475.52 54.36, 467.05 52.98 M467.05 52.98 C364.07 51.01, 260.63 51.23, 13.25 52.98 M467.05 52.98 C326.9 52.27, 186.96 52.11, 13.25 52.98 M13.25 52.98 C4.46 54.48, -0.96 47.3, 0 39.74 M13.25 52.98 C5.39 53.09, 0.37 48.95, 0 39.74 M0 39.74 C-0.05 30.34, 0.3 20.36, 0 13.25 M0 39.74 C-0.69 31.32, 0.45 25.08, 0 13.25 M0 13.25 C0.1 4.33, 4.62 1.87, 13.25 0 M0 13.25 C1.17 5.51, 3.18 -1.13, 13.25 0" stroke="#2f9e44" stroke-width="1" fill="none"></path></g><g stroke-linecap="round"><g transform="translate(931.3024872795263 63.73437500000003) rotate(0 -35.903025866145015 69.21389072786086)"><path d="M1.1 -1.16 C-10.95 21.77, -60.81 114.72, -72.91 138.07 M0.22 0.84 C-11.42 23.93, -58.68 116.89, -70.71 139.59" stroke="#f08c00" stroke-width="1" fill="none"></path></g><g transform="translate(931.3024872795263 63.73437500000003) rotate(0 -35.903025866145015 69.21389072786086)"><path d="M-68.81 108.2 C-67.78 118.13, -67.3 126.09, -71.61 139.58 M-66.92 109.94 C-69 118.91, -69.47 128.07, -70.72 138.83" stroke="#f08c00" stroke-width="1" fill="none"></path></g><g transform="translate(931.3024872795263 63.73437500000003) rotate(0 -35.903025866145015 69.21389072786086)"><path d="M-50.58 117.63 C-54.18 125.36, -58.28 130.94, -71.61 139.58 M-48.69 119.37 C-56.6 125.15, -62.93 131.28, -70.72 138.83" stroke="#f08c00" stroke-width="1" fill="none"></path></g></g><mask></mask><g transform="translate(537.55078125 211.4453125) rotate(0 323.7638854980469 17.5)"><text x="0" y="0" font-family="Virgil, Segoe UI Emoji" font-size="28px" fill="#e03131" text-anchor="start" style="white-space: pre;" direction="ltr" dominant-baseline="text-before-edge">自定义构建镜像名，格式username/imagename:tag</text></g><g stroke-linecap="round"><g transform="translate(1234.982430280844 154.41015625) rotate(0 -2.7923925691924296 -47.01240205895155)"><path d="M0.75 0.33 C-0.08 -15.19, -4.41 -76.98, -5.29 -92.63 M-0.32 -0.54 C-1.3 -16.45, -5.55 -79.05, -6.33 -94.36" stroke="#f08c00" stroke-width="1" fill="none"></path></g><g transform="translate(1234.982430280844 154.41015625) rotate(0 -2.7923925691924296 -47.01240205895155)"><path d="M6.17 -67.16 C3.47 -73.43, -1.46 -81.93, -6.1 -94.5 M5.61 -67.78 C2.16 -75.1, -1.58 -82.82, -5.59 -94.13" stroke="#f08c00" stroke-width="1" fill="none"></path></g><g transform="translate(1234.982430280844 154.41015625) rotate(0 -2.7923925691924296 -47.01240205895155)"><path d="M-14.32 -65.91 C-11.36 -72.66, -10.63 -81.5, -6.1 -94.5 M-14.88 -66.53 C-12.68 -74.2, -10.77 -82.25, -5.59 -94.13" stroke="#f08c00" stroke-width="1" fill="none"></path></g></g><mask></mask><g transform="translate(971.140625 158.32421875) rotate(0 210 17.5)"><text x="0" y="0" font-family="Virgil, Segoe UI Emoji" font-size="28px" fill="#e03131" text-anchor="start" style="white-space: pre;" direction="ltr" dominant-baseline="text-before-edge">这里表示构建需要的项目工程目录</text></g></svg>